SplineFontDB: 3.2
FontName: Nu_lirbantu_2025_04_14_emoji
FullName: Nu Lirbantu With Emoji hieroglyphs in ligatures
FamilyName: Nu_lirbantu_2025_04_14_emoji
Weight: Book
Copyright: 
Version: 001.013
ItalicAngle: 0
UnderlinePosition: -100
UnderlineWidth: 50
Ascent: 800
Descent: 200
InvalidEm: 0
sfntRevision: 0x00010000
LayerCount: 2
Layer: 0 1 "Back" 1
Layer: 1 1 "Fore" 0
XUID: [1021 303 -475345955 1247627]
StyleMap: 0x0040
FSType: 0
OS2Version: 4
OS2_WeightWidthSlopeOnly: 0
OS2_UseTypoMetrics: 0
CreationTime: 1744661754
ModificationTime: 1772358534
PfmFamily: 17
TTFWeight: 400
TTFWidth: 5
LineGap: 90
VLineGap: 0
Panose: 2 0 5 3 0 0 0 0 0 0
OS2TypoAscent: 800
OS2TypoAOffset: 0
OS2TypoDescent: -200
OS2TypoDOffset: 0
OS2TypoLinegap: 90
OS2WinAscent: 763
OS2WinAOffset: 0
OS2WinDescent: 130
OS2WinDOffset: 0
HheadAscent: 763
HheadAOffset: 0
HheadDescent: -130
HheadDOffset: 0
OS2SubXSize: 650
OS2SubYSize: 700
OS2SubXOff: 0
OS2SubYOff: 140
OS2SupXSize: 650
OS2SupYSize: 700
OS2SupXOff: 0
OS2SupYOff: 480
OS2StrikeYSize: 49
OS2StrikeYPos: 258
OS2CapHeight: 748
OS2XHeight: 530
OS2Vendor: 'CLGR'
OS2CodePages: 00000001.00000000
OS2UnicodeRanges: 00000007.00000000.00000000.00000000
Lookup: 4 0 1 "'liga' Standard Ligatures in Latin lookup 0" { "'liga' Standard Ligatures in Latin lookup 0 subtable"  } ['liga' ('DFLT' <'dflt' > 'latn' <'dflt' > ) ]
MarkAttachClasses: 1
DEI: 91125
TtTable: prep
PUSHW_1
 511
SCANCTRL
PUSHB_1
 4
SCANTYPE
EndTTInstrs
ShortTable: cvt  2
  33
  633
EndShort
ShortTable: maxp 16
  1
  0
  295
  1148
  64
  0
  0
  2
  0
  1
  1
  0
  64
  0
  0
  0
EndShort
LangName: 1033 "" "" "" "FontForge 2.0 : Nu Lirbantu With Emoji hieroglyphs in ligatures : 1-3-2026" "" "Version 001.013" "" "" "" "" "Created with Calligraphr.com" "" "" "" "" "" "Nu_lirbantu_2025_04_14" "Regular"
GaspTable: 1 65535 15 1
Encoding: UnicodeBmp
UnicodeInterp: none
NameList: AGL For New Fonts
DisplaySize: -48
AntiAlias: 1
FitToEm: 0
WinInfo: 64 16 4
BeginPrivate: 0
EndPrivate

StartChar: .notdef
Encoding: 65536 -1 0
Width: 364
GlyphClass: 1
Flags: W
LayerCount: 2
Fore
SplineSet
33 0 m 1,0,-1
 33 666 l 1,1,-1
 298 666 l 1,2,-1
 298 0 l 1,3,-1
 33 0 l 1,0,-1
66 33 m 1,4,-1
 265 33 l 1,5,-1
 265 633 l 1,6,-1
 66 633 l 1,7,-1
 66 33 l 1,4,-1
EndSplineSet
Validated: 1
EndChar

StartChar: A
Encoding: 65 65 5
Width: 692
GlyphClass: 1
Flags: W
LayerCount: 2
Fore
SplineSet
61 737 m 0,0,1
 76 740 76 740 97 740 c 0,2,3
 123 740 123 740 132 736 c 0,4,5
 144 732 144 732 161 699 c 2,6,-1
 178 667 l 1,7,-1
 178 624 l 2,8,9
 178 546 178 546 148 486 c 0,10,11
 139 465 139 465 141 464 c 0,12,13
 144 462 144 462 157 475 c 0,14,15
 163 482 163 482 186 500 c 128,-1,16
 209 518 209 518 213 522 c 0,17,18
 214 525 214 525 242 547 c 0,19,20
 276 574 276 574 291 588 c 0,21,22
 349 639 349 639 355 639 c 0,23,24
 360 639 360 639 384 661 c 128,-1,25
 408 683 408 683 415 694 c 0,26,27
 435 725 435 725 447 725 c 0,28,29
 448 725 448 725 449.5 724.5 c 128,-1,30
 451 724 451 724 452 724 c 0,31,32
 460 723 460 723 465.5 716.5 c 128,-1,33
 471 710 471 710 471 703 c 0,34,35
 471 699 471 699 451 681 c 0,36,37
 419 652 419 652 410 641 c 128,-1,38
 401 630 401 630 393 608 c 0,39,40
 362 527 362 527 360 522 c 0,41,42
 350 493 350 493 347.5 478.5 c 128,-1,43
 345 464 345 464 344 422 c 2,44,-1
 344 394 l 2,45,46
 344 346 344 346 348 314 c 0,47,48
 352 273 352 273 359.5 259.5 c 128,-1,49
 367 246 367 246 410 202 c 0,50,51
 450 160 450 160 451 158 c 0,52,53
 456 149 456 149 472 142 c 0,54,55
 484 135 484 135 498 126 c 0,56,57
 505 120 505 120 523 120 c 0,58,59
 542 120 542 120 558 121 c 0,60,61
 605 123 605 123 623 125 c 0,62,63
 624 125 624 125 627 125.5 c 128,-1,64
 630 126 630 126 632 126 c 0,65,66
 648 126 648 126 648 117 c 0,67,68
 648 105 648 105 624 99 c 0,69,70
 582 87 582 87 550 87 c 0,71,72
 490 87 490 87 439 135 c 0,73,74
 417 157 417 157 414 157 c 0,75,76
 410 157 410 157 376.5 196.5 c 128,-1,77
 343 236 343 236 338 246 c 0,78,79
 329 263 329 263 321 316 c 128,-1,80
 313 369 313 369 313 411 c 0,81,82
 313 492 313 492 347 560 c 0,83,84
 350 567 350 567 366 599 c 0,85,86
 371 611 371 611 371 614 c 0,87,88
 371 618 371 618 368 618 c 0,89,90
 358 618 358 618 335 596 c 0,91,92
 321 582 321 582 297 564 c 0,93,94
 275 548 275 548 275 545 c 0,95,96
 275 544 275 544 263 536 c 0,97,98
 248 527 248 527 230 508 c 0,99,100
 213 490 213 490 181 464 c 0,101,102
 166 452 166 452 136 425 c 0,103,104
 120 410 120 410 114 410 c 0,105,106
 112 410 112 410 108 412 c 0,107,108
 95 418 95 418 95 428 c 0,109,110
 95 434 95 434 99 439 c 0,111,112
 107 451 107 451 121.5 481.5 c 128,-1,113
 136 512 136 512 136 516 c 0,114,115
 136 523 136 523 143 544 c 0,116,117
 149 562 149 562 153 598 c 0,118,119
 154 605 154 605 154 617 c 0,120,121
 154 639 154 639 135 684 c 0,122,123
 128 701 128 701 123 706.5 c 128,-1,124
 118 712 118 712 109 712 c 0,125,126
 106 712 106 712 90 710 c 0,127,128
 78 707 78 707 65 707 c 0,129,130
 57 707 57 707 55 708 c 0,131,132
 45 710 45 710 46 723 c 0,133,134
 47 731 47 731 49.5 733 c 128,-1,135
 52 735 52 735 61 737 c 0,0,1
EndSplineSet
Validated: 1
EndChar

StartChar: B
Encoding: 66 66 6
Width: 505
GlyphClass: 1
Flags: W
LayerCount: 2
Fore
SplineSet
111 743 m 0,0,1
 109 745 109 745 115 746 c 0,2,3
 129 746 129 746 129 743 c 0,4,5
 129 737 129 737 111 743 c 0,0,1
362 737 m 1,6,7
 352 738 352 738 330.5 739 c 128,-1,8
 309 740 309 740 298 741 c 1,9,-1
 328 742 l 1,10,-1
 338 742 l 2,11,12
 366 742 366 742 402 726 c 0,13,14
 421 717 421 717 428 707.5 c 128,-1,15
 435 698 435 698 442 673 c 0,16,17
 461 597 461 597 461 534 c 0,18,19
 461 487 461 487 454 427 c 0,20,21
 452 406 452 406 450 389.5 c 128,-1,22
 448 373 448 373 445.5 357.5 c 128,-1,23
 443 342 443 342 442 333 c 128,-1,24
 441 324 441 324 438 311 c 128,-1,25
 435 298 435 298 434 293.5 c 128,-1,26
 433 289 433 289 429 276.5 c 128,-1,27
 425 264 425 264 424 261.5 c 128,-1,28
 423 259 423 259 417.5 244 c 128,-1,29
 412 229 412 229 411 225 c 0,30,31
 407 214 407 214 392.5 189.5 c 128,-1,32
 378 165 378 165 375 155 c 0,33,34
 372 147 372 147 362 136.5 c 128,-1,35
 352 126 352 126 337.5 113.5 c 128,-1,36
 323 101 323 101 320 98 c 2,37,-1
 307 85 l 1,38,-1
 272 85 l 2,39,40
 218 85 218 85 218 94 c 0,41,42
 218 99 218 99 212 105 c 0,43,44
 204 114 204 114 194 141 c 128,-1,45
 184 168 184 168 183 186 c 0,46,47
 178 244 178 244 178 274 c 0,48,49
 178 285 178 285 180 333 c 0,50,51
 181 352 181 352 181 394 c 0,52,53
 181 518 181 518 170 581 c 0,54,55
 161 632 161 632 126 673 c 2,56,-1
 111 691 l 1,57,-1
 79 692 l 2,58,59
 46 693 46 693 46 699 c 0,60,61
 46 701 46 701 51 706 c 0,62,63
 64 716 64 716 87 716 c 0,64,65
 93 716 93 716 107 714 c 0,66,67
 150 706 150 706 178 642 c 0,68,69
 196 601 196 601 200 562.5 c 128,-1,70
 204 524 204 524 205 397 c 0,71,72
 206 250 206 250 212 193.5 c 128,-1,73
 218 137 218 137 234 122 c 0,74,75
 241 115 241 115 260 113 c 0,76,77
 262 113 262 113 264 112.5 c 128,-1,78
 266 112 266 112 268 112 c 0,79,80
 295 112 295 112 320 132 c 128,-1,81
 345 152 345 152 355 174 c 0,82,83
 357 178 357 178 360 184 c 128,-1,84
 363 190 363 190 367.5 198 c 128,-1,85
 372 206 372 206 375 211 c 0,86,87
 397 250 397 250 414 324 c 128,-1,88
 431 398 431 398 434 468 c 2,89,-1
 434 481 l 2,90,91
 434 584 434 584 414 677 c 0,92,93
 410 682 410 682 405 688 c 0,94,95
 397 698 397 698 379 704 c 0,96,97
 367 708 367 708 364.5 710.5 c 128,-1,98
 362 713 362 713 362 723 c 2,99,-1
 362 737 l 1,6,7
68 664 m 0,100,101
 59 664 59 664 59 678 c 0,102,103
 59 686 59 686 63 686 c 0,104,105
 66 686 66 686 71 680 c 0,106,107
 75 676 75 676 74 670 c 128,-1,108
 73 664 73 664 68 664 c 0,100,101
EndSplineSet
Validated: 1
EndChar

StartChar: C
Encoding: 67 67 7
Width: 606
GlyphClass: 1
Flags: W
LayerCount: 2
Fore
SplineSet
371 136 m 128,-1,1
 373 136 373 136 389.5 147.5 c 128,-1,2
 406 159 406 159 409 159 c 0,3,4
 414 159 414 159 434 172 c 0,5,6
 448 181 448 181 457.5 192.5 c 128,-1,7
 467 204 467 204 486 235 c 0,8,9
 493 246 493 246 509 270 c 0,10,11
 530 299 530 299 530 399 c 0,12,13
 530 459 530 459 523 486 c 0,14,15
 516 512 516 512 514 529 c 0,16,17
 513 541 513 541 499 570 c 128,-1,18
 485 599 485 599 481 599 c 0,19,20
 478 599 478 599 460 622 c 0,21,22
 413 684 413 684 367 700 c 0,23,24
 353 705 353 705 311 710.5 c 128,-1,25
 269 716 269 716 245 716 c 0,26,27
 235 716 235 716 233 715 c 0,28,29
 222 713 222 713 185 678 c 0,30,31
 143 639 143 639 143 623 c 0,32,33
 143 619 143 619 147 613 c 0,34,35
 152 607 152 607 142 595 c 0,36,37
 132 585 132 585 132 571 c 2,38,-1
 132 566 l 2,39,40
 133 555 133 555 131.5 552.5 c 128,-1,41
 130 550 130 550 121 549 c 0,42,43
 108 548 108 548 100 558 c 0,44,45
 91 568 91 568 94 574 c 0,46,47
 94 575 94 575 95.5 581.5 c 128,-1,48
 97 588 97 588 98.5 599 c 128,-1,49
 100 610 100 610 102 619 c 0,50,51
 107 651 107 651 107 659 c 0,52,53
 107 668 107 668 104 682 c 0,54,55
 98 706 98 706 98 712 c 0,56,57
 94 726 94 726 94 727 c 0,58,59
 92 732 92 732 93.5 733 c 128,-1,60
 95 734 95 734 105 733 c 0,61,62
 116 732 116 732 119 728.5 c 128,-1,63
 122 725 122 725 128 708 c 0,64,65
 135 686 135 686 140 681 c 0,66,67
 143 678 143 678 157 696 c 128,-1,68
 171 714 171 714 176 714 c 0,69,70
 180 714 180 714 193 725 c 0,71,72
 204 734 204 734 225 744 c 0,73,74
 240 752 240 752 255 752 c 0,75,76
 268 752 268 752 280 747 c 0,77,78
 300 741 300 741 332 734 c 0,79,80
 386 722 386 722 406.5 712.5 c 128,-1,81
 427 703 427 703 451 679 c 0,82,83
 486 643 486 643 511 605 c 128,-1,84
 536 567 536 567 536 548 c 0,85,86
 536 536 536 536 540 534 c 128,-1,87
 544 532 544 532 544 514 c 0,88,89
 544 495 544 495 549 482 c 0,90,91
 561 451 561 451 561 370 c 0,92,93
 561 349 561 349 560 342 c 0,94,95
 558 330 558 330 555 318.5 c 128,-1,96
 552 307 552 307 549.5 299.5 c 128,-1,97
 547 292 547 292 541.5 280 c 128,-1,98
 536 268 536 268 533.5 263.5 c 128,-1,99
 531 259 531 259 524 245.5 c 128,-1,100
 517 232 517 232 515 228 c 0,101,102
 502 203 502 203 484.5 181 c 128,-1,103
 467 159 467 159 460 159 c 0,104,105
 439 159 439 159 411 131 c 0,106,107
 402 122 402 122 372 106 c 0,108,109
 342 92 342 92 297 86 c 0,110,111
 243 80 243 80 216 80 c 0,112,113
 183 80 183 80 160 92 c 0,114,115
 151 97 151 97 138 101 c 128,-1,116
 125 105 125 105 119 110 c 128,-1,117
 113 115 113 115 105 127 c 0,118,119
 100 134 100 134 84 151.5 c 128,-1,120
 68 169 68 169 56.5 185.5 c 128,-1,121
 45 202 45 202 45 213 c 0,122,123
 45 222 45 222 58 231 c 0,124,125
 68 237 68 237 83 229 c 0,126,127
 94 223 94 223 96.5 219 c 128,-1,128
 99 215 99 215 100 199 c 0,129,130
 102 177 102 177 117 159 c 0,131,132
 131 142 131 142 160 128.5 c 128,-1,133
 189 115 189 115 218 113 c 0,134,135
 220 113 220 113 225.5 112.5 c 128,-1,136
 231 112 231 112 234 112 c 0,137,138
 263 112 263 112 301 117 c 128,-1,139
 339 122 339 122 351 128 c 0,140,0
 369 136 369 136 371 136 c 128,-1,1
EndSplineSet
Validated: 1
EndChar

StartChar: D
Encoding: 68 68 8
Width: 512
GlyphClass: 1
Flags: W
LayerCount: 2
Fore
SplineSet
103 737 m 0,0,1
 133 740 133 740 150 740 c 0,2,3
 168 740 168 740 169 737 c 0,4,5
 171 733 171 733 162 721 c 0,6,7
 145 700 145 700 137 660 c 0,8,9
 132 637 132 637 132 624 c 0,10,11
 132 609 132 609 144 540 c 0,12,13
 154 490 154 490 168 466 c 0,14,15
 189 432 189 432 202 426 c 0,16,17
 220 417 220 417 241 417 c 0,18,19
 270 417 270 417 293 435 c 0,20,21
 294 436 294 436 309 446.5 c 128,-1,22
 324 457 324 457 335 467 c 128,-1,23
 346 477 346 477 346 481 c 128,-1,24
 346 485 346 485 358 501 c 0,25,26
 368 515 368 515 380 542 c 0,27,28
 391 570 391 570 392 609 c 0,29,30
 392 614 392 614 392.5 621.5 c 128,-1,31
 393 629 393 629 393 632 c 0,32,33
 393 648 393 648 386 680 c 0,34,35
 379 706 379 706 379 715 c 0,36,37
 379 720 379 720 376 724.5 c 128,-1,38
 373 729 373 729 373 730 c 0,39,40
 373 734 373 734 391 735 c 2,41,-1
 408 738 l 1,42,-1
 414 713 l 2,43,44
 418 695 418 695 423.5 653.5 c 128,-1,45
 429 612 429 612 433 594 c 0,46,47
 441 562 441 562 444 538 c 0,48,49
 446 523 446 523 449.5 510 c 128,-1,50
 453 497 453 497 455 481 c 0,51,52
 457 457 457 457 464 408 c 0,53,54
 471 348 471 348 471 288 c 0,55,56
 471 237 471 237 466 205 c 0,57,58
 462 178 462 178 446.5 147.5 c 128,-1,59
 431 117 431 117 417 106 c 0,60,61
 393 88 393 88 373 88 c 0,62,63
 370 88 370 88 369 89 c 0,64,65
 332 111 332 111 332 113 c 2,66,-1
 333 115 l 2,67,68
 334 117 334 117 335 120 c 128,-1,69
 336 123 336 123 337 126 c 0,70,71
 341 137 341 137 353 137 c 0,72,73
 366 137 366 137 373 129 c 0,74,75
 381 121 381 121 386 121 c 0,76,77
 392 121 392 121 404 133 c 0,78,79
 427 156 427 156 434 186.5 c 128,-1,80
 441 217 441 217 442 294 c 2,81,-1
 442 312 l 2,82,83
 442 424 442 424 428 470 c 0,84,85
 422 487 422 487 419 516 c 0,86,87
 415 550 415 550 411 550 c 0,88,89
 409 550 409 550 406 539 c 0,90,91
 394 499 394 499 344 449 c 0,92,93
 317 422 317 422 298 411.5 c 128,-1,94
 279 401 279 401 252 396 c 0,95,96
 236 394 236 394 229 394 c 0,97,98
 205 394 205 394 188.5 405.5 c 128,-1,99
 172 417 172 417 152 446 c 0,100,101
 141 461 141 461 134 478 c 128,-1,102
 127 495 127 495 124.5 503.5 c 128,-1,103
 122 512 122 512 117.5 538.5 c 128,-1,104
 113 565 113 565 111 573 c 0,105,106
 107 593 107 593 107 614 c 0,107,108
 107 636 107 636 115 670 c 0,109,110
 121 691 121 691 121 701 c 0,111,112
 121 704 121 704 120 705 c 0,113,114
 118 707 118 707 94 707 c 2,115,-1
 90 707 l 2,116,117
 74 707 74 707 60 711 c 128,-1,118
 46 715 46 715 46 719 c 0,119,120
 46 731 46 731 103 737 c 0,0,1
EndSplineSet
Validated: 1
EndChar

StartChar: E
Encoding: 69 69 9
Width: 310
GlyphClass: 1
Flags: W
LayerCount: 2
Fore
SplineSet
165 179 m 2,0,1
 165 182 165 182 166 223.5 c 128,-1,2
 167 265 167 265 167.5 315 c 128,-1,3
 168 365 168 365 168 390 c 2,4,-1
 167 413 l 2,5,6
 163 413 163 413 155 408 c 0,7,8
 144 402 144 402 123 402 c 0,9,10
 97 402 97 402 97 413 c 0,11,12
 97 416 97 416 100 420 c 0,13,14
 104 426 104 426 156 439 c 0,15,16
 166 441 166 441 167 442.5 c 128,-1,17
 168 444 168 444 167 451 c 0,18,19
 163 471 163 471 163 531 c 0,20,21
 163 565 163 565 157 671 c 2,22,-1
 155 700 l 1,23,-1
 135 704 l 2,24,25
 113 709 113 709 104 719 c 0,26,27
 95 728 95 728 95 731 c 0,28,29
 95 733 95 733 97 733 c 0,30,31
 102 733 102 733 120 724 c 0,32,33
 121 723 121 723 123 726 c 2,34,-1
 124 730 l 2,35,36
 126 737 126 737 185 750 c 0,37,38
 195 752 195 752 199 752 c 0,39,40
 213 752 213 752 220 745 c 0,41,42
 226 738 226 738 226 734 c 0,43,44
 226 726 226 726 203 719.5 c 128,-1,45
 180 713 180 713 180 703 c 0,46,47
 180 688 180 688 185 646 c 0,48,49
 190 599 190 599 190 542 c 0,50,51
 190 491 190 491 192 467 c 2,52,-1
 195 446 l 1,53,-1
 209 444 l 2,54,55
 223 442 223 442 225 440 c 0,56,57
 228 437 228 437 223 431 c 128,-1,58
 218 425 218 425 210 420 c 0,59,60
 200 415 200 415 197.5 397.5 c 128,-1,61
 195 380 195 380 191 300 c 0,62,63
 189 242 189 242 189 228 c 0,64,65
 189 182 189 182 196 133 c 2,66,-1
 197 122 l 1,67,-1
 228 122 l 2,68,69
 251 122 251 122 258 119 c 128,-1,70
 265 116 265 116 265 106 c 256,71,72
 265 96 265 96 258 94 c 0,73,74
 255 93 255 93 232 92 c 0,75,76
 199 90 199 90 192 81 c 0,77,78
 185 71 185 71 175 71 c 0,79,80
 170 71 170 71 165 76 c 0,81,82
 162 80 162 80 146 80 c 0,83,84
 144 80 144 80 135 79.5 c 128,-1,85
 126 79 126 79 120 79 c 0,86,87
 109 78 109 78 94 78 c 0,88,89
 76 78 76 78 58 84 c 0,90,91
 45 88 45 88 45 91 c 0,92,93
 45 92 45 92 47 92 c 0,94,95
 54 92 54 92 68 98 c 0,96,97
 71 99 71 99 115 106.5 c 128,-1,98
 159 114 159 114 163 118 c 0,99,100
 165 122 165 122 165 162 c 2,101,-1
 165 179 l 2,0,1
EndSplineSet
Validated: 1
EndChar

StartChar: F
Encoding: 70 70 10
Width: 561
GlyphClass: 1
Flags: W
LayerCount: 2
Fore
SplineSet
102 752 m 0,0,1
 98 755 98 755 110 755 c 0,2,3
 126 755 126 755 127 752 c 0,4,5
 128 750 128 750 125 750 c 0,6,7
 115 747 115 747 102 752 c 0,0,1
176 388 m 2,8,9
 194 388 194 388 275.5 397.5 c 128,-1,10
 357 407 357 407 386 407 c 2,11,-1
 427 408 l 1,12,-1
 427 399 l 2,13,14
 427 392 427 392 423 390.5 c 128,-1,15
 419 389 419 389 398 387 c 0,16,17
 374 385 374 385 324 378.5 c 128,-1,18
 274 372 274 372 249 370 c 0,19,20
 210 367 210 367 183 362 c 2,21,-1
 163 358 l 1,22,-1
 163 342 l 2,23,24
 162 302 162 302 153.5 223.5 c 128,-1,25
 145 145 145 145 140 124 c 0,26,27
 136 111 136 111 128.5 99.5 c 128,-1,28
 121 88 121 88 117 88 c 0,29,30
 110 88 110 88 93 83 c 0,31,32
 82 79 82 79 76 79 c 0,33,34
 69 79 69 79 59 84 c 0,35,36
 44 92 44 92 47 99 c 0,37,38
 53 109 53 109 71 109 c 0,39,40
 77 109 77 109 79 108 c 128,-1,41
 81 107 81 107 84 107 c 0,42,43
 115 107 115 107 124 219 c 0,44,45
 125 239 125 239 130.5 283.5 c 128,-1,46
 136 328 136 328 137 338 c 2,47,-1
 138 358 l 1,48,-1
 116 359 l 1,49,-1
 108 359 l 2,50,51
 94 359 94 359 83 352 c 0,52,53
 77 347 77 347 67 347 c 0,54,55
 56 347 56 347 53 354 c 0,56,57
 51 358 51 358 57.5 362.5 c 128,-1,58
 64 367 64 367 70 366 c 0,59,60
 76 366 76 366 88 372 c 0,61,62
 100 377 100 377 111.5 379 c 128,-1,63
 123 381 123 381 127.5 381 c 128,-1,64
 132 381 132 381 136 385 c 128,-1,65
 140 389 140 389 141 397 c 128,-1,66
 142 405 142 405 142 423 c 0,67,68
 142 430 142 430 141.5 457 c 128,-1,69
 141 484 141 484 141 506 c 0,70,71
 140 651 140 651 126 685 c 0,72,73
 122 693 122 693 118.5 695.5 c 128,-1,74
 115 698 115 698 99 701 c 0,75,76
 82 704 82 704 72 701 c 0,77,78
 61 697 61 697 60 699.5 c 128,-1,79
 59 702 59 702 66 715 c 0,80,81
 75 730 75 730 87 732 c 2,82,-1
 94 732 l 2,83,84
 124 732 124 732 137 720 c 0,85,86
 152 708 152 708 159.5 668.5 c 128,-1,87
 167 629 167 629 168.5 596 c 128,-1,88
 170 563 170 563 172 563 c 0,89,90
 175 565 175 565 195 595 c 0,91,92
 209 616 209 616 228 641 c 0,93,94
 230 644 230 644 235.5 651 c 128,-1,95
 241 658 241 658 245.5 663.5 c 128,-1,96
 250 669 250 669 253 673 c 0,97,98
 260 683 260 683 269 691 c 128,-1,99
 278 699 278 699 293.5 709.5 c 128,-1,100
 309 720 309 720 313 723 c 0,101,102
 337 741 337 741 383 741 c 0,103,104
 405 741 405 741 426.5 729.5 c 128,-1,105
 448 718 448 718 457 701 c 0,106,107
 466 685 466 685 472 679 c 0,108,109
 495 652 495 652 507 559 c 0,110,111
 511 524 511 524 514 504 c 0,112,113
 517 483 517 483 517 417 c 0,114,115
 517 350 517 350 514 317 c 0,116,117
 512 295 512 295 507.5 280.5 c 128,-1,118
 503 266 503 266 495 248 c 128,-1,119
 487 230 487 230 482 217 c 0,120,121
 475 198 475 198 469 187.5 c 128,-1,122
 463 177 463 177 459 169 c 0,123,124
 455 158 455 158 426.5 129 c 128,-1,125
 398 100 398 100 385 93 c 0,126,127
 356 78 356 78 323 78 c 0,128,129
 272 78 272 78 248 108 c 0,130,131
 240 120 240 120 223 130 c 0,132,133
 209 138 209 138 208 139 c 0,134,135
 202 145 202 145 195 149 c 0,136,137
 183 156 183 156 183 166 c 0,138,139
 183 172 183 172 185.5 173 c 128,-1,140
 188 174 188 174 198 172 c 0,141,142
 230 167 230 167 265 135 c 0,143,144
 285 115 285 115 294.5 110.5 c 128,-1,145
 304 106 304 106 323 106 c 0,146,147
 341 106 341 106 366 118 c 0,148,149
 384 126 384 126 403 142 c 128,-1,150
 422 158 422 158 422 164 c 0,151,152
 422 167 422 167 433 182 c 0,153,154
 446 199 446 199 479 291 c 0,155,156
 491 324 491 324 491 420 c 0,157,158
 491 486 491 486 484 511 c 0,159,160
 479 528 479 528 479 554 c 0,161,162
 479 575 479 575 474.5 590 c 128,-1,163
 470 605 470 605 452 648 c 0,164,165
 441 674 441 674 435.5 682 c 128,-1,166
 430 690 430 690 418 698 c 0,167,168
 395 715 395 715 364 715 c 0,169,170
 356 715 356 715 352 714 c 0,171,172
 339 712 339 712 280 668 c 0,173,174
 271 661 271 661 268 654 c 0,175,176
 262 644 262 644 210 576 c 0,177,178
 193 556 193 556 193 552 c 128,-1,179
 193 548 193 548 182 532 c 2,180,-1
 170 515 l 1,181,182
 170 494 170 494 169 451.5 c 128,-1,183
 168 409 168 409 168 388 c 1,184,-1
 176 388 l 2,8,9
EndSplineSet
Validated: 1
EndChar

StartChar: G
Encoding: 71 71 11
Width: 541
GlyphClass: 1
Flags: W
LayerCount: 2
Fore
SplineSet
464 734 m 0,0,1
 471 735 471 735 481 735 c 0,2,3
 496 735 496 735 496 730 c 0,4,5
 496 724 496 724 477 714 c 0,6,7
 456 703 456 703 456 699 c 0,8,9
 456 697 456 697 460 693 c 0,10,11
 465 688 465 688 461 669 c 0,12,13
 458 651 458 651 452 590 c 0,14,15
 438 392 438 392 431 370 c 0,16,17
 427 354 427 354 427 278 c 0,18,19
 425 170 425 170 424 156 c 2,20,-1
 423 119 l 1,21,-1
 437 119 l 2,22,23
 456 119 456 119 456 112 c 0,24,25
 456 102 456 102 431 93 c 0,26,27
 414 86 414 86 401 86 c 128,-1,28
 388 86 388 86 379 87 c 0,29,30
 347 89 347 89 347 97 c 0,31,32
 347 110 347 110 374 114 c 0,33,34
 393 117 393 117 393 131 c 0,35,36
 393 133 393 133 391 143 c 0,37,38
 390 147 390 147 390 170 c 0,39,40
 390 208 390 208 392 233 c 0,41,42
 395 278 395 278 395 292 c 0,43,44
 395 308 395 308 387 329 c 0,45,46
 362 389 362 389 332 406 c 0,47,48
 325 410 325 410 288 410 c 0,49,50
 255 410 255 410 237 407 c 0,51,52
 202 401 202 401 164 374 c 128,-1,53
 126 347 126 347 113 318 c 0,54,55
 93 276 93 276 93 241 c 0,56,57
 93 234 93 234 94 232 c 0,58,59
 98 225 98 225 94 216 c 0,60,61
 92 212 92 212 92 205 c 0,62,63
 92 170 92 170 106 156 c 0,64,65
 113 149 113 149 113 136 c 0,66,67
 113 125 113 125 119 116.5 c 128,-1,68
 125 108 125 108 133 108 c 0,69,70
 140 108 140 108 140 103 c 0,71,72
 140 96 140 96 125.5 86 c 128,-1,73
 111 76 111 76 102 76 c 0,74,75
 99 76 99 76 98 77 c 128,-1,76
 97 78 97 78 93.5 79.5 c 128,-1,77
 90 81 90 81 83 83 c 128,-1,78
 76 85 76 85 71 87 c 0,79,80
 54 93 54 93 50.5 96 c 128,-1,81
 47 99 47 99 46 108 c 128,-1,82
 45 117 45 117 46.5 118.5 c 128,-1,83
 48 120 48 120 55 118 c 0,84,85
 73 113 73 113 83 113 c 0,86,87
 87 113 87 113 87 115 c 0,88,89
 87 118 87 118 84 121 c 0,90,91
 80 123 80 123 71 153 c 0,92,93
 59 189 59 189 59 222 c 0,94,95
 59 242 59 242 63 255 c 0,96,97
 75 297 75 297 84 319 c 0,98,99
 95 341 95 341 125 373.5 c 128,-1,100
 155 406 155 406 165 406 c 0,101,102
 173 406 173 406 187 415 c 0,103,104
 219 437 219 437 275 437 c 0,105,106
 336 437 336 437 358 419 c 0,107,108
 386 395 386 395 395 378 c 0,109,110
 399 371 399 371 400.5 370 c 128,-1,111
 402 369 402 369 404 373 c 0,112,113
 408 379 408 379 413 420 c 128,-1,114
 418 461 418 461 418 482 c 128,-1,115
 418 503 418 503 410 515 c 2,116,-1
 403 526 l 1,117,118
 413 530 413 530 413.5 530 c 128,-1,119
 414 530 414 530 418 536.5 c 128,-1,120
 422 543 422 543 422 551 c 128,-1,121
 422 559 422 559 424 582 c 0,122,123
 427 630 427 630 427 664 c 0,124,125
 427 692 427 692 425 696 c 0,126,127
 422 701 422 701 414 696 c 128,-1,128
 406 691 406 691 399 698 c 0,129,130
 392 704 392 704 392 710 c 0,131,132
 392 718 392 718 404 721 c 0,133,134
 445 733 445 733 464 734 c 0,0,1
EndSplineSet
Validated: 1
EndChar

StartChar: H
Encoding: 72 72 12
Width: 328
GlyphClass: 1
Flags: W
LayerCount: 2
Fore
SplineSet
258 654 m 0,0,1
 258 658 258 658 258.5 664.5 c 128,-1,2
 259 671 259 671 259 673 c 0,3,4
 259 688 259 688 256 689 c 0,5,6
 251 692 251 692 249 684 c 0,7,8
 240 659 240 659 240 594 c 2,9,-1
 240 588 l 2,10,11
 240 584 240 584 242 584 c 0,12,13
 246 584 246 584 251 607.5 c 128,-1,14
 256 631 256 631 258 654 c 0,0,1
227 648 m 0,15,16
 227 690 227 690 241 730 c 0,17,18
 242 734 242 734 244 734 c 0,19,20
 248 734 248 734 265 717 c 2,21,-1
 283 700 l 1,22,-1
 283 665 l 2,23,24
 283 602 283 602 252 525 c 0,25,26
 235 483 235 483 235 400 c 0,27,28
 235 315 235 315 215 190 c 0,29,30
 206 144 206 144 206 130 c 0,31,32
 206 124 206 124 207 123 c 0,33,34
 211 119 211 119 241 119 c 128,-1,35
 271 119 271 119 271 115 c 128,-1,36
 271 111 271 111 244 102 c 0,37,38
 214 92 214 92 184 92 c 0,39,40
 164 92 164 92 151 96 c 0,41,42
 137 99 137 99 134.5 101.5 c 128,-1,43
 132 104 132 104 134 112 c 0,44,45
 137 121 137 121 153 121 c 0,46,47
 171 121 171 121 174 124 c 0,48,49
 180 128 180 128 185.5 142 c 128,-1,50
 191 156 191 156 191 167 c 0,51,52
 191 184 191 184 198 210 c 0,53,54
 219 301 219 301 219 379 c 0,55,56
 219 438 219 438 216 438 c 0,57,58
 212 438 212 438 205 421 c 0,59,60
 193 395 193 395 154.5 363 c 128,-1,61
 116 331 116 331 94 328 c 2,62,-1
 86 328 l 2,63,64
 50 328 50 328 46 337 c 0,65,66
 46 338 46 338 49 340 c 128,-1,67
 52 342 52 342 58.5 344 c 128,-1,68
 65 346 65 346 73 348 c 0,69,70
 104 355 104 355 119 366 c 0,71,72
 137 378 137 378 139 378 c 0,73,74
 146 378 146 378 163 402 c 128,-1,75
 180 426 180 426 196 458 c 0,76,77
 213 492 213 492 216.5 504.5 c 128,-1,78
 220 517 220 517 223 554 c 0,79,80
 227 612 227 612 227 648 c 0,15,16
EndSplineSet
Validated: 1
EndChar

StartChar: I
Encoding: 73 73 13
Width: 226
GlyphClass: 1
Flags: W
LayerCount: 2
Fore
SplineSet
95 735 m 0,0,1
 109 742 109 742 131 742 c 0,2,3
 166 742 166 742 166 733 c 0,4,5
 166 729 166 729 175 720 c 0,6,7
 181 714 181 714 181 710 c 0,8,9
 181 704 181 704 157 700.5 c 128,-1,10
 133 697 133 697 130 692 c 0,11,12
 128 688 128 688 128 660 c 2,13,-1
 128 640 l 2,14,15
 130 609 130 609 130 551 c 0,16,17
 130 491 130 491 128 455 c 0,18,19
 124 387 124 387 112 243 c 0,20,21
 106 169 106 169 106 148 c 0,22,23
 106 131 106 131 108 129 c 0,24,25
 111 125 111 125 134 125 c 0,26,27
 158 125 158 125 160 119 c 128,-1,28
 162 113 162 113 162 112 c 0,29,30
 162 106 162 106 123 98 c 0,31,32
 74 89 74 89 63 85 c 0,33,34
 54 83 54 83 50 87 c 128,-1,35
 46 91 46 91 46 102 c 0,36,37
 46 111 46 111 61 122 c 0,38,39
 87 139 87 139 87 197 c 0,40,41
 87 220 87 220 91 248 c 0,42,43
 96 281 96 281 104 403 c 0,44,45
 108 456 108 456 108 548 c 0,46,47
 108 638 108 638 104 670 c 0,48,49
 102 689 102 689 100.5 691 c 128,-1,50
 99 693 99 693 92 691 c 0,51,52
 70 686 70 686 67 686 c 0,53,54
 60 686 60 686 60 695 c 0,55,56
 60 703 60 703 71 715.5 c 128,-1,57
 82 728 82 728 95 735 c 0,0,1
EndSplineSet
Validated: 1
EndChar

StartChar: K
Encoding: 75 75 14
Width: 502
GlyphClass: 1
Flags: W
LayerCount: 2
Fore
SplineSet
366 732 m 0,0,1
 374 734 374 734 388 734 c 0,2,3
 391 734 391 734 399 733.5 c 128,-1,4
 407 733 407 733 411 733 c 0,5,6
 444 731 444 731 452 723 c 0,7,8
 457 716 457 716 457 714 c 0,9,10
 457 710 457 710 436 707 c 0,11,12
 413 704 413 704 408 696 c 128,-1,13
 403 688 403 688 403 652 c 2,14,-1
 403 622 l 2,15,16
 404 487 404 487 411 472 c 0,17,18
 415 463 415 463 417 427 c 0,19,20
 417 423 417 423 417.5 415.5 c 128,-1,21
 418 408 418 408 418 405 c 0,22,23
 418 376 418 376 407 304 c 0,24,25
 406 297 406 297 403.5 278.5 c 128,-1,26
 401 260 401 260 400 253 c 0,27,28
 396 221 396 221 377 182 c 0,29,30
 364 154 364 154 336 129 c 0,31,32
 312 107 312 107 299 101.5 c 128,-1,33
 286 96 286 96 251 91 c 0,34,35
 227 88 227 88 216 88 c 0,36,37
 203 88 203 88 184 92 c 0,38,39
 150 100 150 100 144 103 c 0,40,41
 100 127 100 127 81 191 c 0,42,43
 73 218 73 218 65 223 c 0,44,45
 46 234 46 234 46 244 c 0,46,47
 46 245 46 245 47 246 c 0,48,49
 51 250 51 250 92 250 c 0,50,51
 150 250 150 250 150 237 c 0,52,53
 150 230 150 230 138 221 c 2,54,-1
 126 211 l 1,55,-1
 132 190 l 2,56,57
 137 169 137 169 135 163 c 0,58,59
 134 162 134 162 134 159 c 0,60,61
 134 146 134 146 163 132 c 0,62,63
 183 122 183 122 220 119 c 0,64,65
 229 118 229 118 241 118 c 0,66,67
 256 118 256 118 281 129 c 0,68,69
 312 144 312 144 347 187 c 0,70,71
 355 197 355 197 364 222.5 c 128,-1,72
 373 248 373 248 374 263 c 0,73,74
 374 274 374 274 381 318 c 0,75,76
 391 372 391 372 391 401 c 0,77,78
 391 418 391 418 388 437 c 0,79,80
 376 537 376 537 375 619 c 0,81,82
 374 690 374 690 369 696 c 0,83,84
 367 698 367 698 363 698 c 0,85,86
 357 698 357 698 345 695 c 0,87,88
 332 692 332 692 332 698 c 0,89,90
 332 701 332 701 325.5 708.5 c 128,-1,91
 319 716 319 716 321 722 c 0,92,93
 322 730 322 730 338 729 c 0,94,95
 357 729 357 729 366 732 c 0,0,1
EndSplineSet
Validated: 1
EndChar

StartChar: L
Encoding: 76 76 15
Width: 772
GlyphClass: 1
Flags: W
LayerCount: 2
Fore
SplineSet
46 746 m 2,0,-1
 46 759 l 1,1,-1
 75 756 l 2,2,3
 102 753 102 753 111 749 c 0,4,5
 144 732 144 732 144 718 c 0,6,7
 144 710 144 710 151 694 c 0,8,9
 168 656 168 656 168 594 c 2,10,-1
 168 574 l 1,11,-1
 166 529 l 1,12,-1
 177 526 l 1,13,-1
 191 521 l 1,14,-1
 183 521 l 2,15,16
 172 521 172 521 169.5 512.5 c 128,-1,17
 167 504 167 504 165 453 c 0,18,19
 165 441 165 441 164 425 c 128,-1,20
 163 409 163 409 161.5 393 c 128,-1,21
 160 377 160 377 160 372 c 0,22,23
 160 370 160 370 153.5 255.5 c 128,-1,24
 147 141 147 141 147 128 c 0,25,26
 147 121 147 121 176 110 c 0,27,28
 206 100 206 100 220 100 c 0,29,30
 233 100 233 100 241 101 c 0,31,32
 276 103 276 103 290 113 c 0,33,34
 299 119 299 119 308.5 129.5 c 128,-1,35
 318 140 318 140 319 145 c 0,36,37
 319 146 319 146 330 163 c 0,38,39
 338 175 338 175 354 207 c 0,40,41
 366 233 366 233 372 239 c 0,42,43
 377 245 377 245 392 290 c 128,-1,44
 407 335 407 335 407 345 c 128,-1,45
 407 355 407 355 413 369 c 0,46,47
 418 381 418 381 425 430.5 c 128,-1,48
 432 480 432 480 432 500 c 2,49,-1
 432 519 l 1,50,-1
 417 521 l 2,51,52
 412 523 412 523 412 524 c 0,53,54
 424 525 424 525 428.5 527.5 c 128,-1,55
 433 530 433 530 433 538 c 0,56,57
 433 539 433 539 432.5 542 c 128,-1,58
 432 545 432 545 432 547 c 0,59,60
 431 552 431 552 430 581 c 128,-1,61
 429 610 429 610 426.5 634 c 128,-1,62
 424 658 424 658 421 665 c 0,63,64
 417 674 417 674 405 685.5 c 128,-1,65
 393 697 393 697 382 702 c 0,66,67
 373 706 373 706 373 710 c 0,68,69
 373 716 373 716 380.5 722 c 128,-1,70
 388 728 388 728 396 728 c 0,71,72
 405 728 405 728 419.5 718.5 c 128,-1,73
 434 709 434 709 434 703 c 0,74,75
 434 698 434 698 440 690 c 0,76,77
 456 672 456 672 458 582 c 0,78,79
 458 528 458 528 463 526 c 0,80,81
 469 524 469 524 462 520 c 128,-1,82
 455 516 455 516 454 461 c 0,83,84
 452 403 452 403 446 380 c 0,85,86
 431 326 431 326 431 305 c 0,87,88
 431 289 431 289 427 283 c 0,89,90
 420 270 420 270 417 235 c 0,91,92
 416 227 416 227 416 212 c 0,93,94
 416 176 416 176 430 159 c 0,95,96
 453 132 453 132 459.5 126.5 c 128,-1,97
 466 121 466 121 486 115 c 0,98,99
 510 108 510 108 530 108 c 0,100,101
 551 108 551 108 559 115 c 0,102,103
 572 125 572 125 595 158 c 128,-1,104
 618 191 618 191 630 216 c 0,105,106
 683 327 683 327 688 472 c 0,107,108
 690 526 690 526 693 538 c 0,109,110
 698 559 698 559 698 600 c 0,111,112
 698 660 698 660 687 684 c 0,113,114
 682 695 682 695 675 698 c 0,115,116
 667 701 667 701 667 711 c 128,-1,117
 667 721 667 721 678 721 c 0,118,119
 691 721 691 721 696.5 717.5 c 128,-1,120
 702 714 702 714 709 703 c 0,121,122
 727 673 727 673 727 600 c 0,123,124
 727 534 727 534 705 371 c 0,125,126
 701 334 701 334 678 258 c 0,127,128
 671 237 671 237 650.5 196.5 c 128,-1,129
 630 156 630 156 620 144 c 0,130,131
 611 133 611 133 611 130 c 0,132,133
 611 128 611 128 596 112.5 c 128,-1,134
 581 97 581 97 571 89 c 0,135,136
 558 78 558 78 523 78 c 0,137,138
 514 78 514 78 510 79 c 0,139,140
 489 82 489 82 463.5 94.5 c 128,-1,141
 438 107 438 107 427 118 c 0,142,143
 415 132 415 132 403 155.5 c 128,-1,144
 391 179 391 179 389 194 c 2,145,-1
 387 210 l 1,146,-1
 376 193 l 2,147,148
 371 185 371 185 359 160.5 c 128,-1,149
 347 136 347 136 335 120 c 0,150,151
 324 105 324 105 316 99.5 c 128,-1,152
 308 94 308 94 286 85 c 0,153,154
 257 73 257 73 239 73 c 0,155,156
 237 73 237 73 230 73.5 c 128,-1,157
 223 74 223 74 219 74 c 0,158,159
 185 76 185 76 176 80 c 0,160,161
 173 81 173 81 167 84 c 128,-1,162
 161 87 161 87 157.5 88.5 c 128,-1,163
 154 90 154 90 150 94 c 128,-1,164
 146 98 146 98 145 103 c 0,165,166
 140 125 140 125 128 103 c 0,167,168
 124 95 124 95 112 90 c 0,169,170
 108 89 108 89 98 89 c 0,171,172
 58 89 58 89 58 106 c 0,173,174
 58 108 58 108 60 112 c 0,175,176
 64 122 64 122 78 122 c 0,177,178
 88 122 88 122 95 117 c 0,179,180
 99 115 99 115 101 115 c 0,181,182
 115 115 115 115 121 150 c 0,183,184
 131 202 131 202 131 278 c 0,185,186
 131 281 131 281 130.5 283 c 128,-1,187
 130 285 130 285 130 286 c 2,188,-1
 130 288 l 1,189,-1
 130 293 l 2,190,191
 130 300 130 300 132 332 c 0,192,193
 141 427 141 427 141 502 c 0,194,195
 141 522 141 522 140 523 c 0,196,197
 136 527 136 527 140 531 c 128,-1,198
 144 535 144 535 144 565 c 0,199,200
 144 582 144 582 143 593 c 0,201,202
 140 676 140 676 122 709 c 0,203,204
 111 727 111 727 77 727 c 0,205,206
 58 727 58 727 52 731 c 128,-1,207
 46 735 46 735 46 746 c 2,0,-1
EndSplineSet
Validated: 1
EndChar

StartChar: M
Encoding: 77 77 16
Width: 543
GlyphClass: 1
Flags: W
LayerCount: 2
Fore
SplineSet
316 702 m 0,0,1
 298 717 298 717 273 717 c 0,2,3
 256 717 256 717 240 713 c 0,4,5
 212 706 212 706 198 699 c 0,6,7
 181 690 181 690 158 672.5 c 128,-1,8
 135 655 135 655 135 651 c 0,9,10
 135 646 135 646 126 635 c 0,11,12
 117 625 117 625 105.5 598 c 128,-1,13
 94 571 94 571 92 555 c 0,14,15
 88 536 88 536 84 532 c 0,16,17
 70 514 70 514 70 408 c 0,18,19
 70 364 70 364 74 336 c 0,20,21
 86 253 86 253 90 244 c 0,22,23
 100 221 100 221 101 218 c 0,24,25
 108 200 108 200 128.5 176 c 128,-1,26
 149 152 149 152 160 149 c 0,27,28
 170 147 170 147 175 140 c 0,29,30
 183 132 183 132 210 121 c 0,31,32
 238 109 238 109 278 107 c 0,33,34
 288 106 288 106 302 106 c 0,35,36
 320 106 320 106 332 112 c 0,37,38
 343 118 343 118 364.5 140.5 c 128,-1,39
 386 163 386 163 398 182 c 0,40,41
 430 232 430 232 430 246 c 0,42,43
 430 250 430 250 440 272 c 0,44,45
 470 335 470 335 470 413 c 2,46,-1
 470 428 l 2,47,48
 468 466 468 466 464 478 c 128,-1,49
 460 490 460 490 449 495 c 2,50,-1
 436 501 l 1,51,-1
 446 504 l 2,52,53
 457 506 457 506 455 516 c 0,54,55
 451 541 451 541 450 553 c 0,56,57
 445 604 445 604 410 648 c 0,58,59
 399 663 399 663 373 672 c 0,60,61
 336 685 336 685 316 702 c 0,0,1
224 747 m 0,62,63
 238 752 238 752 249 752 c 0,64,65
 256 752 256 752 260 751 c 0,66,67
 298 741 298 741 312 726 c 0,68,69
 319 717 319 717 328 717 c 0,70,71
 338 717 338 717 362 710 c 0,72,73
 407 696 407 696 438.5 654.5 c 128,-1,74
 470 613 470 613 477 556 c 0,75,76
 478 551 478 551 484.5 525.5 c 128,-1,77
 491 500 491 500 492 485 c 0,78,79
 498 434 498 434 498 409 c 0,80,81
 498 395 498 395 497 390 c 0,82,83
 496 384 496 384 493 368.5 c 128,-1,84
 490 353 490 353 490 351 c 0,85,86
 487 330 487 330 464 264.5 c 128,-1,87
 441 199 441 199 433 187 c 0,88,89
 391 128 391 128 361 103 c 2,90,-1
 330 77 l 1,91,-1
 277 76 l 1,92,-1
 252 76 l 2,93,94
 224 76 224 76 221 81 c 0,95,96
 217 87 217 87 209 87 c 0,97,98
 199 87 199 87 187 97 c 0,99,100
 177 105 177 105 158 116 c 0,101,102
 128 131 128 131 91 180 c 0,103,104
 74 203 74 203 53 306 c 0,105,106
 47 339 47 339 44 391 c 0,107,108
 42 433 42 433 42 446 c 0,109,110
 42 498 42 498 59 539 c 0,111,112
 65 552 65 552 72.5 579.5 c 128,-1,113
 80 607 80 607 88 628 c 128,-1,114
 96 649 96 649 107 660 c 0,115,116
 111 665 111 665 121 676.5 c 128,-1,117
 131 688 131 688 136.5 694 c 128,-1,118
 142 700 142 700 151.5 708 c 128,-1,119
 161 716 161 716 169 720 c 0,120,121
 182 725 182 725 192 733 c 0,122,123
 205 740 205 740 224 747 c 0,62,63
EndSplineSet
Validated: 1
EndChar

StartChar: N
Encoding: 78 78 17
Width: 806
GlyphClass: 1
Flags: W
LayerCount: 2
Fore
SplineSet
83 755 m 0,0,1
 111 757 111 757 119 757 c 2,2,-1
 121 757 l 2,3,4
 129 757 129 757 142 737 c 0,5,6
 181 676 181 676 181 602 c 0,7,8
 181 582 181 582 180 571 c 0,9,10
 178 541 178 541 178 538 c 0,11,12
 178 525 178 525 181 525 c 128,-1,13
 184 525 184 525 196 562 c 0,14,15
 222 645 222 645 259 684 c 128,-1,16
 296 723 296 723 357 731 c 0,17,18
 375 734 375 734 387 734 c 0,19,20
 413 734 413 734 424 720 c 0,21,22
 433 706 433 706 450 668 c 128,-1,23
 467 630 467 630 471 612 c 0,24,25
 475 597 475 597 479 556 c 0,26,27
 481 526 481 526 484 526 c 0,28,29
 485 526 485 526 503 575 c 0,30,31
 535 672 535 672 573 708 c 0,32,33
 592 727 592 727 598 727 c 0,34,35
 602 727 602 727 618 735 c 0,36,37
 632 742 632 742 649 742 c 128,-1,38
 666 742 666 742 681 735 c 0,39,40
 701 726 701 726 717 700 c 0,41,42
 732 680 732 680 741 656 c 0,43,44
 746 642 746 642 752.5 605 c 128,-1,45
 759 568 759 568 759 550 c 2,46,-1
 759 545 l 2,47,48
 759 531 759 531 761 528 c 0,49,50
 764 524 764 524 760 518 c 0,51,52
 757 513 757 513 755.5 445.5 c 128,-1,53
 754 378 754 378 751 296.5 c 128,-1,54
 748 215 748 215 741 185 c 0,55,56
 739 177 739 177 735 160.5 c 128,-1,57
 731 144 731 144 729 135.5 c 128,-1,58
 727 127 727 127 723 116 c 128,-1,59
 719 105 719 105 713.5 98.5 c 128,-1,60
 708 92 708 92 701 88 c 0,61,62
 692 83 692 83 680 83 c 0,63,64
 665 83 665 83 650 91 c 0,65,66
 638 97 638 97 633 97 c 128,-1,67
 628 97 628 97 628 101 c 0,68,69
 628 106 628 106 634 104 c 0,70,71
 641 102 641 102 645 111 c 128,-1,72
 649 120 649 120 658 118 c 0,73,74
 680 113 680 113 682 113 c 0,75,76
 689 113 689 113 693 120 c 0,77,78
 705 139 705 139 713.5 196.5 c 128,-1,79
 722 254 722 254 722 316 c 0,80,81
 722 358 722 358 726 414 c 0,82,83
 732 505 732 505 732 559 c 0,84,85
 732 583 732 583 730 593 c 0,86,87
 729 596 729 596 726 608 c 128,-1,88
 723 620 723 620 722 625 c 0,89,90
 719 642 719 642 706 670 c 0,91,92
 696 692 696 692 675 707 c 0,93,94
 658 719 658 719 650 719 c 0,95,96
 646 719 646 719 629 714 c 0,97,98
 603 705 603 705 586.5 686.5 c 128,-1,99
 570 668 570 668 545 619 c 0,100,101
 520 569 520 569 510.5 537 c 128,-1,102
 501 505 501 505 492 442 c 0,103,104
 489 424 489 424 484 395.5 c 128,-1,105
 479 367 479 367 477.5 356 c 128,-1,106
 476 345 476 345 474 321.5 c 128,-1,107
 472 298 472 298 471 265 c 0,108,109
 468 188 468 188 455.5 149.5 c 128,-1,110
 443 111 443 111 414 94 c 0,111,112
 398 86 398 86 392 86 c 128,-1,113
 386 86 386 86 373 89 c 0,114,115
 339 96 339 96 331 96 c 1,116,-1
 330 97 l 2,117,118
 330 101 330 101 344.5 114 c 128,-1,119
 359 127 359 127 366 129 c 0,120,121
 375 131 375 131 384 121 c 0,122,123
 390 113 390 113 393 112 c 128,-1,124
 396 111 396 111 403 115 c 0,125,126
 428 129 428 129 439 172 c 0,127,128
 445 196 445 196 448 303 c 0,129,130
 452 430 452 430 454 447 c 0,131,132
 456 475 456 475 456 493 c 0,133,134
 456 506 456 506 454 536 c 0,135,136
 449 593 449 593 446.5 609.5 c 128,-1,137
 444 626 444 626 435 644 c 0,138,139
 424 666 424 666 424 669 c 0,140,141
 424 674 424 674 411.5 689 c 128,-1,142
 399 704 399 704 392 707 c 0,143,144
 386 709 386 709 380 709 c 0,145,146
 350 709 350 709 310 689 c 0,147,148
 276 672 276 672 256 641.5 c 128,-1,149
 236 611 236 611 218 549 c 0,150,151
 190 454 190 454 182 355 c 0,152,153
 180 325 180 325 174 291 c 128,-1,154
 168 257 168 257 165 223 c 0,155,156
 163 171 163 171 153 117 c 0,157,158
 152 106 152 106 151 102 c 128,-1,159
 150 98 150 98 146 95 c 128,-1,160
 142 92 142 92 133 87 c 0,161,162
 115 78 115 78 97 78 c 0,163,164
 71 78 71 78 50 96 c 0,165,166
 45 101 45 101 45 106 c 0,167,168
 45 114 45 114 53 124 c 0,169,170
 56 128 56 128 61 129.5 c 128,-1,171
 66 131 66 131 69.5 130 c 128,-1,172
 73 129 73 129 73 125 c 0,173,174
 73 120 73 120 85.5 110.5 c 128,-1,175
 98 101 98 101 104 101 c 0,176,177
 114 101 114 101 127 136 c 0,178,179
 137 164 137 164 138.5 182 c 128,-1,180
 140 200 140 200 142 279 c 0,181,182
 144 374 144 374 150 421 c 0,183,184
 157 482 157 482 157 572 c 0,185,186
 157 626 157 626 153 648 c 0,187,188
 145 686 145 686 125 715 c 2,189,-1
 113 732 l 1,190,-1
 88 729 l 2,191,192
 80 728 80 728 70 728 c 0,193,194
 62 728 62 728 56 735 c 0,195,196
 52 741 52 741 52 744 c 0,197,198
 52 754 52 754 83 755 c 0,0,1
446 97 m 0,199,200
 446 99 446 99 447 99 c 0,201,202
 449 98 449 98 449 94 c 0,203,204
 446 92 446 92 446 97 c 0,199,200
EndSplineSet
Validated: 1
EndChar

StartChar: O
Encoding: 79 79 18
Width: 871
GlyphClass: 1
Flags: W
LayerCount: 2
Fore
SplineSet
440 717 m 0,0,1
 387 722 387 722 384 722 c 2,2,-1
 380 722 l 2,3,4
 350 722 350 722 322 698 c 0,5,6
 312 688 312 688 297.5 664 c 128,-1,7
 283 640 283 640 276 622 c 0,8,9
 254 561 254 561 254 490 c 2,10,-1
 254 472 l 2,11,12
 256 405 256 405 259 402 c 0,13,14
 261 400 261 400 276.5 358 c 128,-1,15
 292 316 292 316 295 313 c 0,16,17
 296 312 296 312 313 280 c 0,18,19
 335 240 335 240 362 210 c 0,20,21
 392 177 392 177 398 177 c 0,22,23
 403 177 403 177 432.5 199 c 128,-1,24
 462 221 462 221 477 236 c 0,25,26
 518 276 518 276 546 348 c 0,27,28
 573 421 573 421 574 460 c 0,29,30
 574 487 574 487 577 490 c 0,31,32
 579 492 579 492 579 514 c 0,33,34
 579 559 579 559 574 574 c 0,35,36
 569 590 569 590 567 603 c 0,37,38
 560 639 560 639 536 669 c 0,39,40
 533 672 533 672 527.5 680 c 128,-1,41
 522 688 522 688 520 690 c 0,42,43
 505 711 505 711 440 717 c 0,0,1
512 724 m 0,44,45
 519 724 519 724 547 697 c 128,-1,46
 575 670 575 670 575 662 c 0,47,48
 575 659 575 659 581 647 c 0,49,50
 586 636 586 636 599 577 c 0,51,52
 605 554 605 554 605 517 c 0,53,54
 605 484 605 484 608 482 c 0,55,56
 613 480 613 480 608 477 c 0,57,58
 606 477 606 477 602 460.5 c 128,-1,59
 598 444 598 444 594.5 426 c 128,-1,60
 591 408 591 408 590 407 c 0,61,62
 587 400 587 400 583 382 c 0,63,64
 568 317 568 317 525 255 c 0,65,66
 511 234 511 234 486 210 c 128,-1,67
 461 186 461 186 444 176 c 0,68,69
 425 165 425 165 425 162 c 0,70,71
 425 155 425 155 480.5 134.5 c 128,-1,72
 536 114 536 114 572 107 c 0,73,74
 629 97 629 97 729 91 c 0,75,76
 826 85 826 85 826 80 c 0,77,78
 826 76 826 76 804 72 c 128,-1,79
 782 68 782 68 758 67 c 2,80,-1
 741 67 l 2,81,82
 720 67 720 67 574 80 c 0,83,84
 529 84 529 84 516 91 c 0,85,86
 473 111 473 111 447 125 c 0,87,88
 414 144 414 144 390 144 c 0,89,90
 379 144 379 144 365 136 c 128,-1,91
 351 128 351 128 328 122 c 0,92,93
 303 115 303 115 246 104 c 0,94,95
 239 103 239 103 159 77 c 0,96,97
 144 72 144 72 117 72 c 2,98,-1
 103 72 l 2,99,100
 84 72 84 72 79 77 c 0,101,102
 70 84 70 84 59 84 c 0,103,104
 46 84 46 84 46 86 c 0,105,106
 46 90 46 90 67 92 c 128,-1,107
 88 94 88 94 110 99 c 0,108,109
 185 119 185 119 241 127 c 0,110,111
 305 137 305 137 331 148 c 0,112,113
 341 152 341 152 348 152 c 0,114,115
 356 152 356 152 363 157 c 0,116,117
 368 160 368 160 367 163.5 c 128,-1,118
 366 167 366 167 357 176 c 0,119,120
 318 217 318 217 318 226 c 0,121,122
 318 227 318 227 308 241 c 0,123,124
 299 253 299 253 277.5 296.5 c 128,-1,125
 256 340 256 340 249 360 c 0,126,127
 230 417 230 417 230 494 c 0,128,129
 230 526 230 526 234 546 c 0,130,131
 243 600 243 600 253 622 c 0,132,133
 289 704 289 704 314 722 c 0,134,135
 330 734 330 734 366 740 c 1,136,-1
 379 740 l 1,137,-1
 433 740 l 2,138,139
 489 739 489 739 499 731 c 0,140,141
 508 724 508 724 512 724 c 0,44,45
EndSplineSet
Validated: 1
EndChar

StartChar: P
Encoding: 80 80 19
Width: 638
GlyphClass: 1
Flags: W
LayerCount: 2
Fore
SplineSet
72 738 m 0,0,1
 74 740 74 740 114 740 c 0,2,3
 153 740 153 740 173 730 c 0,4,5
 193 719 193 719 214 694 c 0,6,7
 228 676 228 676 238 540 c 0,8,9
 241 489 241 489 248 489 c 1,10,-1
 252 493 l 2,11,12
 256 499 256 499 256 506 c 0,13,14
 256 524 256 524 277 569.5 c 128,-1,15
 298 615 298 615 318 642 c 0,16,17
 347 682 347 682 385 696 c 0,18,19
 396 701 396 701 428 701 c 0,20,21
 458 701 458 701 477 697 c 0,22,23
 532 685 532 685 565 585 c 0,24,25
 569 572 569 572 573.5 563.5 c 128,-1,26
 578 555 578 555 580 548.5 c 128,-1,27
 582 542 582 542 583 525 c 0,28,29
 585 500 585 500 591 496 c 128,-1,30
 597 492 597 492 592 487 c 0,31,32
 587 480 587 480 584 379 c 0,33,34
 582 300 582 300 579 275 c 128,-1,35
 576 250 576 250 565 211 c 0,36,37
 550 159 550 159 501 107 c 0,38,39
 489 93 489 93 474.5 88 c 128,-1,40
 460 83 460 83 426 80 c 0,41,42
 419 79 419 79 407 79 c 0,43,44
 390 79 390 79 360 85 c 0,45,46
 322 92 322 92 322 94 c 0,47,48
 313 112 313 112 299 119 c 0,49,50
 272 132 272 132 264 215 c 0,51,52
 263 220 263 220 263 223 c 128,-1,53
 263 226 263 226 263 228 c 128,-1,54
 263 230 263 230 264.5 230.5 c 128,-1,55
 266 231 266 231 267 231.5 c 128,-1,56
 268 232 268 232 271 232 c 0,57,58
 286 232 286 232 296.5 214.5 c 128,-1,59
 307 197 307 197 310 167 c 0,60,61
 314 139 314 139 320 133 c 0,62,63
 346 113 346 113 391 105 c 0,64,65
 419 101 419 101 425 101 c 0,66,67
 453 101 453 101 481 128 c 0,68,69
 521 166 521 166 538 218 c 0,70,71
 551 258 551 258 554.5 291 c 128,-1,72
 558 324 558 324 558 416 c 0,73,74
 558 530 558 530 552 542 c 128,-1,75
 546 554 546 554 546 561 c 128,-1,76
 546 568 546 568 541.5 579.5 c 128,-1,77
 537 591 537 591 529 607 c 128,-1,78
 521 623 521 623 520 624 c 0,79,80
 513 639 513 639 500 652.5 c 128,-1,81
 487 666 487 666 477 669 c 0,82,83
 466 672 466 672 433 674 c 2,84,-1
 415 674 l 2,85,86
 397 674 397 674 382 666 c 0,87,88
 347 649 347 649 320 601 c 0,89,90
 303 569 303 569 283 516 c 0,91,92
 274 492 274 492 267 444 c 128,-1,93
 260 396 260 396 260 358 c 0,94,95
 260 327 260 327 253 314 c 0,96,97
 247 305 247 305 239 265 c 0,98,99
 231 228 231 228 216 195 c 0,100,101
 199 156 199 156 197 151 c 2,102,-1
 188 133 l 2,103,104
 177 118 177 118 173 112 c 0,105,106
 159 89 159 89 103 73 c 0,107,108
 87 69 87 69 83 69 c 0,109,110
 73 69 73 69 58 83 c 0,111,112
 45 95 45 95 45 107 c 0,113,114
 45 121 45 121 55 133.5 c 128,-1,115
 65 146 65 146 76 146 c 0,116,117
 91 146 91 146 80 124 c 0,118,119
 75 114 75 114 75 109 c 0,120,121
 75 96 75 96 91 96 c 0,122,123
 119 96 119 96 151 128 c 0,124,125
 169 145 169 145 191 195 c 0,126,127
 211 242 211 242 218 288 c 0,128,129
 227 339 227 339 227 412 c 0,130,131
 227 476 227 476 219 484 c 0,132,133
 214 489 214 489 214 525 c 0,134,135
 212 617 212 617 204 652 c 0,136,137
 198 678 198 678 169 701 c 0,138,139
 157 711 157 711 151 713 c 128,-1,140
 145 715 145 715 127 715 c 0,141,142
 102 715 102 715 99 722 c 0,143,144
 95 729 95 729 84 729 c 0,145,146
 72 729 72 729 71 735 c 0,147,148
 71 737 71 737 72 738 c 0,0,1
471 493 m 0,149,150
 496 498 496 498 496 493 c 0,151,152
 496 490 496 490 477 490 c 0,153,154
 473 490 473 490 468 490 c 2,155,-1
 466 492 l 1,156,157
 469 493 469 493 471 493 c 0,149,150
523 493 m 0,158,159
 525 497 525 497 536 497 c 0,160,161
 544 497 544 497 544 495 c 0,162,163
 544 494 544 494 537 491.5 c 128,-1,164
 530 489 530 489 526 489 c 128,-1,165
 522 489 522 489 522 491 c 0,166,167
 522 492 522 492 523 493 c 0,158,159
EndSplineSet
Validated: 1
EndChar

StartChar: Q
Encoding: 81 81 20
Width: 590
GlyphClass: 1
Flags: W
LayerCount: 2
Fore
SplineSet
374 401 m 2,0,-1
 374 429 l 1,1,-1
 363 429 l 2,2,3
 288 426 288 426 222 398 c 0,4,5
 203 390 203 390 185 390 c 0,6,7
 166 390 166 390 147 373.5 c 128,-1,8
 128 357 128 357 124 339 c 0,9,10
 123 331 123 331 114 329 c 0,11,12
 89 326 89 326 79 262 c 0,13,14
 78 259 78 259 78 253 c 0,15,16
 78 228 78 228 92 212 c 0,17,18
 104 195 104 195 104 184 c 0,19,20
 104 181 104 181 102 177 c 0,21,22
 98 173 98 173 112 155 c 0,23,24
 126 138 126 138 156 124 c 0,25,26
 188 109 188 109 194 103 c 0,27,28
 206 93 206 93 235 93 c 0,29,30
 245 93 245 93 250 94 c 0,31,32
 268 97 268 97 293.5 121 c 128,-1,33
 319 145 319 145 332 172 c 0,34,35
 345 200 345 200 345 203 c 0,36,37
 345 209 345 209 352 228 c 0,38,39
 356 239 356 239 362 294 c 128,-1,40
 368 349 368 349 371 359 c 0,41,42
 374 371 374 371 374 401 c 2,0,-1
353 758 m 0,43,44
 392 761 392 761 419 761 c 128,-1,45
 446 761 446 761 447 758 c 0,46,47
 449 754 449 754 447 745 c 0,48,49
 446 738 446 738 443 737 c 128,-1,50
 440 736 440 736 432 738 c 0,51,52
 427 739 427 739 419 739 c 0,53,54
 392 739 392 739 392 708 c 0,55,56
 392 700 392 700 393 695 c 0,57,58
 396 674 396 674 390 668 c 0,59,60
 386 664 386 664 386 653 c 0,61,62
 386 643 386 643 392 568 c 0,63,64
 401 463 401 463 407 460 c 0,65,66
 410 458 410 458 449 458 c 2,67,-1
 516 458 l 2,68,69
 546 457 546 457 546 451 c 0,70,71
 546 440 546 440 533.5 436.5 c 128,-1,72
 521 433 521 433 473 431 c 0,73,74
 414 429 414 429 406 425 c 0,75,76
 400 422 400 422 400 397 c 0,77,78
 400 370 400 370 388 268 c 0,79,80
 384 234 384 234 380 223 c 0,81,82
 374 207 374 207 374 201 c 0,83,84
 374 189 374 189 358 160.5 c 128,-1,85
 342 132 342 132 328 119 c 0,86,87
 309 102 309 102 311 95 c 0,88,89
 312 92 312 92 310 90 c 128,-1,90
 308 88 308 88 302 87 c 0,91,92
 293 85 293 85 289 80 c 0,93,94
 281 67 281 67 242 67 c 0,95,96
 208 67 208 67 186 78 c 0,97,98
 172 85 172 85 162 85 c 0,99,100
 148 85 148 85 144 97 c 0,101,102
 141 104 141 104 94 133 c 0,103,104
 84 139 84 139 69.5 165 c 128,-1,105
 55 191 55 191 50 210 c 0,106,107
 45 228 45 228 45 256 c 0,108,109
 45 282 45 282 56 304 c 0,110,111
 63 317 63 317 66 321.5 c 128,-1,112
 69 326 69 326 74.5 332.5 c 128,-1,113
 80 339 80 339 86 348 c 0,114,115
 96 364 96 364 113 380.5 c 128,-1,116
 130 397 130 397 135 397 c 0,117,118
 141 397 141 397 147 403 c 0,119,120
 161 416 161 416 231.5 433.5 c 128,-1,121
 302 451 302 451 358 455 c 2,122,-1
 372 456 l 1,123,-1
 372 499 l 2,124,125
 372 543 372 543 365 576 c 0,126,127
 360 609 360 609 360 654 c 0,128,129
 360 689 360 689 361 711 c 2,130,-1
 362 727 l 1,131,-1
 345 730 l 2,132,133
 324 734 324 734 318.5 736.5 c 128,-1,134
 313 739 313 739 313 744 c 0,135,136
 313 751 313 751 320 753.5 c 128,-1,137
 327 756 327 756 353 758 c 0,43,44
EndSplineSet
Validated: 1
EndChar

StartChar: R
Encoding: 82 82 21
Width: 419
GlyphClass: 1
Flags: W
LayerCount: 2
Fore
SplineSet
309 738 m 2,0,-1
 309 743 l 2,1,2
 309 749 309 749 312 749 c 0,3,4
 316 749 316 749 323.5 742 c 128,-1,5
 331 735 331 735 332 735 c 0,6,7
 336 734 336 734 336 712 c 0,8,9
 336 694 336 694 335 680 c 0,10,11
 334 657 334 657 328 653 c 0,12,13
 326 652 326 652 324 652 c 0,14,15
 318 652 318 652 301 678 c 0,16,17
 275 718 275 718 234 723 c 1,18,-1
 229 723 l 2,19,20
 214 723 214 723 191.5 717.5 c 128,-1,21
 169 712 169 712 163 707 c 0,22,23
 159 703 159 703 147 697.5 c 128,-1,24
 135 692 135 692 130 691 c 0,25,26
 129 691 129 691 115 681 c 0,27,28
 105 673 105 673 97 653 c 128,-1,29
 89 633 89 633 89 616 c 0,30,31
 89 593 89 593 113.5 558.5 c 128,-1,32
 138 524 138 524 169 504 c 0,33,34
 185 494 185 494 255 492 c 0,35,36
 264 492 264 492 266 490.5 c 128,-1,37
 268 489 268 489 268 481 c 0,38,39
 268 463 268 463 236 463 c 0,40,41
 222 463 222 463 213 464 c 128,-1,42
 204 465 204 465 190 465 c 0,43,44
 168 465 168 465 141 447 c 0,45,46
 126 437 126 437 110.5 421 c 128,-1,47
 95 405 95 405 95 400 c 0,48,49
 95 394 95 394 90 389 c 0,50,51
 81 381 81 381 72.5 352 c 128,-1,52
 64 323 64 323 64 304 c 2,53,-1
 64 298 l 2,54,55
 66 281 66 281 68 251 c 2,56,-1
 70 217 l 1,57,-1
 89 192 l 2,58,59
 112 161 112 161 123 152 c 128,-1,60
 134 143 134 143 163 128 c 2,61,-1
 185 116 l 1,62,-1
 286 116 l 1,63,-1
 301 127 l 2,64,65
 321 142 321 142 340 161 c 0,66,67
 362 185 362 185 369 185 c 0,68,69
 375 185 375 185 375 182.5 c 128,-1,70
 375 180 375 180 369 170 c 0,71,72
 365 165 365 165 357.5 151 c 128,-1,73
 350 137 350 137 342 130 c 0,74,75
 332 120 332 120 332 116 c 128,-1,76
 332 112 332 112 306 101 c 0,77,78
 286 92 286 92 276.5 90.5 c 128,-1,79
 267 89 267 89 234 89 c 0,80,81
 202 89 202 89 191 91 c 128,-1,82
 180 93 180 93 158 101 c 0,83,84
 112 118 112 118 83 158 c 0,85,86
 82 160 82 160 75.5 168.5 c 128,-1,87
 69 177 69 177 68 178.5 c 128,-1,88
 67 180 67 180 62.5 187 c 128,-1,89
 58 194 58 194 57.5 196.5 c 128,-1,90
 57 199 57 199 53.5 206 c 128,-1,91
 50 213 50 213 50 217.5 c 128,-1,92
 50 222 50 222 48 230 c 128,-1,93
 46 238 46 238 45.5 246 c 128,-1,94
 45 254 45 254 44.5 264.5 c 128,-1,95
 44 275 44 275 44 288 c 2,96,-1
 43 345 l 1,97,-1
 58 379 l 2,98,99
 68 401 68 401 75 411.5 c 128,-1,100
 82 422 82 422 101 441 c 0,101,102
 129 469 129 469 141 474 c 0,103,104
 147 477 147 477 150 480.5 c 128,-1,105
 153 484 153 484 152 487 c 128,-1,106
 151 490 151 490 146 491 c 0,107,108
 137 494 137 494 113.5 521.5 c 128,-1,109
 90 549 90 549 80 569 c 0,110,111
 65 599 65 599 65 623 c 0,112,113
 65 641 65 641 72 658 c 0,114,115
 79 676 79 676 88.5 686 c 128,-1,116
 98 696 98 696 129 715 c 0,117,118
 178 746 178 746 226 746 c 0,119,120
 266 746 266 746 287 728 c 0,121,122
 298 719 298 719 301 719 c 0,123,124
 306 719 306 719 308 725 c 128,-1,125
 310 731 310 731 309 738 c 2,0,-1
342 112 m 0,126,127
 342 114 342 114 344 114 c 0,128,129
 345 114 345 114 345 112 c 0,130,131
 345 111 345 111 344 111 c 0,132,133
 342 111 342 111 342 112 c 0,126,127
EndSplineSet
Validated: 1
EndChar

StartChar: S
Encoding: 83 83 22
Width: 546
GlyphClass: 1
Flags: W
LayerCount: 2
Fore
SplineSet
117 615 m 0,0,1
 117 616 117 616 128.5 636 c 128,-1,2
 140 656 140 656 140 658 c 0,3,4
 140 662 140 662 160.5 687 c 128,-1,5
 181 712 181 712 192 722 c 0,6,7
 207 736 207 736 216 736 c 0,8,9
 221 736 221 736 221 731 c 0,10,11
 221 722 221 722 205 706 c 0,12,13
 188 689 188 689 188 686 c 0,14,15
 188 685 188 685 174 667 c 0,16,17
 164 656 164 656 146 625 c 0,18,19
 138 614 138 614 126.5 584 c 128,-1,20
 115 554 115 554 113 539 c 0,21,22
 113 538 113 538 112.5 533 c 128,-1,23
 112 528 112 528 112 525 c 0,24,25
 112 462 112 462 123 440 c 0,26,27
 126 434 126 434 140 422.5 c 128,-1,28
 154 411 154 411 163 406 c 0,29,30
 169 403 169 403 178 403 c 0,31,32
 186 403 186 403 209 408 c 0,33,34
 254 420 254 420 277 451 c 0,35,36
 290 470 290 470 292 470 c 0,37,38
 295 470 295 470 323 493 c 0,39,40
 357 521 357 521 371 527 c 0,41,42
 391 537 391 537 422 537 c 0,43,44
 455 537 455 537 459 532 c 0,45,46
 461 529 461 529 469.5 522 c 128,-1,47
 478 515 478 515 479 506 c 0,48,49
 482 496 482 496 494 484 c 0,50,51
 505 474 505 474 499 468 c 128,-1,52
 493 462 493 462 493 433 c 0,53,54
 493 416 493 416 487.5 390 c 128,-1,55
 482 364 482 364 482 350 c 0,56,57
 482 332 482 332 477 324 c 128,-1,58
 472 316 472 316 472 307 c 128,-1,59
 472 298 472 298 469 296 c 0,60,61
 465 294 465 294 451 269 c 0,62,63
 430 231 430 231 400 198 c 0,64,65
 395 193 395 193 389 186 c 128,-1,66
 383 179 383 179 379 174.5 c 128,-1,67
 375 170 375 170 374 169 c 0,68,69
 369 161 369 161 305 118 c 2,70,-1
 296 112 l 2,71,72
 288 107 288 107 284 103 c 0,73,74
 274 95 274 95 267 93.5 c 128,-1,75
 260 92 260 92 227 91 c 2,76,-1
 205 91 l 2,77,78
 130 91 130 91 116 104 c 0,79,80
 45 164 45 164 45 226 c 2,81,-1
 45 233 l 2,82,83
 47 244 47 244 53 244 c 0,84,85
 58 244 58 244 71 236 c 0,86,87
 82 228 82 228 84 223 c 128,-1,88
 86 218 86 218 86 200 c 128,-1,89
 86 182 86 182 89.5 173.5 c 128,-1,90
 93 165 93 165 106 149 c 0,91,92
 122 130 122 130 168 117 c 0,93,94
 183 113 183 113 196 113 c 0,95,96
 198 113 198 113 224 115 c 0,97,98
 247 117 247 117 253.5 118.5 c 128,-1,99
 260 120 260 120 270.5 127 c 128,-1,100
 281 134 281 134 294 140 c 0,101,102
 352 171 352 171 398 232 c 0,103,104
 416 256 416 256 435.5 296 c 128,-1,105
 455 336 455 336 455 349 c 0,106,107
 455 360 455 360 462 385 c 0,108,109
 468 406 468 406 468 431 c 0,110,111
 468 478 468 478 450 501 c 0,112,113
 441 513 441 513 422 515 c 2,114,-1
 418 515 l 2,115,116
 385 515 385 515 352 486 c 0,117,118
 337 473 337 473 334 473 c 0,119,120
 332 473 332 473 301 440 c 0,121,122
 273 409 273 409 260 400 c 0,123,124
 251 394 251 394 224.5 386 c 128,-1,125
 198 378 198 378 186 378 c 0,126,127
 160 378 160 378 129 400 c 0,128,129
 113 412 113 412 106.5 422 c 128,-1,130
 100 432 100 432 93 454 c 0,131,132
 86 474 86 474 86 502 c 0,133,134
 86 553 86 553 109 597 c 0,135,136
 117 613 117 613 117 615 c 0,0,1
EndSplineSet
Validated: 1
EndChar

StartChar: T
Encoding: 84 84 23
Width: 543
GlyphClass: 1
Flags: W
LayerCount: 2
Fore
SplineSet
227 759 m 0,0,1
 240 763 240 763 269 763 c 0,2,3
 321 763 321 763 351 752 c 0,4,5
 380 742 380 742 402 717 c 0,6,7
 431 682 431 682 442 636 c 0,8,9
 445 617 445 617 449 610 c 0,10,11
 451 606 451 606 456 566.5 c 128,-1,12
 461 527 461 527 462 495 c 2,13,-1
 462 482 l 1,14,-1
 483 478 l 2,15,16
 497 475 497 475 498 474 c 1,17,-1
 489 473 l 2,18,19
 476 472 476 472 471 469.5 c 128,-1,20
 466 467 466 467 466 458 c 0,21,22
 466 455 466 455 468 441 c 0,23,24
 472 420 472 420 472 390 c 0,25,26
 472 349 472 349 461 302 c 0,27,28
 450 260 450 260 445 247 c 0,29,30
 440 237 440 237 440 230 c 0,31,32
 440 224 440 224 424 193.5 c 128,-1,33
 408 163 408 163 397 147 c 0,34,35
 390 138 390 138 388 128 c 0,36,37
 387 126 387 126 387 123 c 0,38,39
 387 117 387 117 418 112 c 0,40,41
 446 107 446 107 446 97 c 0,42,43
 446 95 446 95 444 93 c 0,44,45
 441 90 441 90 415 88 c 128,-1,46
 389 86 389 86 357.5 84.5 c 128,-1,47
 326 83 326 83 325 83 c 0,48,49
 306 81 306 81 300 87 c 0,50,51
 289 98 289 98 312 103 c 0,52,53
 342 110 342 110 351 129 c 0,54,55
 357 139 357 139 363 142 c 128,-1,56
 369 145 369 145 369 149 c 0,57,58
 369 150 369 150 381 170 c 0,59,60
 413 221 413 221 413 235 c 0,61,62
 413 241 413 241 418 249 c 0,63,64
 427 264 427 264 435.5 312.5 c 128,-1,65
 444 361 444 361 444 389 c 0,66,67
 444 398 444 398 442 404 c 0,68,69
 440 407 440 407 440 428 c 0,70,71
 442 445 442 445 437 450 c 0,72,73
 434 455 434 455 432 507 c 0,74,75
 430 583 430 583 415 629 c 128,-1,76
 400 675 400 675 368 708 c 0,77,78
 352 724 352 724 346 727.5 c 128,-1,79
 340 731 340 731 324 735 c 0,80,81
 302 740 302 740 269 740 c 0,82,83
 238 740 238 740 220 732 c 0,84,85
 209 727 209 727 204 722.5 c 128,-1,86
 199 718 199 718 194.5 711 c 128,-1,87
 190 704 190 704 182 698 c 0,88,89
 173 690 173 690 169 684 c 128,-1,90
 165 678 165 678 161 669.5 c 128,-1,91
 157 661 157 661 151 653 c 0,92,93
 146 646 146 646 142.5 638.5 c 128,-1,94
 139 631 139 631 138 625.5 c 128,-1,95
 137 620 137 620 135 609.5 c 128,-1,96
 133 599 133 599 131 591 c 0,97,98
 124 558 124 558 124 518 c 0,99,100
 124 500 124 500 127 498 c 0,101,102
 131 496 131 496 151 494 c 0,103,104
 157 493 157 493 160 493 c 128,-1,105
 163 493 163 493 165.5 491.5 c 128,-1,106
 168 490 168 490 169.5 490 c 128,-1,107
 171 490 171 490 172 487.5 c 128,-1,108
 173 485 173 485 173 484.5 c 128,-1,109
 173 484 173 484 173.5 480 c 128,-1,110
 174 476 174 476 174 474 c 2,111,-1
 129 471 l 1,112,-1
 107 471 l 2,113,114
 82 471 82 471 74 473 c 0,115,116
 67 476 67 476 55 476 c 0,117,118
 45 476 45 476 45 478 c 0,119,120
 45 482 45 482 54 487.5 c 128,-1,121
 63 493 63 493 70 493 c 0,122,123
 78 493 78 493 84 496 c 0,124,125
 88 498 88 498 92 542 c 0,126,127
 95 579 95 579 100 596.5 c 128,-1,128
 105 614 105 614 123 650 c 0,129,130
 140 684 140 684 165 713 c 0,131,132
 200 752 200 752 227 759 c 0,0,1
471 93 m 128,-1,134
 471 95 471 95 472 95 c 0,135,136
 474 95 474 95 474 93 c 128,-1,137
 474 91 474 91 472 91 c 0,138,133
 471 91 471 91 471 93 c 128,-1,134
EndSplineSet
Validated: 1
EndChar

StartChar: U
Encoding: 85 85 24
Width: 647
GlyphClass: 1
Flags: W
LayerCount: 2
Fore
SplineSet
408 728 m 0,0,1
 423 738 423 738 467 738 c 0,2,3
 491 738 491 738 502 737 c 0,4,5
 526 736 526 736 534 734 c 128,-1,6
 542 732 542 732 556 722 c 0,7,8
 576 708 576 708 583.5 689.5 c 128,-1,9
 591 671 591 671 600 612 c 0,10,11
 605 583 605 583 605 421 c 2,12,-1
 605 268 l 1,13,-1
 591 212 l 2,14,15
 577 157 577 157 571 141.5 c 128,-1,16
 565 126 565 126 551 114 c 0,17,18
 524 87 524 87 488 80 c 0,19,20
 476 77 476 77 470 77 c 0,21,22
 462 77 462 77 448 84 c 0,23,24
 411 100 411 100 411 126 c 0,25,26
 411 135 411 135 413 139 c 0,27,28
 416 148 416 148 422 148 c 0,29,30
 430 148 430 148 441 132 c 0,31,32
 458 106 458 106 480 106 c 128,-1,33
 502 106 502 106 530 134 c 0,34,35
 548 152 548 152 557 188 c 0,36,37
 578 259 578 259 578 304 c 0,38,39
 578 328 578 328 577 342 c 0,40,41
 576 366 576 366 576 431 c 2,42,-1
 576 465 l 1,43,-1
 576 491 l 2,44,45
 576 553 576 553 568.5 612.5 c 128,-1,46
 561 672 561 672 551 689 c 0,47,48
 539 711 539 711 499 711 c 2,49,-1
 487 711 l 2,50,51
 438 708 438 708 431 692 c 0,52,53
 427 683 427 683 423 683 c 0,54,55
 418 683 418 683 407.5 672.5 c 128,-1,56
 397 662 397 662 391 650 c 0,57,58
 382 632 382 632 375 625 c 0,59,60
 366 614 366 614 364 605 c 128,-1,61
 362 596 362 596 333 541 c 0,62,63
 305 485 305 485 291 450 c 0,64,65
 282 423 282 423 270 400 c 0,66,67
 268 397 268 397 264.5 388.5 c 128,-1,68
 261 380 261 380 256 368 c 128,-1,69
 251 356 251 356 248 348 c 0,70,71
 227 299 227 299 200 245 c 0,72,73
 167 175 167 175 164 165 c 0,74,75
 161 154 161 154 150 139 c 0,76,77
 142 126 142 126 142 122 c 0,78,79
 142 117 142 117 158 117 c 0,80,81
 168 117 168 117 174 115 c 128,-1,82
 180 113 180 113 186.5 108 c 128,-1,83
 193 103 193 103 197 101 c 2,84,-1
 208 96 l 1,85,86
 190 88 190 88 138 87 c 0,87,88
 86 85 86 85 73 77 c 0,89,90
 52 64 52 64 48 78 c 0,91,92
 46 88 46 88 47 92 c 128,-1,93
 48 96 48 96 56 105 c 0,94,95
 66 116 66 116 80 116 c 0,96,97
 93 116 93 116 105 120 c 0,98,99
 113 123 113 123 118.5 133 c 128,-1,100
 124 143 124 143 150 204 c 0,101,102
 161 230 161 230 178 262 c 0,103,104
 182 270 182 270 197 302.5 c 128,-1,105
 212 335 212 335 224.5 362 c 128,-1,106
 237 389 237 389 242 400 c 0,107,108
 249 414 249 414 254 428 c 0,109,110
 265 459 265 459 293 521.5 c 128,-1,111
 321 584 321 584 326 591 c 0,112,113
 331 596 331 596 331 598 c 0,114,115
 331 602 331 602 345 623 c 0,116,117
 357 641 357 641 372 671 c 0,118,119
 398 721 398 721 408 728 c 0,0,1
EndSplineSet
Validated: 1
EndChar

StartChar: W
Encoding: 87 87 25
Width: 564
GlyphClass: 1
Flags: W
LayerCount: 2
Fore
SplineSet
506 746 m 0,0,1
 496 744 496 744 496 746 c 0,2,3
 497 751 497 751 510 751 c 0,4,5
 518 751 518 751 519 750 c 0,6,7
 521 749 521 749 506 746 c 0,0,1
83 742 m 0,8,9
 93 747 93 747 104 747 c 0,10,11
 114 747 114 747 134 744 c 0,12,13
 137 743 137 743 143 743 c 0,14,15
 148 743 148 743 157.5 744.5 c 128,-1,16
 167 746 167 746 171 746 c 0,17,18
 179 746 179 746 184 742 c 0,19,20
 191 737 191 737 194 737 c 0,21,22
 199 737 199 737 200.5 730.5 c 128,-1,23
 202 724 202 724 198 720 c 0,24,25
 192 714 192 714 160 714 c 0,26,27
 126 713 126 713 123 708 c 0,28,29
 121 704 121 704 121 683 c 0,30,31
 121 650 121 650 127 488 c 0,32,33
 129 413 129 413 132 410 c 128,-1,34
 135 407 135 407 165 407 c 0,35,36
 207 407 207 407 234 411 c 0,37,38
 258 415 258 415 301 415 c 2,39,-1
 325 415 l 1,40,-1
 379 414 l 1,41,-1
 378 552 l 2,42,43
 378 665 378 665 375 686.5 c 128,-1,44
 372 708 372 708 356 708 c 0,45,46
 345 708 345 708 341 712.5 c 128,-1,47
 337 717 337 717 336 728 c 2,48,-1
 334 742 l 1,49,-1
 393 742 l 2,50,51
 452 742 452 742 452 739 c 0,52,53
 452 719 452 719 416 712 c 2,54,-1
 404 710 l 1,55,-1
 404 685 l 2,56,57
 405 628 405 628 405 535 c 0,58,59
 405 447 405 447 401 215 c 2,60,-1
 400 97 l 1,61,-1
 436 97 l 2,62,63
 502 95 502 95 502 89 c 0,64,65
 502 88 502 88 495 88 c 0,66,67
 485 88 485 88 471 82 c 0,68,69
 460 77 460 77 406.5 72 c 128,-1,70
 353 67 353 67 349 66 c 0,71,72
 335 64 335 64 332 64 c 0,73,74
 321 64 321 64 321 71 c 0,75,76
 321 75 321 75 322 78 c 0,77,78
 325 87 325 87 345 93 c 0,79,80
 364 98 364 98 368 102 c 0,81,82
 370 105 370 105 375 284 c 2,83,-1
 377 360 l 2,84,85
 377 380 377 380 373 383 c 0,86,87
 366 389 366 389 316 389 c 0,88,89
 267 389 267 389 231 383 c 0,90,91
 198 377 198 377 163 377 c 2,92,-1
 135 377 l 1,93,-1
 135 243 l 2,94,95
 135 194 135 194 135 168.5 c 128,-1,96
 135 143 135 143 136 128.5 c 128,-1,97
 137 114 137 114 138 110.5 c 128,-1,98
 139 107 139 107 142 106 c 0,99,100
 150 102 150 102 157 102 c 128,-1,101
 164 102 164 102 176.5 97.5 c 128,-1,102
 189 93 189 93 191 90 c 128,-1,103
 193 87 193 87 184 80 c 0,104,105
 173 72 173 72 115 72 c 2,106,-1
 93 72 l 2,107,108
 56 72 56 72 50 78 c 0,109,110
 46 82 46 82 46 85 c 0,111,112
 46 95 46 95 75 95 c 0,113,114
 99 95 99 95 114 107 c 1,115,-1
 112 225 l 2,116,117
 110 343 110 343 99 514 c 0,118,119
 95 566 95 566 95 657 c 0,120,121
 95 696 95 696 96 705 c 128,-1,122
 97 714 97 714 95.5 715.5 c 128,-1,123
 94 717 94 717 83 717 c 0,124,125
 67 717 67 717 63.5 718.5 c 128,-1,126
 60 720 60 720 60 726 c 0,127,128
 60 729 60 729 62 733 c 128,-1,129
 64 737 64 737 66.5 738.5 c 128,-1,130
 69 740 69 740 71 738 c 0,131,132
 72 737 72 737 83 742 c 0,8,9
EndSplineSet
Validated: 1
EndChar

StartChar: X
Encoding: 88 88 26
Width: 367
GlyphClass: 1
Flags: W
LayerCount: 2
Fore
SplineSet
114 269 m 0,0,1
 112 278 112 278 109 278 c 0,2,3
 105 278 105 278 91 236 c 0,4,5
 90 233 90 233 87.5 220.5 c 128,-1,6
 85 208 85 208 82 197 c 128,-1,7
 79 186 79 186 76 183 c 0,8,9
 74 181 74 181 74 169 c 0,10,11
 74 140 74 140 81 119 c 0,12,13
 85 106 85 106 92 106 c 0,14,15
 103 106 103 106 108 142 c 0,16,17
 115 189 115 189 115 251 c 0,18,19
 115 266 115 266 114 269 c 0,0,1
150 628 m 2,20,21
 150 626 150 626 148 553.5 c 128,-1,22
 146 481 146 481 146 447 c 0,23,24
 146 411 146 411 148 411 c 0,25,26
 153 411 153 411 164 422 c 0,27,28
 217 472 217 472 267 483 c 0,29,30
 299 490 299 490 313 490 c 0,31,32
 321 490 321 490 321 487 c 0,33,34
 321 482 321 482 306.5 470.5 c 128,-1,35
 292 459 292 459 278 455 c 0,36,37
 236 443 236 443 225 434 c 0,38,39
 207 422 207 422 203 420 c 0,40,41
 176 406 176 406 150 363 c 2,42,-1
 139 345 l 1,43,-1
 139 263 l 2,44,45
 139 196 139 196 134 138 c 0,46,47
 130 108 130 108 127.5 100 c 128,-1,48
 125 92 125 92 116 82 c 0,49,50
 102 68 102 68 90 68 c 0,51,52
 83 68 83 68 73 73 c 0,53,54
 52 84 52 84 50 107 c 0,55,56
 48 119 48 119 46 145 c 0,57,58
 45 152 45 152 45 164 c 0,59,60
 45 179 45 179 52 204 c 0,61,62
 59 232 59 232 62 238 c 0,63,64
 66 242 66 242 68 255 c 0,65,66
 70 269 70 269 77 282 c 0,67,68
 84 294 84 294 84 298 c 0,69,70
 84 300 84 300 93 314 c 0,71,72
 111 343 111 343 115 379 c 128,-1,73
 119 415 119 415 121 586 c 0,74,75
 123 709 123 709 126 718 c 0,76,77
 130 726 130 726 129 727 c 0,78,79
 127 729 127 729 97 729 c 0,80,81
 52 731 52 731 52 744 c 0,82,83
 52 751 52 751 71 751 c 0,84,85
 83 751 83 751 103 756 c 0,86,87
 116 760 116 760 134 760 c 0,88,89
 155 760 155 760 167 754 c 0,90,91
 176 748 176 748 176 742 c 0,92,93
 176 734 176 734 164 730 c 0,94,95
 154 726 154 726 152 720 c 0,96,97
 150 709 150 709 150 660 c 2,98,-1
 150 628 l 2,20,21
EndSplineSet
Validated: 1
EndChar

StartChar: Y
Encoding: 89 89 27
Width: 556
GlyphClass: 1
Flags: W
LayerCount: 2
Fore
SplineSet
144 726 m 0,0,1
 205 726 205 726 313 734 c 128,-1,2
 421 742 421 742 481 742 c 0,3,4
 510 742 510 742 510 737 c 0,5,6
 510 726 510 726 507 723 c 0,7,8
 499 715 499 715 400 710.5 c 128,-1,9
 301 706 301 706 299 699 c 0,10,11
 297 694 297 694 289 464 c 0,12,13
 286 312 286 312 271 175 c 0,14,15
 268 148 268 148 265 133 c 2,16,-1
 263 123 l 1,17,-1
 310 125 l 2,18,19
 340 126 340 126 389.5 132 c 128,-1,20
 439 138 439 138 461 139 c 0,21,22
 472 140 472 140 485 140 c 0,23,24
 496 140 496 140 501 135 c 0,25,26
 507 129 507 129 507 124 c 0,27,28
 507 110 507 110 458 109 c 0,29,30
 287 99 287 99 247 91 c 0,31,32
 241 89 241 89 220 89 c 0,33,34
 214 89 214 89 199 89.5 c 128,-1,35
 184 90 184 90 178 90 c 0,36,37
 165 90 165 90 153 88 c 0,38,39
 147 87 147 87 131 87 c 0,40,41
 87 87 87 87 59 94 c 0,42,43
 45 98 45 98 45 105 c 0,44,45
 45 117 45 117 64 117 c 0,46,47
 67 117 67 117 83 115 c 0,48,49
 105 113 105 113 122 113 c 0,50,51
 125 113 125 113 148.5 114 c 128,-1,52
 172 115 172 115 187 115 c 0,53,54
 234 116 234 116 235 121 c 0,55,56
 242 143 242 143 244 173.5 c 128,-1,57
 246 204 246 204 249 218 c 0,58,59
 255 243 255 243 256 319 c 0,60,61
 257 374 257 374 262.5 421.5 c 128,-1,62
 268 469 268 469 269 538 c 0,63,64
 271 641 271 641 274 668 c 0,65,66
 274 673 274 673 274.5 678.5 c 128,-1,67
 275 684 275 684 275.5 687.5 c 128,-1,68
 276 691 276 691 276 693 c 0,69,70
 276 698 276 698 274 700 c 0,71,72
 272 701 272 701 253 701 c 0,73,74
 220 701 220 701 203 699 c 0,75,76
 202 699 202 699 196.5 698.5 c 128,-1,77
 191 698 191 698 186 698 c 0,78,79
 174 698 174 698 144 700 c 0,80,81
 85 704 85 704 79 708 c 0,82,83
 74 711 74 711 75 717.5 c 128,-1,84
 76 724 76 724 81 725 c 0,85,86
 84 726 84 726 144 726 c 0,0,1
EndSplineSet
Validated: 1
EndChar

StartChar: Z
Encoding: 90 90 28
Width: 563
GlyphClass: 1
Flags: W
LayerCount: 2
Fore
SplineSet
184 738 m 0,0,1
 184 739 184 739 190 739 c 0,2,3
 195 739 195 739 206.5 738 c 128,-1,4
 218 737 218 737 219 737 c 0,5,6
 232 737 232 737 232 732 c 0,7,8
 232 726 232 726 244 723 c 0,9,10
 256 719 256 719 295.5 699.5 c 128,-1,11
 335 680 335 680 337 677 c 0,12,13
 337 675 337 675 357 659 c 0,14,15
 376 645 376 645 403 609 c 0,16,17
 427 577 427 577 434 570 c 0,18,19
 437 567 437 567 439 554 c 0,20,21
 440 548 440 548 444 540 c 0,22,23
 451 532 451 532 451 506 c 0,24,25
 451 467 451 467 439 443 c 0,26,27
 429 421 429 421 394.5 397 c 128,-1,28
 360 373 360 373 339 373 c 0,29,30
 328 373 328 373 309 379 c 128,-1,31
 290 385 290 385 284 390 c 0,32,33
 272 399 272 399 266 401 c 0,34,35
 252 408 252 408 198 460 c 2,36,-1
 172 484 l 1,37,-1
 153 484 l 2,38,39
 128 484 128 484 117 475.5 c 128,-1,40
 106 467 106 467 84 431 c 0,41,42
 77 418 77 418 75.5 411.5 c 128,-1,43
 74 405 74 405 74 381 c 0,44,45
 76 343 76 343 82 318 c 0,46,47
 89 294 89 294 94 267 c 0,48,49
 98 241 98 241 125 201 c 0,50,51
 129 196 129 196 136 184.5 c 128,-1,52
 143 173 143 173 147.5 166.5 c 128,-1,53
 152 160 152 160 160 152 c 128,-1,54
 168 144 168 144 176 139 c 0,55,56
 192 129 192 129 221 121.5 c 128,-1,57
 250 114 250 114 272 114 c 0,58,59
 299 114 299 114 323 111 c 0,60,61
 332 110 332 110 345 110 c 0,62,63
 356 110 356 110 368 114 c 0,64,65
 386 120 386 120 415.5 139 c 128,-1,66
 445 158 445 158 452 168 c 0,67,68
 461 181 461 181 477.5 211.5 c 128,-1,69
 494 242 494 242 496 250 c 0,70,71
 498 257 498 257 506 262 c 128,-1,72
 514 267 514 267 518 263 c 0,73,74
 519 262 519 262 519 257 c 0,75,76
 519 233 519 233 509 215 c 0,77,78
 503 205 503 205 491 181 c 0,79,80
 482 162 482 162 459.5 136.5 c 128,-1,81
 437 111 437 111 429 111 c 0,82,83
 427 111 427 111 413 104 c 128,-1,84
 399 97 399 97 370 89 c 0,85,86
 343 81 343 81 324 81 c 128,-1,87
 305 81 305 81 290 82 c 0,88,89
 251 84 251 84 235.5 87.5 c 128,-1,90
 220 91 220 91 176 108 c 0,91,92
 154 116 154 116 144.5 124.5 c 128,-1,93
 135 133 135 133 118 161 c 0,94,95
 115 166 115 166 106.5 179 c 128,-1,96
 98 192 98 192 95 197 c 128,-1,97
 92 202 92 202 85.5 213.5 c 128,-1,98
 79 225 79 225 76 233.5 c 128,-1,99
 73 242 73 242 69 254 c 128,-1,100
 65 266 65 266 63 279 c 0,101,102
 62 285 62 285 52.5 321 c 128,-1,103
 43 357 43 357 43 384 c 2,104,-1
 43 392 l 2,105,106
 44 411 44 411 65 451 c 128,-1,107
 86 491 86 491 102 503 c 0,108,109
 114 512 114 512 133 515 c 0,110,111
 138 516 138 516 148 516 c 0,112,113
 190 516 190 516 230 467 c 0,114,115
 260 430 260 430 297 412 c 0,116,117
 317 401 317 401 328 401 c 0,118,119
 336 401 336 401 341 402 c 0,120,121
 370 406 370 406 392 427 c 0,122,123
 422 454 422 454 422 490 c 0,124,125
 422 517 422 517 403 560 c 0,126,127
 391 586 391 586 342 637 c 0,128,129
 323 656 323 656 278 678 c 0,130,131
 232 700 232 700 229 700 c 0,132,133
 224 700 224 700 214 712 c 0,134,135
 205 722 205 722 194 729 c 0,136,137
 184 735 184 735 184 738 c 0,0,1
EndSplineSet
Validated: 1
EndChar

StartChar: a
Encoding: 97 97 29
Width: 466
GlyphClass: 1
Flags: W
LayerCount: 2
Fore
SplineSet
51 478 m 0,0,1
 66 505 66 505 94 505 c 0,2,3
 107 505 107 505 125 497 c 0,4,5
 142 488 142 488 154 466 c 0,6,7
 164 445 164 445 164 425 c 0,8,9
 164 409 164 409 163 397 c 0,10,11
 162 353 162 353 153 332 c 0,12,13
 145 314 145 314 145 306 c 0,14,15
 145 300 145 300 149 300 c 0,16,17
 154 300 154 300 174 318 c 0,18,19
 190 333 190 333 218 352 c 0,20,21
 258 380 258 380 272 420 c 0,22,23
 279 442 279 442 297.5 459.5 c 128,-1,24
 316 477 316 477 330 477 c 0,25,26
 336 477 336 477 339 473 c 0,27,28
 340 472 340 472 340 469 c 0,29,30
 340 447 340 447 300 401 c 0,31,32
 274 372 274 372 253.5 315.5 c 128,-1,33
 233 259 233 259 233 217 c 2,34,-1
 233 208 l 2,35,36
 235 177 235 177 246 161.5 c 128,-1,37
 257 146 257 146 290 129 c 0,38,39
 323 110 323 110 333 110 c 128,-1,40
 343 110 343 110 351 120 c 128,-1,41
 359 130 359 130 365 130 c 0,42,43
 370 130 370 130 375 136 c 0,44,45
 381 144 381 144 395.5 151.5 c 128,-1,46
 410 159 410 159 417 159 c 2,47,-1
 419 158 l 2,48,49
 423 154 423 154 417 151 c 0,50,51
 411 149 411 149 405 138 c 0,52,53
 398 124 398 124 380.5 108 c 128,-1,54
 363 92 363 92 352 88 c 0,55,56
 337 83 337 83 329 83 c 0,57,58
 317 83 317 83 300 93 c 0,59,60
 281 104 281 104 266 110 c 0,61,62
 251 114 251 114 231.5 133 c 128,-1,63
 212 152 212 152 210 163 c 128,-1,64
 208 174 208 174 202 187 c 0,65,66
 198 197 198 197 198 203 c 0,67,68
 198 213 198 213 210 273 c 0,69,70
 216 299 216 299 216 307 c 0,71,72
 216 313 216 313 213 313 c 128,-1,73
 210 313 210 313 201 306 c 0,74,75
 198 304 198 304 175 284 c 0,76,77
 167 277 167 277 141 260 c 128,-1,78
 115 243 115 243 107 236 c 0,79,80
 90 221 90 221 78 221 c 0,81,82
 76 221 76 221 75 222 c 128,-1,83
 74 223 74 223 74 224 c 0,84,85
 74 241 74 241 90 262 c 0,86,87
 106 279 106 279 120 324 c 128,-1,88
 134 369 134 369 136 405 c 2,89,-1
 136 419 l 2,90,91
 136 438 136 438 126 457 c 0,92,93
 115 477 115 477 105 478 c 2,94,-1
 102 478 l 2,95,96
 81 478 81 478 66 446 c 0,97,98
 58 431 58 431 55 431 c 128,-1,99
 52 431 52 431 47 447 c 0,100,101
 44 456 44 456 44 461 c 0,102,103
 44 467 44 467 51 478 c 0,0,1
EndSplineSet
Validated: 1
EndChar

StartChar: b
Encoding: 98 98 30
Width: 439
GlyphClass: 1
Flags: W
LayerCount: 2
Fore
SplineSet
50 437 m 0,0,1
 44 438 44 438 44 445 c 0,2,3
 44 460 44 460 69.5 482 c 128,-1,4
 95 504 95 504 118 504 c 0,5,6
 140 504 140 504 151 482 c 0,7,8
 159 466 159 466 159 439 c 0,9,10
 159 416 159 416 158 399 c 2,11,-1
 158 369 l 2,12,13
 158 309 158 309 162 245.5 c 128,-1,14
 166 182 166 182 170 173 c 0,15,16
 175 163 175 163 190 147 c 128,-1,17
 205 131 205 131 214 125 c 0,18,19
 226 118 226 118 237 118 c 128,-1,20
 248 118 248 118 256 123 c 0,21,22
 278 136 278 136 310 199 c 0,23,24
 329 237 329 237 343.5 297.5 c 128,-1,25
 358 358 358 358 360 408 c 2,26,-1
 361 454 l 1,27,-1
 351 459 l 2,28,29
 341 463 341 463 329 453 c 0,30,31
 318 443 318 443 308 443 c 0,32,33
 301 443 301 443 301 452 c 0,34,35
 301 466 301 466 321 478 c 0,36,37
 334 486 334 486 352 486 c 128,-1,38
 370 486 370 486 378 478 c 0,39,40
 395 463 395 463 395 414 c 0,41,42
 395 370 395 370 382 315 c 0,43,44
 357 208 357 208 332 176 c 0,45,46
 317 155 317 155 317 154 c 0,47,48
 314 121 314 121 260 93 c 0,49,50
 241 83 241 83 229 83 c 0,51,52
 213 83 213 83 182 113 c 0,53,54
 157 136 157 136 143 163 c 2,55,-1
 131 187 l 1,56,-1
 125 472 l 1,57,-1
 115 474 l 1,58,-1
 113 474 l 2,59,60
 104 474 104 474 87 460 c 0,61,62
 60 436 60 436 54 436 c 0,63,64
 52 436 52 436 50 437 c 0,0,1
EndSplineSet
Validated: 1
EndChar

StartChar: c
Encoding: 99 99 31
Width: 366
GlyphClass: 1
Flags: W
LayerCount: 2
Fore
SplineSet
104 498 m 0,0,1
 111 508 111 508 112 508 c 0,2,3
 115 508 115 508 129 501 c 128,-1,4
 143 494 143 494 139 487 c 0,5,6
 136 480 136 480 132 480 c 0,7,8
 130 480 130 480 129 476 c 128,-1,9
 128 472 128 472 129.5 466.5 c 128,-1,10
 131 461 131 461 134 457 c 0,11,12
 138 452 138 452 140.5 452.5 c 128,-1,13
 143 453 143 453 150 462 c 0,14,15
 163 477 163 477 167 484 c 2,16,-1
 173 495 l 1,17,-1
 209 493 l 1,18,-1
 245 492 l 1,19,-1
 270 470 l 2,20,21
 296 446 296 446 306 422 c 0,22,23
 323 380 323 380 323 328 c 0,24,25
 323 289 323 289 314 244 c 0,26,27
 302 180 302 180 216 123 c 0,28,29
 157 83 157 83 132 81 c 0,30,31
 129 81 129 81 125 80.5 c 128,-1,32
 121 80 121 80 120 80 c 0,33,34
 109 80 109 80 90 92 c 0,35,36
 46 120 46 120 46 152 c 0,37,38
 46 162 46 162 51 168 c 0,39,40
 61 181 61 181 66 160 c 0,41,42
 67 153 67 153 81.5 136.5 c 128,-1,43
 96 120 96 120 101 120 c 0,44,45
 103 120 103 120 111 112 c 0,46,47
 117 106 117 106 125 106 c 0,48,49
 136 106 136 106 160 118 c 0,50,51
 192 134 192 134 226 161.5 c 128,-1,52
 260 189 260 189 272 208 c 0,53,54
 282 223 282 223 290 278 c 0,55,56
 294 301 294 301 294 328 c 0,57,58
 294 386 294 386 271 434 c 0,59,60
 263 448 263 448 246.5 459.5 c 128,-1,61
 230 471 230 471 212 472 c 2,62,-1
 203 472 l 2,63,64
 192 472 192 472 174 454 c 0,65,66
 142 422 142 422 126 367 c 0,67,68
 115 329 115 329 99 319 c 0,69,70
 93 316 93 316 88 316 c 128,-1,71
 83 316 83 316 83 322 c 0,72,73
 83 334 83 334 94 372 c 0,74,75
 104 412 104 412 104 449 c 0,76,77
 104 472 104 472 100 479 c 128,-1,78
 96 486 96 486 104 498 c 0,0,1
86 489 m 0,79,80
 86 490 86 490 88 490 c 0,81,82
 89 490 89 490 89 489 c 0,83,84
 89 487 89 487 88 487 c 0,85,86
 86 487 86 487 86 489 c 0,79,80
EndSplineSet
Validated: 1
EndChar

StartChar: d
Encoding: 100 100 32
Width: 382
GlyphClass: 1
Flags: W
LayerCount: 2
Fore
SplineSet
316 499 m 0,0,1
 321 499 321 499 325 495.5 c 128,-1,2
 329 492 329 492 334 492 c 128,-1,3
 339 492 339 492 339 490 c 256,4,5
 339 488 339 488 332 477 c 0,6,7
 317 449 317 449 317 396 c 0,8,9
 317 381 317 381 319 377 c 0,10,11
 324 368 324 368 314 349 c 0,12,13
 305 332 305 332 299 274 c 0,14,15
 285 131 285 131 277 113 c 0,16,17
 270 100 270 100 251 86 c 128,-1,18
 232 72 232 72 220 72 c 0,19,20
 212 72 212 72 194 90 c 128,-1,21
 176 108 176 108 176 116 c 0,22,23
 176 128 176 128 184 128 c 0,24,25
 190 128 190 128 198 122 c 128,-1,26
 206 116 206 116 209 109 c 0,27,28
 213 100 213 100 220 100 c 0,29,30
 228 100 228 100 238.5 108 c 128,-1,31
 249 116 249 116 252 124 c 0,32,33
 257 137 257 137 266.5 206.5 c 128,-1,34
 276 276 276 276 276 295 c 1,35,-1
 275 299 l 2,36,37
 273 301 273 301 252 290 c 0,38,39
 213 269 213 269 175 269 c 0,40,41
 133 269 133 269 120 298 c 0,42,43
 114 311 114 311 114 354 c 2,44,-1
 114 392 l 1,45,-1
 116 470 l 1,46,-1
 93 472 l 2,47,48
 71 473 71 473 57 482 c 0,49,50
 49 487 49 487 46.5 489.5 c 128,-1,51
 44 492 44 492 45.5 493.5 c 128,-1,52
 47 495 47 495 53 498 c 128,-1,53
 59 501 59 501 68 499 c 2,54,-1
 71 499 l 2,55,56
 76 499 76 499 100 500.5 c 128,-1,57
 124 502 124 502 133 502 c 0,58,59
 140 502 140 502 141 501 c 0,60,61
 145 497 145 497 141 486 c 0,62,63
 138 477 138 477 138 395 c 0,64,65
 138 318 138 318 144 305.5 c 128,-1,66
 150 293 150 293 184 292 c 0,67,68
 204 292 204 292 214 295.5 c 128,-1,69
 224 299 224 299 244 312 c 0,70,71
 273 331 273 331 279.5 344 c 128,-1,72
 286 357 286 357 290 400 c 0,73,74
 300 499 300 499 316 499 c 0,0,1
EndSplineSet
Validated: 1
EndChar

StartChar: e
Encoding: 101 101 33
Width: 300
GlyphClass: 1
Flags: W
LayerCount: 2
Fore
SplineSet
146 488 m 2,0,1
 152 489 152 489 159 489 c 0,2,3
 230 489 230 489 236 485 c 0,4,5
 245 480 245 480 226 470 c 0,6,7
 215 464 215 464 209 447 c 0,8,9
 198 411 198 411 172 356 c 0,10,11
 162 336 162 336 162 332 c 0,12,13
 162 325 162 325 187 322 c 0,14,15
 199 321 199 321 208.5 315 c 128,-1,16
 218 309 218 309 218 304 c 0,17,18
 218 296 218 296 199 296 c 0,19,20
 189 296 189 296 185 298 c 0,21,22
 176 301 176 301 169 301 c 0,23,24
 153 301 153 301 141 275 c 0,25,26
 129 247 129 247 126 237 c 0,27,28
 123 229 123 229 115 211 c 128,-1,29
 107 193 107 193 104 182 c 0,30,31
 102 174 102 174 93 147 c 0,32,33
 86 126 86 126 86 122 c 0,34,35
 86 114 86 114 94 112.5 c 128,-1,36
 102 111 102 111 129 111 c 0,37,38
 159 111 159 111 167.5 112.5 c 128,-1,39
 176 114 176 114 188 121 c 0,40,41
 192 124 192 124 198 128 c 128,-1,42
 204 132 204 132 211 136.5 c 128,-1,43
 218 141 218 141 221 143 c 0,44,45
 236 154 236 154 246 152 c 0,46,47
 256 149 256 149 256 144 c 0,48,49
 256 137 256 137 244 128 c 0,50,51
 190 86 190 86 110 84 c 2,52,-1
 106 84 l 2,53,54
 80 84 80 84 63 91 c 128,-1,55
 46 98 46 98 46 107 c 0,56,57
 46 113 46 113 53 119 c 0,58,59
 60 124 60 124 68.5 145 c 128,-1,60
 77 166 77 166 87 195 c 128,-1,61
 97 224 97 224 103 236 c 0,62,63
 123 277 123 277 123 289 c 0,64,65
 123 291 123 291 121 293 c 2,66,-1
 120 293 l 2,67,68
 118 293 118 293 103 289.5 c 128,-1,69
 88 286 88 286 82 286 c 0,70,71
 79 286 79 286 78 287 c 0,72,73
 74 292 74 292 77.5 298.5 c 128,-1,74
 81 305 81 305 89 307 c 0,75,76
 132 317 132 317 135 324 c 0,77,78
 139 330 139 330 157.5 371 c 128,-1,79
 176 412 176 412 179 422 c 0,80,81
 183 436 183 436 190 445 c 0,82,83
 203 464 203 464 187 468 c 0,84,85
 184 469 184 469 172 469 c 0,86,87
 132 469 132 469 102 459 c 0,88,89
 90 454 90 454 87 451.5 c 128,-1,90
 84 449 84 449 83 441 c 0,91,92
 82 435 82 435 81 432.5 c 128,-1,93
 80 430 80 430 77.5 429 c 128,-1,94
 75 428 75 428 69 429 c 0,95,96
 47 431 47 431 47 445 c 0,97,98
 47 454 47 454 55 463 c 0,99,100
 71 482 71 482 118 485 c 2,101,-1
 146 488 l 2,0,1
EndSplineSet
Validated: 1
EndChar

StartChar: f
Encoding: 102 102 34
Width: 524
GlyphClass: 1
Flags: W
LayerCount: 2
Fore
SplineSet
180 717 m 0,0,1
 186 723 186 723 207 713 c 0,2,3
 218 707 218 707 225 689 c 0,4,5
 230 675 230 675 230 638 c 0,6,7
 230 593 230 593 223 552 c 0,8,9
 215 507 215 507 210 428 c 0,10,11
 208 388 208 388 208 382 c 0,12,13
 208 362 208 362 212 362 c 0,14,15
 215 362 215 362 221 376 c 0,16,17
 227 389 227 389 255 417 c 128,-1,18
 283 445 283 445 300 455 c 0,19,20
 320 467 320 467 323 469 c 0,21,22
 343 483 343 483 381 483 c 0,23,24
 398 483 398 483 407 479 c 0,25,26
 414 476 414 476 436 457 c 128,-1,27
 458 438 458 438 458 435 c 2,28,-1
 459 434 l 2,29,30
 460 432 460 432 461 429.5 c 128,-1,31
 462 427 462 427 463 424 c 0,32,33
 480 383 480 383 480 343 c 0,34,35
 480 281 480 281 462 243 c 0,36,37
 457 233 457 233 451 218 c 0,38,39
 436 183 436 183 397 136.5 c 128,-1,40
 358 90 358 90 339 84 c 0,41,42
 330 81 330 81 309 79 c 2,43,-1
 290 76 l 1,44,-1
 272 96 l 2,45,46
 255 113 255 113 235 125 c 0,47,48
 226 130 226 130 221 134 c 128,-1,49
 216 138 216 138 217 139 c 0,50,51
 219 144 219 144 242 144 c 0,52,53
 252 144 252 144 256 142 c 0,54,55
 258 140 258 140 270.5 136 c 128,-1,56
 283 132 283 132 285 127 c 0,57,58
 287 121 287 121 296 112 c 0,59,60
 305 102 305 102 317 104 c 0,61,62
 344 110 344 110 360 132 c 0,63,64
 371 148 371 148 374 148 c 0,65,66
 379 148 379 148 404.5 189 c 128,-1,67
 430 230 430 230 430 239 c 0,68,69
 430 246 430 246 437 258 c 0,70,71
 442 268 442 268 448.5 300 c 128,-1,72
 455 332 455 332 455 348 c 0,73,74
 455 385 455 385 429.5 422.5 c 128,-1,75
 404 460 404 460 380 460 c 2,76,-1
 375 460 l 2,77,78
 373 460 373 460 364.5 458.5 c 128,-1,79
 356 457 356 457 352 456 c 0,80,81
 324 454 324 454 267 394 c 0,82,83
 234 359 234 359 234 358 c 0,84,85
 234 354 234 354 264 354 c 0,86,87
 283 354 283 354 330 356 c 128,-1,88
 377 358 377 358 392 358 c 128,-1,89
 407 358 407 358 410 357 c 0,90,91
 414 356 414 356 414 354 c 0,92,93
 414 348 414 348 380 342 c 0,94,95
 319 330 319 330 267 330 c 0,96,97
 223 330 223 330 209 323 c 128,-1,98
 195 316 195 316 195 312 c 0,99,100
 195 299 195 299 186 246.5 c 128,-1,101
 177 194 177 194 172 180 c 0,102,103
 152 118 152 118 136 106 c 0,104,105
 132 103 132 103 125 103 c 0,106,107
 110 103 110 103 92 115 c 0,108,109
 72 128 72 128 82 136 c 0,110,111
 95 146 95 146 107 137 c 0,112,113
 116 129 116 129 121 131 c 0,114,115
 128 134 128 134 141.5 167 c 128,-1,116
 155 200 155 200 155 216 c 0,117,118
 155 227 155 227 160 245 c 0,119,120
 166 269 166 269 168 295 c 2,121,-1
 171 326 l 1,122,-1
 158 326 l 2,123,124
 135 326 135 326 90 312 c 0,125,126
 66 305 66 305 64 305 c 0,127,128
 59 305 59 305 52 312 c 128,-1,129
 45 319 45 319 45 322 c 0,130,131
 45 331 45 331 108 340 c 0,132,133
 119 342 119 342 132 344 c 128,-1,134
 145 346 145 346 154 348 c 128,-1,135
 163 350 163 350 165 350 c 0,136,137
 176 351 176 351 178.5 362.5 c 128,-1,138
 181 374 181 374 182 423 c 0,139,140
 184 497 184 497 195 530 c 0,141,142
 204 555 204 555 204 646 c 0,143,144
 204 678 204 678 201 688 c 0,145,146
 198 697 198 697 188 697 c 128,-1,147
 178 697 178 697 163 688 c 0,148,149
 147 680 147 680 137 683 c 0,150,151
 128 686 128 686 121 684 c 0,152,153
 116 682 116 682 116 684 c 0,154,155
 115 688 115 688 129 699 c 0,156,157
 143 709 143 709 159 712 c 0,158,159
 179 716 179 716 180 717 c 0,0,1
EndSplineSet
Validated: 1
EndChar

StartChar: g
Encoding: 103 103 35
Width: 502
GlyphClass: 1
Flags: W
LayerCount: 2
Fore
SplineSet
372 698 m 0,0,1
 399 702 399 702 418 702 c 0,2,3
 433 702 433 702 448 699 c 0,4,5
 457 698 457 698 457 693 c 0,6,7
 457 686 457 686 440 681 c 0,8,9
 429 678 429 678 416 674.5 c 128,-1,10
 403 671 403 671 397 669 c 128,-1,11
 391 667 391 667 390 667 c 0,12,13
 389 666 389 666 404 641 c 0,14,15
 418 619 418 619 420 596 c 0,16,17
 422 572 422 572 425 565.5 c 128,-1,18
 428 559 428 559 436 556 c 2,19,-1
 447 553 l 1,20,-1
 435 551 l 2,21,22
 427 550 427 550 425 546 c 128,-1,23
 423 542 423 542 421 523 c 0,24,25
 412 442 412 442 400 403 c 0,26,27
 394 381 394 381 387 342.5 c 128,-1,28
 380 304 380 304 370 275 c 0,29,30
 363 256 363 256 356 227 c 0,31,32
 342 161 342 161 332 143 c 0,33,34
 326 133 326 133 326 126 c 0,35,36
 326 114 326 114 358 110 c 0,37,38
 380 106 380 106 385 101 c 0,39,40
 388 98 388 98 388 96 c 0,41,42
 388 86 388 86 340 84 c 0,43,44
 311 84 311 84 287 80 c 0,45,46
 265 76 265 76 262 78 c 0,47,48
 257 81 257 81 259 88.5 c 128,-1,49
 261 96 261 96 268 98 c 0,50,51
 279 103 279 103 285.5 113 c 128,-1,52
 292 123 292 123 300 148 c 0,53,54
 310 180 310 180 310 237 c 0,55,56
 310 278 310 278 308.5 289 c 128,-1,57
 307 300 307 300 298 316 c 0,58,59
 286 337 286 337 268 350 c 0,60,61
 248 364 248 364 224 364 c 0,62,63
 198 364 198 364 182 353 c 0,64,65
 131 319 131 319 114 284 c 0,66,67
 103 261 103 261 103 235 c 2,68,-1
 103 216 l 2,69,70
 104 168 104 168 112.5 151.5 c 128,-1,71
 121 135 121 135 152 120 c 0,72,73
 182 106 182 106 182 99 c 0,74,75
 182 91 182 91 132 82 c 0,76,77
 93 76 93 76 80 76 c 128,-1,78
 67 76 67 76 57 83 c 0,79,80
 46 91 46 91 46 94 c 0,81,82
 46 98 46 98 68 103 c 0,83,84
 95 107 95 107 95 116 c 0,85,86
 95 123 95 123 88 134 c 0,87,88
 66 175 66 175 66 210 c 0,89,90
 66 212 66 212 66.5 217 c 128,-1,91
 67 222 67 222 67 225 c 0,92,93
 70 262 70 262 88 301 c 128,-1,94
 106 340 106 340 126 352 c 0,95,96
 129 354 129 354 162 374 c 0,97,98
 197 395 197 395 230 395 c 0,99,100
 293 395 293 395 325 329 c 0,101,102
 338 303 338 303 342 303 c 2,103,-1
 343 304 l 2,104,105
 349 310 349 310 356 338 c 128,-1,106
 363 366 363 366 370 404 c 128,-1,107
 377 442 377 442 380 455 c 0,108,109
 386 479 386 479 386 518 c 0,110,111
 386 528 386 528 386.5 548 c 128,-1,112
 387 568 387 568 387 572 c 0,113,114
 387 618 387 618 363 641 c 0,115,116
 349 653 349 653 341 653 c 0,117,118
 334 653 334 653 318 662 c 0,119,120
 302 670 302 670 303 678 c 0,121,122
 304 685 304 685 314 688 c 128,-1,123
 324 691 324 691 372 698 c 0,0,1
EndSplineSet
Validated: 1
EndChar

StartChar: h
Encoding: 104 104 36
Width: 359
GlyphClass: 1
Flags: W
LayerCount: 2
Fore
SplineSet
274 544 m 2,0,1
 274 535 274 535 276 535 c 128,-1,2
 278 535 278 535 281 543.5 c 128,-1,3
 284 552 284 552 284 559 c 0,4,5
 284 563 284 563 282 565 c 0,6,7
 278 568 278 568 276 560 c 2,8,-1
 274 544 l 2,0,1
274 620 m 0,9,10
 283 626 283 626 289 626 c 0,11,12
 314 626 314 626 314 562 c 0,13,14
 314 526 314 526 306 512 c 0,15,16
 297 494 297 494 297 484 c 0,17,18
 297 476 297 476 274 430 c 0,19,20
 252 387 252 387 252 370 c 0,21,22
 252 357 252 357 246 325 c 0,23,24
 241 298 241 298 241 264 c 0,25,26
 241 235 241 235 235 219 c 0,27,28
 233 213 233 213 228 179 c 0,29,30
 226 156 226 156 218 137 c 0,31,32
 210 119 210 119 210 115 c 0,33,34
 210 109 210 109 222 109 c 128,-1,35
 234 109 234 109 242 110 c 128,-1,36
 250 111 250 111 262 111 c 128,-1,37
 274 111 274 111 274 107 c 0,38,39
 274 104 274 104 265 97 c 0,40,41
 245 81 245 81 201 81 c 2,42,-1
 192 81 l 2,43,44
 143 83 143 83 143 97 c 0,45,46
 143 100 143 100 160 108 c 0,47,48
 180 117 180 117 188 131.5 c 128,-1,49
 196 146 196 146 201 180 c 0,50,51
 206 220 206 220 210 236 c 0,52,53
 220 281 220 281 220 354 c 0,54,55
 218 361 218 361 210 351 c 0,56,57
 209 350 209 350 208 349 c 0,58,59
 183 321 183 321 150 295.5 c 128,-1,60
 117 270 117 270 104 270 c 0,61,62
 101 270 101 270 81 260 c 0,63,64
 63 250 63 250 54 254 c 128,-1,65
 45 258 45 258 45 267 c 0,66,67
 45 274 45 274 52.5 290.5 c 128,-1,68
 60 307 60 307 60 312 c 0,69,70
 60 319 60 319 62 321 c 128,-1,71
 64 323 64 323 71 323 c 0,72,73
 79 323 79 323 80 321 c 128,-1,74
 81 319 81 319 80 311 c 0,75,76
 80 310 80 310 79.5 308.5 c 128,-1,77
 79 307 79 307 79 306 c 0,78,79
 79 297 79 297 89 297 c 0,80,81
 94 297 94 297 105 300 c 0,82,83
 123 306 123 306 165 343.5 c 128,-1,84
 207 381 207 381 224 407 c 0,85,86
 246 441 246 441 254 563 c 0,87,88
 257 607 257 607 274 620 c 0,9,10
EndSplineSet
Validated: 1
EndChar

StartChar: i
Encoding: 105 105 37
Width: 215
GlyphClass: 1
Flags: W
LayerCount: 2
Fore
SplineSet
89 484 m 0,0,1
 93 486 93 486 110.5 491 c 128,-1,2
 128 496 128 496 134 496 c 2,3,-1
 135 496 l 2,4,5
 143 496 143 496 143 464 c 0,6,7
 143 440 143 440 142 423 c 0,8,9
 139 324 139 324 139 319 c 0,10,11
 139 278 139 278 135 268 c 0,12,13
 126 248 126 248 117 168 c 0,14,15
 116 148 116 148 110 131 c 0,16,17
 107 124 107 124 107 119 c 0,18,19
 107 112 107 112 119 112 c 0,20,21
 120 112 120 112 123.5 112.5 c 128,-1,22
 127 113 127 113 129 113 c 0,23,24
 135 114 135 114 146 114 c 0,25,26
 171 114 171 114 171 104 c 0,27,28
 171 95 171 95 162.5 92 c 128,-1,29
 154 89 154 89 127 89 c 2,30,-1
 107 89 l 2,31,32
 53 91 53 91 50 94 c 0,33,34
 38 103 38 103 61 112 c 0,35,36
 76 118 76 118 82.5 132.5 c 128,-1,37
 89 147 89 147 92 182 c 0,38,39
 94 211 94 211 102 243 c 0,40,41
 110 271 110 271 112 358 c 0,42,43
 112 371 112 371 112.5 392.5 c 128,-1,44
 113 414 113 414 113 422 c 128,-1,45
 113 430 113 430 112.5 437 c 128,-1,46
 112 444 112 444 112 449 c 2,47,-1
 112 454 l 2,48,49
 110 462 110 462 89 466 c 0,50,51
 69 469 69 469 69 475 c 0,52,53
 69 480 69 480 76 480 c 128,-1,54
 83 480 83 480 89 484 c 0,0,1
EndSplineSet
Validated: 1
EndChar

StartChar: k
Encoding: 107 107 38
Width: 427
GlyphClass: 1
Flags: W
LayerCount: 2
Fore
SplineSet
295 499 m 0,0,1
 303 503 303 503 358 503 c 0,2,3
 375 503 375 503 378 502 c 0,4,5
 385 500 385 500 378 493 c 0,6,7
 371 485 371 485 358 359 c 0,8,9
 356 343 356 343 351.5 254 c 128,-1,10
 347 165 347 165 346 153 c 0,11,12
 345 133 345 133 350 130 c 0,13,14
 356 128 356 128 350 120 c 0,15,16
 345 113 345 113 343 83 c 0,17,18
 341 54 341 54 332 30 c 0,19,20
 319 -8 319 -8 303 -26.5 c 128,-1,21
 287 -45 287 -45 252 -61 c 0,22,23
 228 -73 228 -73 190 -75 c 0,24,25
 177 -76 177 -76 162 -76 c 0,26,27
 150 -76 150 -76 142 -70 c 0,28,29
 130 -62 130 -62 126 -62 c 0,30,31
 121 -62 121 -62 107 -53 c 0,32,33
 91 -44 91 -44 81.5 -23 c 128,-1,34
 72 -2 72 -2 72 22 c 0,35,36
 72 30 72 30 74 42 c 0,37,38
 75 46 75 46 75.5 50 c 128,-1,39
 76 54 76 54 76.5 56.5 c 128,-1,40
 77 59 77 59 77.5 61.5 c 128,-1,41
 78 64 78 64 78 66 c 0,42,43
 78 74 78 74 65 80 c 0,44,45
 53 85 53 85 47 94 c 0,46,47
 43 103 43 103 46.5 106.5 c 128,-1,48
 50 110 50 110 60 105 c 128,-1,49
 70 100 70 100 85 100 c 0,50,51
 97 100 97 100 100 103 c 128,-1,52
 103 106 103 106 123 108 c 0,53,54
 128 109 128 109 135 109 c 128,-1,55
 142 109 142 109 142 106 c 0,56,57
 142 104 142 104 123 88 c 0,58,59
 105 75 105 75 103 61 c 0,60,61
 102 56 102 56 102 49 c 0,62,63
 102 45 102 45 102.5 39 c 128,-1,64
 103 33 103 33 103 30 c 0,65,66
 103 20 103 20 101 14 c 0,67,68
 99 4 99 4 99 3 c 0,69,70
 99 -3 99 -3 110 -17 c 0,71,72
 141 -54 141 -54 192 -54 c 0,73,74
 211 -54 211 -54 222 -49 c 0,75,76
 238 -42 238 -42 250 -40 c 0,77,78
 260 -38 260 -38 274 -27 c 128,-1,79
 288 -16 288 -16 295 -4 c 0,80,81
 306 18 306 18 311 32 c 0,82,83
 322 59 322 59 323 93 c 0,84,85
 325 177 325 177 333 264 c 128,-1,86
 341 351 341 351 342 416 c 0,87,88
 342 425 342 425 345 458 c 2,89,-1
 349 477 l 1,90,-1
 327 477 l 2,91,92
 312 477 312 477 307.5 478.5 c 128,-1,93
 303 480 303 480 298 487 c 0,94,95
 291 497 291 497 295 499 c 0,0,1
EndSplineSet
Validated: 1
EndChar

StartChar: l
Encoding: 108 108 39
Width: 608
GlyphClass: 1
Flags: W
LayerCount: 2
Fore
SplineSet
463 514 m 1,0,-1
 484 517 l 1,1,2
 489 512 489 512 481 511 c 2,3,-1
 466 511 l 1,4,-1
 442 512 l 1,5,-1
 463 514 l 1,0,-1
525 500 m 0,6,7
 527 501 527 501 531 502 c 2,8,-1
 534 503 l 2,9,10
 539 503 539 503 548 499 c 0,11,12
 565 493 565 493 565 470 c 0,13,14
 565 468 565 468 564.5 464 c 128,-1,15
 564 460 564 460 564 457 c 0,16,17
 562 425 562 425 532 255 c 0,18,19
 519 187 519 187 491 134 c 0,20,21
 473 97 473 97 452 87 c 0,22,23
 442 82 442 82 430 82 c 0,24,25
 409 82 409 82 392 92 c 0,26,27
 381 100 381 100 359 122.5 c 128,-1,28
 337 145 337 145 334 152 c 0,29,30
 330 161 330 161 326 161 c 128,-1,31
 322 161 322 161 305.5 138 c 128,-1,32
 289 115 289 115 281 100 c 0,33,34
 277 93 277 93 257 85.5 c 128,-1,35
 237 78 237 78 221 78 c 0,36,37
 172 78 172 78 156 99 c 0,38,39
 147 111 147 111 140 111 c 0,40,41
 132 111 132 111 132 93 c 0,42,43
 132 88 132 88 113.5 79 c 128,-1,44
 95 70 95 70 84 70 c 0,45,46
 77 70 77 70 61 82 c 0,47,48
 45 93 45 93 45 104 c 0,49,50
 45 114 45 114 51 120.5 c 128,-1,51
 57 127 57 127 67 127 c 0,52,53
 75 127 75 127 75 118 c 0,54,55
 75 110 75 110 81 105 c 128,-1,56
 87 100 87 100 95 101 c 0,57,58
 102 102 102 102 114 124 c 0,59,60
 123 141 123 141 125.5 162 c 128,-1,61
 128 183 128 183 133 284 c 0,62,63
 134 301 134 301 139 327 c 0,64,65
 141 341 141 341 141 362 c 0,66,67
 141 448 141 448 132 459 c 0,68,69
 127 464 127 464 110 468 c 0,70,71
 103 469 103 469 99.5 470 c 128,-1,72
 96 471 96 471 95 472.5 c 128,-1,73
 94 474 94 474 94 478 c 0,74,75
 94 496 94 496 115 496 c 0,76,77
 147 496 147 496 158 476 c 0,78,79
 165 465 165 465 165 401 c 0,80,81
 165 347 165 347 159 305 c 0,82,83
 149 242 149 242 149 193 c 0,84,85
 149 164 149 164 154 147 c 0,86,87
 160 128 160 128 177.5 116 c 128,-1,88
 195 104 195 104 215 104 c 0,89,90
 239 104 239 104 248.5 108.5 c 128,-1,91
 258 113 258 113 272 132 c 0,92,93
 310 185 310 185 314 204 c 0,94,95
 317 216 317 216 326 241.5 c 128,-1,96
 335 267 335 267 339 289 c 0,97,98
 347 331 347 331 352 356 c 0,99,100
 357 376 357 376 357 416 c 0,101,102
 357 440 357 440 355 444 c 0,103,104
 352 450 352 450 340 450 c 0,105,106
 330 450 330 450 324.5 455 c 128,-1,107
 319 460 319 460 321 467 c 0,108,109
 323 471 323 471 343.5 481.5 c 128,-1,110
 364 492 364 492 370 492 c 0,111,112
 374 492 374 492 383 475 c 0,113,114
 391 460 391 460 391 447 c 0,115,116
 391 437 391 437 390 429 c 0,117,118
 383 340 383 340 361 260 c 0,119,120
 348 225 348 225 344 216 c 0,121,122
 335 198 335 198 335 188 c 0,123,124
 335 175 335 175 354 157 c 0,125,126
 400 113 400 113 433 113 c 0,127,128
 442 113 442 113 449 118 c 0,129,130
 467 134 467 134 484 178 c 0,131,132
 508 240 508 240 522 360 c 0,133,134
 529 419 529 419 533 435 c 2,135,-1
 540 463 l 1,136,-1
 529 471 l 2,137,138
 517 481 517 481 513 481 c 0,139,140
 507 481 507 481 507 485 c 0,141,142
 507 495 507 495 525 500 c 0,6,7
EndSplineSet
Validated: 1
EndChar

StartChar: m
Encoding: 109 109 40
Width: 334
GlyphClass: 1
Flags: W
LayerCount: 2
Fore
SplineSet
208 466 m 0,0,1
 203 472 203 472 197 472 c 0,2,3
 190 472 190 472 167 460 c 0,4,5
 147 450 147 450 138.5 440 c 128,-1,6
 130 430 130 430 116 403 c 0,7,8
 88 348 88 348 78 314 c 128,-1,9
 68 280 68 280 68 238 c 0,10,11
 68 218 68 218 69 207 c 0,12,13
 73 143 73 143 92 133 c 0,14,15
 108 125 108 125 115 119 c 0,16,17
 127 110 127 110 139 110 c 0,18,19
 153 110 153 110 169 124 c 0,20,21
 194 147 194 147 208.5 174 c 128,-1,22
 223 201 223 201 241 259 c 0,23,24
 257 310 257 310 259 362 c 2,25,-1
 259 385 l 2,26,27
 259 416 259 416 258 420 c 0,28,29
 256 428 256 428 248.5 436 c 128,-1,30
 241 444 241 444 236 444 c 2,31,-1
 235 444 l 2,32,33
 230 442 230 442 222 446 c 128,-1,34
 214 450 214 450 214 455 c 128,-1,35
 214 460 214 460 208 466 c 0,0,1
163 498 m 0,36,37
 175 500 175 500 184 500 c 0,38,39
 203 500 203 500 211 496 c 0,40,41
 212 496 212 496 212 482 c 0,42,43
 213 475 213 475 221 483 c 0,44,45
 226 488 226 488 238 485 c 0,46,47
 252 483 252 483 265 463 c 0,48,49
 290 425 290 425 290 371 c 0,50,51
 290 329 290 329 275 278 c 0,52,53
 271 266 271 266 264.5 245 c 128,-1,54
 258 224 258 224 252 207.5 c 128,-1,55
 246 191 246 191 238 176 c 0,56,57
 234 170 234 170 230.5 162 c 128,-1,58
 227 154 227 154 223 146 c 128,-1,59
 219 138 219 138 218 136 c 0,60,61
 211 123 211 123 191.5 105.5 c 128,-1,62
 172 88 172 88 159 84 c 0,63,64
 147 81 147 81 139 81 c 0,65,66
 123 81 123 81 95 95 c 0,67,68
 73 105 73 105 67.5 110.5 c 128,-1,69
 62 116 62 116 54 135 c 2,70,-1
 43 161 l 1,71,-1
 43 235 l 2,72,73
 43 285 43 285 45 299 c 128,-1,74
 47 313 47 313 54 332 c 0,75,76
 64 360 64 360 64 362 c 0,77,78
 64 379 64 379 92 426.5 c 128,-1,79
 120 474 120 474 138 488 c 0,80,81
 150 495 150 495 163 498 c 0,36,37
EndSplineSet
Validated: 1
EndChar

StartChar: n
Encoding: 110 110 41
Width: 501
GlyphClass: 1
Flags: W
LayerCount: 2
Fore
SplineSet
108 503 m 0,0,1
 124 511 124 511 131 511 c 0,2,3
 140 511 140 511 151 501 c 2,4,-1
 163 491 l 1,5,-1
 163 455 l 1,6,-1
 164 419 l 1,7,8
 170 427 170 427 176 437 c 0,9,10
 186 452 186 452 215 475 c 128,-1,11
 244 498 244 498 253 498 c 0,12,13
 261 498 261 498 277 485 c 128,-1,14
 293 472 293 472 295 464 c 0,15,16
 304 413 304 413 304 406 c 0,17,18
 304 404 304 404 303.5 401.5 c 128,-1,19
 303 399 303 399 303 398 c 0,20,21
 303 395 303 395 305 395 c 0,22,23
 311 395 311 395 324 419 c 0,24,25
 329 427 329 427 334 436.5 c 128,-1,26
 339 446 339 446 341.5 451 c 128,-1,27
 344 456 344 456 348.5 462.5 c 128,-1,28
 353 469 353 469 359.5 474.5 c 128,-1,29
 366 480 366 480 375 486 c 0,30,31
 401 502 401 502 415 502 c 0,32,33
 442 502 442 502 452 460 c 0,34,35
 457 437 457 437 457 406 c 0,36,37
 457 336 457 336 440 276 c 0,38,39
 432 251 432 251 429 223 c 0,40,41
 427 207 427 207 425.5 200 c 128,-1,42
 424 193 424 193 422 186 c 128,-1,43
 420 179 420 179 418 167 c 0,44,45
 403 87 403 87 379 87 c 0,46,47
 368 87 368 87 356 99 c 2,48,-1
 344 111 l 1,49,-1
 353 121 l 2,50,51
 362 130 362 130 366 127 c 0,52,53
 371 122 371 122 374 122 c 0,54,55
 386 122 386 122 392 161 c 0,56,57
 393 167 393 167 398.5 192 c 128,-1,58
 404 217 404 217 404 229 c 0,59,60
 404 244 404 244 413 271 c 0,61,62
 431 325 431 325 431 399 c 0,63,64
 431 419 431 419 430 427 c 0,65,66
 424 473 424 473 408 473 c 0,67,68
 398 473 398 473 379 456 c 0,69,70
 344 426 344 426 344 409 c 0,71,72
 344 403 344 403 337 394 c 0,73,74
 325 378 325 378 316 342 c 0,75,76
 314 337 314 337 305 337 c 128,-1,77
 296 337 296 337 293 330.5 c 128,-1,78
 290 324 290 324 288 293 c 0,79,80
 286 259 286 259 269 175 c 0,81,82
 259 126 259 126 254.5 112.5 c 128,-1,83
 250 99 250 99 240 92 c 0,84,85
 227 84 227 84 218 84 c 0,86,87
 206 84 206 84 203 96 c 0,88,89
 199 110 199 110 217 115 c 0,90,91
 223 116 223 116 226 121 c 128,-1,92
 229 126 229 126 235 143 c 0,93,94
 243 165 243 165 243 179 c 0,95,96
 243 187 243 187 249 207 c 0,97,98
 255 226 255 226 258 260 c 0,99,100
 260 285 260 285 268 325 c 0,101,102
 275 359 275 359 275 393 c 0,103,104
 275 434 275 434 264 455 c 0,105,106
 260 465 260 465 250 465 c 0,107,108
 238 465 238 465 222 452 c 0,109,110
 210 443 210 443 203 432 c 128,-1,111
 196 421 196 421 178 387 c 0,112,113
 155 341 155 341 149 325 c 128,-1,114
 143 309 143 309 140 283 c 0,115,116
 129 195 129 195 121 159 c 0,117,118
 112 127 112 127 100 113 c 0,119,120
 88 100 88 100 83.5 97.5 c 128,-1,121
 79 95 79 95 67 95 c 0,122,123
 45 95 45 95 45 109 c 0,124,125
 45 110 45 110 45.5 112.5 c 128,-1,126
 46 115 46 115 46 116 c 0,127,128
 51 137 51 137 64 127 c 0,129,130
 68 125 68 125 69 125 c 0,131,132
 79 125 79 125 90 149.5 c 128,-1,133
 101 174 101 174 105 209 c 0,134,135
 107 226 107 226 112 252 c 128,-1,136
 117 278 117 278 119 301 c 0,137,138
 123 336 123 336 126 351 c 0,139,140
 138 421 138 421 138 463 c 2,141,-1
 138 469 l 2,142,143
 135 486 135 486 124 486 c 0,144,145
 116 486 116 486 115 475 c 0,146,147
 115 470 115 470 112 468 c 128,-1,148
 109 466 109 466 104.5 467 c 128,-1,149
 100 468 100 468 95 472 c 0,150,151
 89 476 89 476 89 483 c 0,152,153
 89 494 89 494 108 503 c 0,0,1
EndSplineSet
Validated: 1
EndChar

StartChar: o
Encoding: 111 111 42
Width: 533
GlyphClass: 1
Flags: W
LayerCount: 2
Fore
SplineSet
359 450 m 0,0,1
 354 457 354 457 336 457 c 0,2,3
 295 457 295 457 272 423 c 0,4,5
 263 410 263 410 251 371.5 c 128,-1,6
 239 333 239 333 234 304 c 0,7,8
 229 272 229 272 227 232 c 2,9,-1
 226 193 l 1,10,-1
 240 174 l 2,11,12
 255 154 255 154 257 154 c 0,13,14
 263 154 263 154 287 182.5 c 128,-1,15
 311 211 311 211 321 232 c 0,16,17
 335 260 335 260 340.5 279 c 128,-1,18
 346 298 346 298 362 374 c 0,19,20
 366 390 366 390 366 412 c 0,21,22
 366 440 366 440 359 450 c 0,0,1
312 485 m 0,23,24
 334 487 334 487 352 487 c 0,25,26
 367 487 367 487 369 486 c 0,27,28
 376 484 376 484 383 467 c 0,29,30
 391 451 391 451 391 416 c 0,31,32
 391 380 391 380 386 363 c 128,-1,33
 381 346 381 346 381 333 c 0,34,35
 381 299 381 299 354 244 c 128,-1,36
 327 189 327 189 293 153 c 0,37,38
 280 140 280 140 280 137 c 0,39,40
 280 128 280 128 315 118 c 0,41,42
 339 112 339 112 374 112 c 0,43,44
 393 112 393 112 402 115 c 0,45,46
 421 120 421 120 456 167 c 0,47,48
 474 193 474 193 485 193 c 0,49,50
 486 193 486 193 487 192 c 0,51,52
 490 189 490 189 488.5 180 c 128,-1,53
 487 171 487 171 482 165 c 0,54,55
 475 156 475 156 455 129 c 0,56,57
 441 110 441 110 436 106 c 128,-1,58
 431 102 431 102 416 98 c 0,59,60
 380 89 380 89 355 89 c 0,61,62
 340 89 340 89 325 92 c 0,63,64
 271 102 271 102 261 112 c 0,65,66
 258 115 258 115 251 113.5 c 128,-1,67
 244 112 244 112 240 108 c 0,68,69
 224 90 224 90 179 90 c 0,70,71
 157 90 157 90 127 100 c 0,72,73
 68 118 68 118 50 164 c 0,74,75
 44 182 44 182 45 183 c 128,-1,76
 46 184 46 184 48 184 c 0,77,78
 54 184 54 184 65 177 c 128,-1,79
 76 170 76 170 82 162 c 0,80,81
 97 141 97 141 132 126 c 0,82,83
 158 115 158 115 188 115 c 0,84,85
 230 115 230 115 230 135 c 0,86,87
 230 141 230 141 226 146 c 0,88,89
 203 182 203 182 203 216 c 0,90,91
 203 240 203 240 209 289 c 0,92,93
 216 349 216 349 233.5 397 c 128,-1,94
 251 445 251 445 270 458 c 0,95,96
 274 460 274 460 282.5 467 c 128,-1,97
 291 474 291 474 298 479 c 128,-1,98
 305 484 305 484 312 485 c 0,23,24
EndSplineSet
Validated: 1
EndChar

StartChar: p
Encoding: 112 112 43
Width: 429
GlyphClass: 1
Flags: W
LayerCount: 2
Fore
SplineSet
117 4 m 0,0,1
 117 12 117 12 121.5 44.5 c 128,-1,2
 126 77 126 77 126 86 c 0,3,4
 126 103 126 103 132 127 c 0,5,6
 155 228 155 228 167 341 c 0,7,8
 169 361 169 361 174 375 c 0,9,10
 177 384 177 384 179 416 c 0,11,12
 180 427 180 427 180 438 c 0,13,14
 180 448 180 448 175 449 c 0,15,16
 145 461 145 461 144 461 c 0,17,18
 140 461 140 461 137 466 c 128,-1,19
 134 471 134 471 124 471 c 0,20,21
 116 471 116 471 115 474 c 0,22,23
 113 478 113 478 116 478 c 0,24,25
 124 478 124 478 153 481 c 0,26,27
 175 484 175 484 183 484 c 0,28,29
 188 484 188 484 196 480 c 0,30,31
 204 475 204 475 204 449 c 0,32,33
 204 422 204 422 199 400 c 0,34,35
 193 375 193 375 195 375 c 0,36,37
 202 375 202 375 236 434 c 0,38,39
 263 480 263 480 291 495 c 0,40,41
 302 501 302 501 307 501 c 128,-1,42
 312 501 312 501 325 496 c 0,43,44
 337 492 337 492 349 478.5 c 128,-1,45
 361 465 361 465 366 452 c 0,46,47
 370 438 370 438 373 435 c 0,48,49
 384 421 384 421 384 371 c 0,50,51
 384 340 384 340 380 314 c 0,52,53
 373 238 373 238 343 181 c 0,54,55
 334 163 334 163 309 131 c 128,-1,56
 284 99 284 99 276 96 c 0,57,58
 268 94 268 94 259 94 c 0,59,60
 238 94 238 94 220 99 c 0,61,62
 190 109 190 109 190 130 c 0,63,64
 190 145 190 145 203 145 c 0,65,66
 211 145 211 145 215 138 c 0,67,68
 223 130 223 130 234 124 c 2,69,-1
 249 114 l 1,70,-1
 262 122 l 2,71,72
 276 130 276 130 296 152 c 128,-1,73
 316 174 316 174 325 193 c 0,74,75
 338 221 338 221 355 305 c 0,76,77
 359 325 359 325 359 370 c 2,78,-1
 359 417 l 1,79,-1
 345 442 l 2,80,81
 338 454 338 454 335 458.5 c 128,-1,82
 332 463 332 463 328.5 468.5 c 128,-1,83
 325 474 325 474 322 475.5 c 128,-1,84
 319 477 319 477 316 477 c 0,85,86
 310 477 310 477 299 471 c 0,87,88
 274 456 274 456 250 414 c 0,89,90
 244 404 244 404 229 380 c 0,91,92
 201 337 201 337 198 301 c 0,93,94
 197 287 197 287 195 282 c 128,-1,95
 193 277 193 277 190 278 c 0,96,97
 184 278 184 278 181 275 c 0,98,99
 170 262 170 262 170 221 c 0,100,101
 170 203 170 203 162 165.5 c 128,-1,102
 154 128 154 128 153 116 c 0,103,104
 145 39 145 39 134 -22 c 0,105,106
 131 -39 131 -39 118.5 -74 c 128,-1,107
 106 -109 106 -109 101 -115 c 0,108,109
 96 -120 96 -120 96 -124 c 0,110,111
 96 -130 96 -130 87 -130 c 0,112,113
 68 -130 68 -130 54 -113 c 0,114,115
 45 -100 45 -100 47 -85 c 0,116,117
 50 -62 50 -62 61 -62 c 0,118,119
 62 -62 62 -62 62 -62 c 1,120,-1
 64 -63 l 2,121,122
 69 -65 69 -65 69 -73 c 128,-1,123
 69 -81 69 -81 74 -86.5 c 128,-1,124
 79 -92 79 -92 85 -88 c 0,125,126
 92 -84 92 -84 96 -75 c 0,127,128
 119 -14 119 -14 117 4 c 0,0,1
EndSplineSet
Validated: 33
EndChar

StartChar: q
Encoding: 113 113 44
Width: 466
GlyphClass: 1
Flags: W
LayerCount: 2
Fore
SplineSet
296 424 m 0,0,1
 296 426 296 426 266 426 c 0,2,3
 250 426 250 426 247 425 c 2,4,-1
 215 415 l 2,5,6
 185 406 185 406 180 399 c 0,7,8
 176 393 176 393 167 393 c 0,9,10
 159 393 159 393 134.5 368.5 c 128,-1,11
 110 344 110 344 101 327 c 0,12,13
 85 297 85 297 81 277.5 c 128,-1,14
 77 258 77 258 77 215 c 0,15,16
 77 163 77 163 79 157 c 0,17,18
 81 152 81 152 93.5 141.5 c 128,-1,19
 106 131 106 131 117 126 c 0,20,21
 128 120 128 120 153 120 c 0,22,23
 176 120 176 120 194 130 c 0,24,25
 214 143 214 143 233.5 173 c 128,-1,26
 253 203 253 203 258 231 c 0,27,28
 296 379 296 379 296 424 c 0,0,1
346 453 m 2,29,30
 360 453 360 453 369.5 456 c 128,-1,31
 379 459 379 459 396 459 c 0,32,33
 421 460 421 460 421 454 c 0,34,35
 421 443 421 443 372 433 c 0,36,37
 331 425 331 425 324 416.5 c 128,-1,38
 317 408 317 408 311 359 c 0,39,40
 305 315 305 315 301 304 c 0,41,42
 296 289 296 289 296 278 c 0,43,44
 296 269 296 269 293 266 c 128,-1,45
 290 263 290 263 281 229 c 0,46,47
 271 190 271 190 261 172 c 0,48,49
 252 155 252 155 230 129.5 c 128,-1,50
 208 104 208 104 197 99 c 0,51,52
 187 94 187 94 150 94 c 0,53,54
 135 94 135 94 119 96 c 0,55,56
 88 102 88 102 67.5 126 c 128,-1,57
 47 150 47 150 44 183 c 2,58,-1
 44 192 l 2,59,60
 44 247 44 247 57 290 c 0,61,62
 69 326 69 326 78 344 c 0,63,64
 79 344 79 344 94 363 c 0,65,66
 140 417 140 417 174 428 c 0,67,68
 225 446 225 446 271 449 c 2,69,-1
 305 452 l 1,70,-1
 312 494 l 2,71,72
 320 539 320 539 323 566 c 0,73,74
 333 650 333 650 337 659 c 0,75,76
 340 664 340 664 338 680 c 0,77,78
 336 691 336 691 334.5 693.5 c 128,-1,79
 333 696 333 696 326 696 c 0,80,81
 315 696 315 696 304 701.5 c 128,-1,82
 293 707 293 707 293 712 c 0,83,84
 293 719 293 719 296 721 c 128,-1,85
 299 723 299 723 308 721 c 0,86,87
 323 718 323 718 346 718 c 0,88,89
 378 718 378 718 378 710 c 0,90,91
 378 706 378 706 374 702 c 0,92,93
 367 694 367 694 357 626 c 0,94,95
 348 585 348 585 338 524 c 0,96,97
 336 512 336 512 333.5 497.5 c 128,-1,98
 331 483 331 483 329.5 474 c 128,-1,99
 328 465 328 465 328 463 c 2,100,-1
 326 453 l 1,101,-1
 346 453 l 2,29,30
EndSplineSet
Validated: 1
EndChar

StartChar: r
Encoding: 114 114 45
Width: 289
GlyphClass: 1
Flags: W
LayerCount: 2
Fore
SplineSet
162 500 m 0,0,1
 174 504 174 504 182 504 c 0,2,3
 191 504 191 504 202 494 c 0,4,5
 208 489 208 489 213 486 c 128,-1,6
 218 483 218 483 221 483 c 128,-1,7
 224 483 224 483 225 486 c 0,8,9
 226 488 226 488 231 490 c 128,-1,10
 236 492 236 492 240 492.5 c 128,-1,11
 244 493 244 493 245 491 c 0,12,13
 245 487 245 487 241 487 c 0,14,15
 240 487 240 487 240 479 c 0,16,17
 240 473 240 473 238 449 c 0,18,19
 231 402 231 402 213 402 c 2,20,-1
 210 402 l 2,21,22
 203 403 203 403 202 406 c 128,-1,23
 201 409 201 409 201 424 c 0,24,25
 201 446 201 446 207 453 c 0,26,27
 212 458 212 458 210 460.5 c 128,-1,28
 208 463 208 463 194 467 c 0,29,30
 177 473 177 473 171 473 c 0,31,32
 162 473 162 473 150 460 c 0,33,34
 134 443 134 443 130.5 430 c 128,-1,35
 127 417 127 417 125 379 c 2,36,-1
 125 356 l 2,37,38
 125 329 125 329 131 320 c 128,-1,39
 137 311 137 311 156 305 c 0,40,41
 176 299 176 299 176 291 c 0,42,43
 176 273 176 273 140 273 c 0,44,45
 100 273 100 273 79 215 c 0,46,47
 74 202 74 202 74 189 c 0,48,49
 74 168 74 168 100 139 c 0,50,51
 115 123 115 123 127 123 c 0,52,53
 136 123 136 123 164.5 136 c 128,-1,54
 193 149 193 149 206 159 c 0,55,56
 216 167 216 167 233 167 c 0,57,58
 238 167 238 167 238 165 c 128,-1,59
 238 163 238 163 239 159 c 128,-1,60
 240 155 240 155 238.5 153 c 128,-1,61
 237 151 237 151 231 148 c 0,62,63
 220 144 220 144 220 141 c 128,-1,64
 220 138 220 138 211 133 c 0,65,66
 156 104 156 104 150 98 c 0,67,68
 146 94 146 94 123 92 c 0,69,70
 117 91 117 91 109 91 c 0,71,72
 99 91 99 91 95 99 c 0,73,74
 93 104 93 104 76 123 c 0,75,76
 45 155 45 155 45 186 c 0,77,78
 45 205 45 205 58 233 c 0,79,80
 72 258 72 258 88 278 c 0,81,82
 105 298 105 298 105 305 c 0,83,84
 105 306 105 306 104.5 308.5 c 128,-1,85
 104 311 104 311 104 313 c 0,86,87
 98 348 98 348 98 379 c 0,88,89
 98 429 98 429 111 453 c 0,90,91
 118 465 118 465 134.5 480.5 c 128,-1,92
 151 496 151 496 162 500 c 0,0,1
EndSplineSet
Validated: 1
EndChar

StartChar: s
Encoding: 115 115 46
Width: 355
GlyphClass: 1
Flags: W
LayerCount: 2
Fore
SplineSet
211 511 m 0,0,1
 227 515 227 515 232 508 c 0,2,3
 236 503 236 503 245 507 c 0,4,5
 253 511 253 511 259.5 509 c 128,-1,6
 266 507 266 507 266 502 c 128,-1,7
 266 497 266 497 256.5 493 c 128,-1,8
 247 489 247 489 236 489 c 0,9,10
 230 489 230 489 212 484 c 0,11,12
 177 471 177 471 144 443 c 0,13,14
 130 431 130 431 127 431 c 0,15,16
 122 431 122 431 112 412.5 c 128,-1,17
 102 394 102 394 102 386 c 0,18,19
 102 359 102 359 127 341 c 0,20,21
 137 334 137 334 141 334 c 0,22,23
 146 334 146 334 159 342 c 0,24,25
 164 345 164 345 176 351.5 c 128,-1,26
 188 358 188 358 196.5 363.5 c 128,-1,27
 205 369 205 369 213 377 c 0,28,29
 230 392 230 392 233 392 c 128,-1,30
 236 392 236 392 250 399 c 0,31,32
 263 406 263 406 275 406 c 0,33,34
 288 406 288 406 300 394 c 2,35,-1
 312 382 l 1,36,-1
 312 335 l 2,37,38
 312 281 312 281 308 257.5 c 128,-1,39
 304 234 304 234 289 204 c 0,40,41
 264 154 264 154 210 113 c 0,42,43
 185 94 185 94 172 90 c 128,-1,44
 159 86 159 86 125 86 c 2,45,-1
 107 86 l 2,46,47
 83 86 83 86 80 94 c 0,48,49
 76 104 76 104 69 106 c 0,50,51
 61 108 61 108 54.5 124.5 c 128,-1,52
 48 141 48 141 46 161 c 0,53,54
 46 164 46 164 45.5 170 c 128,-1,55
 45 176 45 176 45 178 c 0,56,57
 45 200 45 200 58 209 c 2,58,-1
 66 213 l 2,59,60
 73 213 73 213 73 196 c 0,61,62
 73 194 73 194 72.5 190 c 128,-1,63
 72 186 72 186 72 183 c 0,64,65
 71 177 71 177 71 168 c 0,66,67
 71 157 71 157 79 144 c 0,68,69
 87 130 87 130 98 119 c 0,70,71
 106 112 106 112 121 112 c 2,72,-1
 139 112 l 2,73,74
 166 114 166 114 180 121 c 128,-1,75
 194 128 194 128 225 157 c 0,76,77
 254 184 254 184 266 204.5 c 128,-1,78
 278 225 278 225 286 261 c 0,79,80
 294 298 294 298 294 324 c 2,81,-1
 294 337 l 2,82,83
 293 370 293 370 284 378 c 0,84,85
 275 385 275 385 269 385 c 128,-1,86
 263 385 263 385 248.5 378.5 c 128,-1,87
 234 372 234 372 233 368 c 0,88,89
 231 362 231 362 209 347 c 128,-1,90
 187 332 187 332 170 324 c 0,91,92
 147 314 147 314 133 314 c 0,93,94
 120 314 120 314 109 323 c 0,95,96
 97 333 97 333 87 351.5 c 128,-1,97
 77 370 77 370 77 382 c 0,98,99
 77 417 77 417 130 461 c 0,100,101
 182 503 182 503 211 511 c 0,0,1
EndSplineSet
Validated: 1
EndChar

StartChar: t
Encoding: 116 116 47
Width: 320
GlyphClass: 1
Flags: W
LayerCount: 2
Fore
SplineSet
177 495 m 0,0,1
 209 501 209 501 224 501 c 0,2,3
 244 501 244 501 259 489 c 2,4,-1
 276 477 l 1,5,-1
 274 434 l 2,6,7
 272 384 272 384 240 281 c 0,8,9
 225 233 225 233 201 126 c 0,10,11
 190 75 190 75 171.5 18.5 c 128,-1,12
 153 -38 153 -38 142 -53 c 0,13,14
 131 -70 131 -70 133 -72 c 128,-1,15
 135 -74 135 -74 157 -68 c 0,16,17
 182 -61 182 -61 186 -61 c 0,18,19
 191 -61 191 -61 191 -64 c 0,20,21
 191 -73 191 -73 148 -91 c 0,22,23
 125 -101 125 -101 116 -101 c 0,24,25
 110 -101 110 -101 106 -100 c 0,26,27
 94 -99 94 -99 77 -92 c 128,-1,28
 60 -85 60 -85 60 -82 c 0,29,30
 60 -78 60 -78 67 -73 c 128,-1,31
 74 -68 74 -68 79 -68 c 0,32,33
 100 -68 100 -68 118 -46 c 128,-1,34
 136 -24 136 -24 144 13 c 0,35,36
 146 23 146 23 158 59 c 0,37,38
 168 89 168 89 168 94 c 0,39,40
 168 102 168 102 173 117 c 0,41,42
 176 124 176 124 185 161 c 128,-1,43
 194 198 194 198 203 237 c 128,-1,44
 212 276 212 276 213 281 c 0,45,46
 223 313 223 313 234 346 c 0,47,48
 239 358 239 358 248 422 c 0,49,50
 250 440 250 440 250 445 c 0,51,52
 250 465 250 465 234 473 c 0,53,54
 227 477 227 477 221 477 c 0,55,56
 214 477 214 477 201 474 c 0,57,58
 194 473 194 473 182.5 471 c 128,-1,59
 171 469 171 469 169 469 c 0,60,61
 152 467 152 467 125.5 441 c 128,-1,62
 99 415 99 415 90 393 c 2,63,-1
 83 374 l 1,64,-1
 89 359 l 2,65,66
 96 343 96 343 101 343 c 0,67,68
 108 343 108 343 123 338 c 0,69,70
 141 333 141 333 141 325 c 0,71,72
 141 307 141 307 121 307 c 2,73,-1
 113 307 l 1,74,75
 53 313 53 313 48 321 c 0,76,77
 38 334 38 334 53 336 c 0,78,79
 69 338 69 338 69 341 c 0,80,81
 69 342 69 342 65 345 c 0,82,83
 57 351 57 351 57 373 c 0,84,85
 57 390 57 390 63 404 c 0,86,87
 79 437 79 437 123 470 c 0,88,89
 148 489 148 489 177 495 c 0,0,1
EndSplineSet
Validated: 1
EndChar

StartChar: u
Encoding: 117 117 48
Width: 564
GlyphClass: 1
Flags: W
LayerCount: 2
Fore
SplineSet
400 499 m 0,0,1
 405 500 405 500 411 500 c 0,2,3
 414 500 414 500 422 499.5 c 128,-1,4
 430 499 430 499 434 499 c 0,5,6
 468 497 468 497 483 486.5 c 128,-1,7
 498 476 498 476 507 449 c 0,8,9
 521 409 521 409 521 347 c 0,10,11
 521 326 521 326 518 308 c 0,12,13
 506 229 506 229 494 196 c 0,14,15
 489 183 489 183 474.5 163 c 128,-1,16
 460 143 460 143 455 143 c 0,17,18
 451 143 451 143 442 132 c 128,-1,19
 433 121 433 121 413 110 c 0,20,21
 396 101 396 101 386 101 c 0,22,23
 370 101 370 101 352 125 c 0,24,25
 334 150 334 150 334 164 c 0,26,27
 334 167 334 167 336 183 c 0,28,29
 339 205 339 205 345 205 c 128,-1,30
 351 205 351 205 359.5 189 c 128,-1,31
 368 173 368 173 368 163 c 0,32,33
 368 155 368 155 376 143.5 c 128,-1,34
 384 132 384 132 389 132 c 2,35,-1
 390 132 l 2,36,37
 395 134 395 134 427 158 c 0,38,39
 458 183 458 183 467 201.5 c 128,-1,40
 476 220 476 220 484 282 c 0,41,42
 491 340 491 340 491 364 c 0,43,44
 491 406 491 406 478 435 c 0,45,46
 470 455 470 455 462.5 461 c 128,-1,47
 455 467 455 467 435 472 c 0,48,49
 423 475 423 475 417 475 c 0,50,51
 410 475 410 475 393 470 c 0,52,53
 353 457 353 457 314 417 c 0,54,55
 294 397 294 397 250 327 c 0,56,57
 214 270 214 270 153 168 c 0,58,59
 131 133 131 133 131 125 c 0,60,61
 131 120 131 120 139 120 c 0,62,63
 140 120 140 120 144 120.5 c 128,-1,64
 148 121 148 121 150 121 c 0,65,66
 155 122 155 122 164 122 c 0,67,68
 182 122 182 122 182 115 c 0,69,70
 182 110 182 110 167 102 c 0,71,72
 164 100 164 100 155 95.5 c 128,-1,73
 146 91 146 91 142.5 89.5 c 128,-1,74
 139 88 139 88 130.5 86.5 c 128,-1,75
 122 85 122 85 111 85 c 0,76,77
 105 85 105 85 90.5 84.5 c 128,-1,78
 76 84 76 84 72 83 c 0,79,80
 57 83 57 83 50 93 c 0,81,82
 45 101 45 101 45 105 c 0,83,84
 45 116 45 116 69 116 c 0,85,86
 87 116 87 116 96 127 c 0,87,88
 107 138 107 138 109 148 c 0,89,90
 113 158 113 158 125 177 c 0,91,92
 128 181 128 181 147 214 c 128,-1,93
 166 247 166 247 183 274 c 128,-1,94
 200 301 200 301 207 309 c 0,95,96
 219 323 219 323 226 337 c 0,97,98
 256 392 256 392 294 432 c 0,99,100
 350 489 350 489 385 495 c 0,101,102
 398 497 398 497 400 499 c 0,0,1
EndSplineSet
Validated: 1
EndChar

StartChar: w
Encoding: 119 119 49
Width: 437
GlyphClass: 1
Flags: W
LayerCount: 2
Fore
SplineSet
117 495 m 0,0,1
 136 498 136 498 145 498 c 0,2,3
 161 498 161 498 162 488 c 0,4,5
 163 480 163 480 153 475 c 128,-1,6
 143 470 143 470 142 468 c 0,7,8
 134 458 134 458 134 375 c 0,9,10
 134 356 134 356 136 334 c 2,11,-1
 139 308 l 1,12,-1
 155 308 l 2,13,14
 170 308 170 308 194 314 c 0,15,16
 267 334 267 334 312 334 c 2,17,-1
 334 334 l 1,18,-1
 332 353 l 2,19,20
 331 357 331 357 329.5 382.5 c 128,-1,21
 328 408 328 408 325.5 430 c 128,-1,22
 323 452 323 452 320 457 c 0,23,24
 315 462 315 462 304 462 c 0,25,26
 294 462 294 462 288.5 467.5 c 128,-1,27
 283 473 283 473 285 480 c 0,28,29
 287 486 287 486 327 486 c 128,-1,30
 367 486 367 486 375 479 c 2,31,-1
 385 471 l 1,32,-1
 370 461 l 2,33,34
 352 450 352 450 352 433 c 0,35,36
 352 429 352 429 354 411 c 0,37,38
 358 381 358 381 358 263 c 0,39,40
 358 192 358 192 359.5 165 c 128,-1,41
 361 138 361 138 365.5 127.5 c 128,-1,42
 370 117 370 117 383 112 c 0,43,44
 393 108 393 108 393 105 c 0,45,46
 393 101 393 101 368 98 c 0,47,48
 341 94 341 94 332 88 c 0,49,50
 326 85 326 85 323 85 c 0,51,52
 319 85 319 85 311 90.5 c 128,-1,53
 303 96 303 96 297 96 c 0,54,55
 286 96 286 96 285 101.5 c 128,-1,56
 284 107 284 107 294 115 c 0,57,58
 306 126 306 126 315 123 c 128,-1,59
 324 120 324 120 327 128 c 0,60,61
 329 137 329 137 331 221 c 0,62,63
 332 249 332 249 332 281 c 0,64,65
 332 308 332 308 326 309 c 2,66,-1
 322 309 l 2,67,68
 273 309 273 309 209 293 c 0,69,70
 183 287 183 287 166 285 c 0,71,72
 146 282 146 282 142 275 c 0,73,74
 139 269 139 269 139 198 c 2,75,-1
 139 129 l 1,76,-1
 159 129 l 2,77,78
 184 129 184 129 184 121 c 0,79,80
 184 109 184 109 142 104 c 0,81,82
 73 96 73 96 65 96 c 0,83,84
 54 96 54 96 52 101 c 0,85,86
 51 103 51 103 51 106 c 0,87,88
 51 121 51 121 76 121 c 0,89,90
 105 121 105 121 112 144 c 0,91,92
 114 154 114 154 114 199 c 0,93,94
 114 265 114 265 111 345.5 c 128,-1,95
 108 426 108 426 104 432 c 0,96,97
 100 441 100 441 106.5 446.5 c 128,-1,98
 113 452 113 452 113 458 c 0,99,100
 113 466 113 466 103 466 c 0,101,102
 90 466 90 466 88 456 c 0,103,104
 85 442 85 442 75 442 c 0,105,106
 66 442 66 442 56 451 c 2,107,-1
 45 461 l 1,108,-1
 53 473 l 2,109,110
 61 487 61 487 65 487 c 0,111,112
 67 487 67 487 72 488 c 128,-1,113
 77 489 77 489 89.5 491 c 128,-1,114
 102 493 102 493 117 495 c 0,0,1
EndSplineSet
Validated: 1
EndChar

StartChar: x
Encoding: 120 120 50
Width: 311
GlyphClass: 1
Flags: W
LayerCount: 2
Fore
SplineSet
104 102 m 0,0,1
 105 109 105 109 105 121 c 0,2,3
 105 134 105 134 102 134 c 128,-1,4
 99 134 99 134 93 113 c 0,5,6
 87 94 87 94 87 83 c 0,7,8
 87 73 87 73 91 64 c 0,9,10
 94 56 94 56 95 56 c 128,-1,11
 96 56 96 56 98 61 c 0,12,13
 100 65 100 65 104 102 c 0,0,1
46 491 m 0,14,15
 53 498 53 498 105 498 c 1,16,-1
 117 499 l 1,17,-1
 119 391 l 2,18,19
 121 282 121 282 124 276 c 0,20,21
 131 260 131 260 141 277 c 0,22,23
 145 283 145 283 169.5 298 c 128,-1,24
 194 313 194 313 211 320 c 0,25,26
 212 320 212 320 229 326.5 c 128,-1,27
 246 333 246 333 254 333 c 128,-1,28
 262 333 262 333 266 329 c 0,29,30
 267 328 267 328 267 327 c 0,31,32
 267 321 267 321 256 310.5 c 128,-1,33
 245 300 245 300 236 298 c 0,34,35
 211 293 211 293 180.5 273 c 128,-1,36
 150 253 150 253 139 234 c 0,37,38
 132 224 132 224 131 212 c 128,-1,39
 130 200 130 200 130 148 c 0,40,41
 130 77 130 77 121 50 c 0,42,43
 109 12 109 12 93 12 c 0,44,45
 85 12 85 12 70 25 c 0,46,47
 59 35 59 35 59 58 c 0,48,49
 59 124 59 124 95 205 c 0,50,51
 102 220 102 220 102 249 c 0,52,53
 102 274 102 274 101 293 c 0,54,55
 99 365 99 365 87 435 c 2,56,-1
 84 457 l 1,57,-1
 66 458 l 2,58,59
 59 458 59 458 55.5 458.5 c 128,-1,60
 52 459 52 459 50 461 c 128,-1,61
 48 463 48 463 47.5 465.5 c 128,-1,62
 47 468 47 468 46 474 c 0,63,64
 44 489 44 489 46 491 c 0,14,15
EndSplineSet
Validated: 1
EndChar

StartChar: y
Encoding: 121 121 51
Width: 468
GlyphClass: 1
Flags: W
LayerCount: 2
Fore
SplineSet
78 484 m 2,0,1
 90 484 90 484 97.5 486 c 128,-1,2
 105 488 105 488 109 488 c 0,3,4
 111 488 111 488 127 486 c 128,-1,5
 143 484 143 484 157 484 c 0,6,7
 161 484 161 484 167.5 484.5 c 128,-1,8
 174 485 174 485 177 485 c 0,9,10
 231 489 231 489 350 489 c 0,11,12
 386 489 386 489 389 488 c 0,13,14
 399 486 399 486 399 481 c 0,15,16
 399 470 399 470 326 467 c 0,17,18
 254 464 254 464 246 452 c 0,19,20
 243 448 243 448 239 240 c 0,21,22
 237 176 237 176 235.5 160 c 128,-1,23
 234 144 234 144 225 130 c 0,24,25
 220 120 220 120 220 117 c 0,26,27
 220 110 220 110 247 110 c 2,28,-1
 253 110 l 2,29,30
 289 110 289 110 358 123 c 0,31,32
 391 129 391 129 407 129 c 0,33,34
 424 129 424 129 424 124 c 0,35,36
 424 110 424 110 339 91 c 0,37,38
 311 84 311 84 156 84 c 0,39,40
 59 84 59 84 52 88 c 0,41,42
 45 93 45 93 45 106 c 0,43,44
 45 116 45 116 50 117 c 2,45,-1
 53 117 l 2,46,47
 58 117 58 117 86 113 c 0,48,49
 120 107 120 107 136 107 c 128,-1,50
 152 107 152 107 170 110.5 c 128,-1,51
 188 114 188 114 188 118 c 0,52,53
 188 120 188 120 198 130 c 0,54,55
 214 145 214 145 214 220 c 0,56,57
 214 251 214 251 218.5 331 c 128,-1,58
 223 411 223 411 223 422 c 2,59,-1
 225 465 l 1,60,-1
 170 463 l 2,61,62
 149 462 149 462 127 461 c 128,-1,63
 105 460 105 460 93 459.5 c 128,-1,64
 81 459 81 459 75 459 c 0,65,66
 60 459 60 459 55 465 c 0,67,68
 52 470 52 470 52 473 c 0,69,70
 52 484 52 484 75 484 c 2,71,-1
 78 484 l 2,0,1
EndSplineSet
Validated: 1
EndChar

StartChar: z
Encoding: 122 122 52
Width: 442
GlyphClass: 1
Flags: W
LayerCount: 2
Fore
SplineSet
132 488 m 0,0,1
 137 492 137 492 159 492 c 0,2,3
 188 492 188 492 208 486 c 0,4,5
 259 470 259 470 277 440 c 0,6,7
 298 408 298 408 304.5 391 c 128,-1,8
 311 374 311 374 313 345 c 0,9,10
 314 335 314 335 314 320 c 0,11,12
 314 299 314 299 307.5 289.5 c 128,-1,13
 301 280 301 280 281 268 c 0,14,15
 258 255 258 255 224 255 c 0,16,17
 208 255 208 255 208 260 c 0,18,19
 208 263 208 263 190 267 c 0,20,21
 176 270 176 270 155 279.5 c 128,-1,22
 134 289 134 289 127 295 c 0,23,24
 103 314 103 314 90 314 c 0,25,26
 84 314 84 314 77 301 c 0,27,28
 72 291 72 291 72 276 c 0,29,30
 72 258 72 258 73 243 c 0,31,32
 76 197 76 197 86 177 c 0,33,34
 102 145 102 145 148 119 c 0,35,36
 171 106 171 106 207 106 c 0,37,38
 226 106 226 106 251 111 c 0,39,40
 298 121 298 121 321 135 c 0,41,42
 369 163 369 163 380 224 c 0,43,44
 384 247 384 247 386 251 c 0,45,46
 388 254 388 254 389 254 c 0,47,48
 397 254 397 254 399 224 c 2,49,-1
 399 218 l 2,50,51
 399 196 399 196 391 174 c 128,-1,52
 383 152 383 152 372 142 c 0,53,54
 369 140 369 140 362.5 134 c 128,-1,55
 356 128 356 128 354 126 c 0,56,57
 305 84 305 84 214 84 c 0,58,59
 155 84 155 84 142 97 c 0,60,61
 134 103 134 103 124 104 c 0,62,63
 111 106 111 106 93.5 123 c 128,-1,64
 76 140 76 140 69 158 c 0,65,66
 66 166 66 166 60 175.5 c 128,-1,67
 54 185 54 185 52.5 193 c 128,-1,68
 51 201 51 201 49 222 c 0,69,70
 48 231 48 231 47 242.5 c 128,-1,71
 46 254 46 254 45 261 c 128,-1,72
 44 268 44 268 44 272 c 0,73,74
 44 284 44 284 54 309 c 128,-1,75
 64 334 64 334 70 338 c 0,76,77
 77 342 77 342 85 342 c 0,78,79
 104 342 104 342 138 315 c 0,80,81
 158 299 158 299 167.5 294 c 128,-1,82
 177 289 177 289 194 286 c 0,83,84
 214 282 214 282 214 280 c 0,85,86
 214 277 214 277 228 277 c 0,87,88
 250 277 250 277 262 282 c 0,89,90
 289 292 289 292 289 328 c 0,91,92
 289 339 289 339 288 345 c 0,93,94
 282 385 282 385 272 397 c 0,95,96
 268 401 268 401 265 412 c 0,97,98
 253 446 253 446 202 464 c 0,99,100
 192 469 192 469 163 473 c 0,101,102
 129 477 129 477 129 483 c 0,103,104
 129 485 129 485 132 488 c 0,0,1
EndSplineSet
Validated: 1
EndChar

StartChar: Ccaron
Encoding: 268 268 54
Width: 552
GlyphClass: 1
Flags: W
LayerCount: 2
Fore
SplineSet
225 730 m 1,0,-1
 232 730 l 1,1,-1
 263 730 l 2,2,3
 289 729 289 729 316 721.5 c 128,-1,4
 343 714 343 714 351 706 c 0,5,6
 358 700 358 700 365 695 c 0,7,8
 377 689 377 689 408 654.5 c 128,-1,9
 439 620 439 620 457 593 c 0,10,11
 490 542 490 542 496 492 c 0,12,13
 499 470 499 470 504 466 c 0,14,15
 507 461 507 461 505 459 c 0,16,17
 500 456 500 456 497 438 c 0,18,19
 494 411 494 411 477.5 363.5 c 128,-1,20
 461 316 461 316 448 297 c 0,21,22
 443 290 443 290 431 264 c 128,-1,23
 419 238 419 238 419 235 c 0,24,25
 419 229 419 229 393 196 c 128,-1,26
 367 163 367 163 349 146 c 0,27,28
 296 96 296 96 243 88 c 0,29,30
 231 86 231 86 229 86 c 0,31,32
 220 86 220 86 202 92 c 0,33,34
 188 97 188 97 180.5 101 c 128,-1,35
 173 105 173 105 160 109 c 0,36,37
 139 116 139 116 115.5 139.5 c 128,-1,38
 92 163 92 163 80 190 c 128,-1,39
 68 217 68 217 68 224 c 128,-1,40
 68 231 68 231 74 237 c 0,41,42
 81 244 81 244 84 240.5 c 128,-1,43
 87 237 87 237 87 229 c 0,44,45
 87 218 87 218 99 214 c 0,46,47
 105 212 105 212 123 177 c 0,48,49
 134 153 134 153 164 134 c 0,50,51
 172 130 172 130 177 126 c 128,-1,52
 182 122 182 122 184 120.5 c 128,-1,53
 186 119 186 119 190.5 117 c 128,-1,54
 195 115 195 115 205 112 c 0,55,56
 223 108 223 108 227 108 c 128,-1,57
 231 108 231 108 245 110 c 0,58,59
 275 114 275 114 303 134 c 128,-1,60
 331 154 331 154 374 203 c 0,61,62
 390 221 390 221 418 277 c 128,-1,63
 446 333 446 333 463 377 c 0,64,65
 480 419 480 419 480 461 c 0,66,67
 480 480 480 480 475 497 c 0,68,69
 470 509 470 509 470 520 c 0,70,71
 470 528 470 528 468 533.5 c 128,-1,72
 466 539 466 539 460.5 548 c 128,-1,73
 455 557 455 557 453 561 c 0,74,75
 447 574 447 574 436 587 c 0,76,77
 381 655 381 655 342 683 c 128,-1,78
 303 711 303 711 259 711 c 0,79,80
 253 711 253 711 237 709 c 0,81,82
 212 706 212 706 192 695 c 0,83,84
 162 679 162 679 148 656 c 0,85,86
 140 643 140 643 140 628 c 2,87,-1
 140 621 l 2,88,89
 140 602 140 602 129 590 c 0,90,91
 118 579 118 579 115 580 c 0,92,93
 108 582 108 582 108 680 c 0,94,95
 108 697 108 697 104 698 c 0,96,97
 99 699 99 699 99.5 704.5 c 128,-1,98
 100 710 100 710 105 712 c 0,99,100
 113 716 113 716 119 711.5 c 128,-1,101
 125 707 125 707 126 697 c 0,102,103
 129 680 129 680 133 679 c 0,104,105
 137 680 137 680 141 685 c 0,106,107
 162 714 162 714 225 730 c 1,0,-1
46 422 m 0,108,109
 46 425 46 425 45.5 429.5 c 128,-1,110
 45 434 45 434 45 435 c 0,111,112
 45 449 45 449 57 449 c 0,113,114
 61 449 61 449 66 441.5 c 128,-1,115
 71 434 71 434 71 428 c 0,116,117
 71 423 71 423 75 419 c 0,118,119
 81 416 81 416 228 416 c 0,120,121
 377 416 377 416 381 414 c 0,122,123
 382 414 382 414 382 413 c 0,124,125
 382 403 382 403 349 395 c 0,126,127
 321 391 321 391 238 391 c 0,128,129
 172 391 172 391 142 393 c 0,130,131
 127 394 127 394 107 394 c 0,132,133
 86 394 86 394 79.5 390.5 c 128,-1,134
 73 387 73 387 67 376 c 0,135,136
 63 368 63 368 56 363.5 c 128,-1,137
 49 359 49 359 45 363 c 0,138,139
 42 366 42 366 45 383 c 0,140,141
 47 393 47 393 47 405 c 0,142,143
 47 408 47 408 46.5 414 c 128,-1,144
 46 420 46 420 46 422 c 0,108,109
EndSplineSet
Validated: 1
EndChar

StartChar: ccaron
Encoding: 269 269 55
Width: 455
GlyphClass: 1
Flags: W
LayerCount: 2
Fore
SplineSet
308 150 m 0,0,1
 308 152 308 152 328 166.5 c 128,-1,2
 348 181 348 181 348 182 c 0,3,4
 348 185 348 185 356 195 c 0,5,6
 361 200 361 200 374 230 c 0,7,8
 384 254 384 254 384 280 c 2,9,-1
 384 300 l 2,10,11
 383 370 383 370 362.5 413.5 c 128,-1,12
 342 457 342 457 297 484 c 0,13,14
 284 492 284 492 261 492 c 0,15,16
 244 492 244 492 235 488 c 0,17,18
 226 485 226 485 201.5 460 c 128,-1,19
 177 435 177 435 167 420 c 0,20,21
 154 399 154 399 140 399 c 1,22,-1
 138 400 l 1,23,-1
 136 400 l 2,24,25
 130 402 130 402 130 445 c 128,-1,26
 130 488 130 488 133 490 c 128,-1,27
 136 492 136 492 138.5 490 c 128,-1,28
 141 488 141 488 143 482.5 c 128,-1,29
 145 477 145 477 146 469 c 0,30,31
 149 449 149 449 154 449 c 128,-1,32
 159 449 159 449 183 475 c 0,33,34
 205 498 205 498 215 504 c 128,-1,35
 225 510 225 510 250 515 c 0,36,37
 260 517 260 517 264 517 c 0,38,39
 274 517 274 517 297 511 c 0,40,41
 313 507 313 507 321 502.5 c 128,-1,42
 329 498 329 498 345 482 c 0,43,44
 368 460 368 460 377.5 444 c 128,-1,45
 387 428 387 428 399 392 c 0,46,47
 412 353 412 353 412 307 c 0,48,49
 412 258 412 258 402 234 c 0,50,51
 378 171 378 171 325 133 c 0,52,53
 271 93 271 93 248 91 c 0,54,55
 233 89 233 89 219 86 c 0,56,57
 199 82 199 82 175 82 c 0,58,59
 145 82 145 82 125 87 c 128,-1,60
 105 92 105 92 80 115 c 128,-1,61
 55 138 55 138 55 144 c 0,62,63
 55 152 55 152 50 162 c 0,64,65
 42 177 42 177 51 184 c 0,66,67
 55 188 55 188 60 188 c 0,68,69
 66 188 66 188 75 169 c 0,70,71
 83 154 83 154 96 137.5 c 128,-1,72
 109 121 109 121 114 121 c 0,73,74
 118 121 118 121 132 114 c 0,75,76
 142 108 142 108 159 108 c 128,-1,77
 176 108 176 108 190 109 c 0,78,79
 232 112 232 112 254 119 c 0,80,81
 271 126 271 126 289.5 136.5 c 128,-1,82
 308 147 308 147 308 150 c 0,0,1
93 295 m 2,83,-1
 92 328 l 1,84,-1
 103 327 l 2,85,86
 114 325 114 325 117 319 c 0,87,88
 121 310 121 310 148 308 c 0,89,90
 174 306 174 306 179 306 c 0,91,92
 193 306 193 306 235 309 c 2,93,-1
 270 311 l 1,94,-1
 269 303 l 2,95,96
 266 285 266 285 184 284 c 0,97,98
 141 284 141 284 129 280 c 0,99,100
 123 278 123 278 119 265 c 0,101,102
 115 253 115 253 107 253 c 128,-1,103
 99 253 99 253 96.5 259 c 128,-1,104
 94 265 94 265 93 295 c 2,83,-1
EndSplineSet
Validated: 1
EndChar

StartChar: Scaron
Encoding: 352 352 56
Width: 477
GlyphClass: 1
Flags: W
LayerCount: 2
Fore
SplineSet
374 562 m 0,0,1
 364 570 364 570 349 570 c 0,2,3
 339 570 339 570 306 563 c 0,4,5
 265 553 265 553 231 534 c 0,6,7
 190 509 190 509 160 471 c 2,8,-1
 141 447 l 1,9,-1
 141 422 l 2,10,11
 141 408 141 408 143 399.5 c 128,-1,12
 145 391 145 391 146 389.5 c 128,-1,13
 147 388 147 388 154 378 c 0,14,15
 170 347 170 347 194 326 c 0,16,17
 204 316 204 316 223.5 307 c 128,-1,18
 243 298 243 298 254 298 c 0,19,20
 264 298 264 298 280 294 c 0,21,22
 283 293 283 293 289 293 c 0,23,24
 313 293 313 293 352 322 c 0,25,26
 371 337 371 337 379 349 c 128,-1,27
 387 361 387 361 396 390 c 0,28,29
 412 442 412 442 412 457 c 0,30,31
 412 464 412 464 407 491 c 0,32,33
 396 544 396 544 374 562 c 0,0,1
206 738 m 0,34,35
 230 740 230 740 247 740 c 0,36,37
 307 740 307 740 314 733 c 0,38,39
 319 728 319 728 316 725 c 0,40,41
 309 718 309 718 268 718 c 2,42,-1
 263 718 l 1,43,-1
 259 718 l 2,44,45
 240 718 240 718 227 691 c 0,46,47
 219 675 219 675 204 655 c 0,48,49
 193 642 193 642 176 604 c 128,-1,50
 159 566 159 566 151 537 c 128,-1,51
 143 508 143 508 143 500 c 0,52,53
 143 493 143 493 146 493 c 128,-1,54
 149 493 149 493 159 503 c 0,55,56
 186 532 186 532 197 541 c 0,57,58
 205 547 205 547 229.5 559.5 c 128,-1,59
 254 572 254 572 264 574 c 0,60,61
 315 590 315 590 357 590 c 0,62,63
 373 590 373 590 380 586 c 0,64,65
 403 574 403 574 417.5 540.5 c 128,-1,66
 432 507 432 507 432 467 c 0,67,68
 432 447 432 447 430 437 c 0,69,70
 426 408 426 408 423 403 c 0,71,72
 417 391 417 391 419 376 c 0,73,74
 419 373 419 373 426 371 c 0,75,76
 431 369 431 369 431 367 c 0,77,78
 431 361 431 361 412 341 c 0,79,80
 387 315 387 315 383 295 c 0,81,82
 374 252 374 252 325 186 c 0,83,84
 302 154 302 154 235 111 c 2,85,-1
 198 87 l 1,86,-1
 148 88 l 2,87,88
 103 89 103 89 89 93.5 c 128,-1,89
 75 98 75 98 59 118 c 2,90,-1
 45 136 l 1,91,-1
 45 181 l 2,92,93
 45 256 45 256 57 256 c 0,94,95
 61 256 61 256 67 231 c 0,96,97
 69 221 69 221 73 208.5 c 128,-1,98
 77 196 77 196 78 188 c 128,-1,99
 79 180 79 180 79 165 c 0,100,101
 79 141 79 141 82.5 134.5 c 128,-1,102
 86 128 86 128 105 119 c 0,103,104
 128 108 128 108 151 108 c 0,105,106
 189 109 189 109 229 133 c 0,107,108
 247 141 247 141 283 175 c 0,109,110
 304 195 304 195 317 212.5 c 128,-1,111
 330 230 330 230 347 264 c 0,112,113
 359 290 359 290 359 296 c 0,114,115
 359 299 359 299 357 299 c 0,116,117
 352 299 352 299 344 291 c 0,118,119
 332 281 332 281 314 274 c 0,120,121
 302 269 302 269 288 269 c 0,122,123
 285 269 285 269 257 271 c 0,124,125
 219 274 219 274 211 279 c 0,126,127
 204 284 204 284 199 284 c 0,128,129
 193 284 193 284 189 292 c 0,130,131
 186 298 186 298 168 320 c 0,132,133
 132 362 132 362 123 390 c 0,134,135
 116 411 116 411 116 427 c 0,136,137
 116 440 116 440 117 449 c 0,138,139
 120 518 120 518 146 582 c 0,140,141
 149 590 149 590 154.5 603 c 128,-1,142
 160 616 160 616 161.5 620 c 128,-1,143
 163 624 163 624 166.5 632 c 128,-1,144
 170 640 170 640 174 646.5 c 128,-1,145
 178 653 178 653 184 662 c 128,-1,146
 190 671 190 671 199 685 c 0,147,148
 213 706 213 706 213 710 c 128,-1,149
 213 714 213 714 189 717 c 0,150,151
 164 720 164 720 164 727 c 128,-1,152
 164 734 164 734 206 738 c 0,34,35
EndSplineSet
Validated: 1
EndChar

StartChar: scaron
Encoding: 353 353 57
Width: 319
GlyphClass: 1
Flags: W
LayerCount: 2
Fore
SplineSet
254 303 m 0,0,1
 253 324 253 324 241 348 c 128,-1,2
 229 372 229 372 211 372 c 0,3,4
 201 372 201 372 188 362 c 0,5,6
 184 359 184 359 173.5 353.5 c 128,-1,7
 163 348 163 348 156 341 c 0,8,9
 144 329 144 329 143 309 c 0,10,11
 142 303 142 303 142 293 c 0,12,13
 142 269 142 269 161 250 c 0,14,15
 176 234 176 234 184 234 c 0,16,17
 185 234 185 234 187 234.5 c 128,-1,18
 189 235 189 235 191 235 c 0,19,20
 205 236 205 236 226 249 c 128,-1,21
 247 262 247 262 251 271 c 0,22,23
 254 278 254 278 254 303 c 0,0,1
117 502 m 0,24,25
 118 502 118 502 123.5 502.5 c 128,-1,26
 129 503 129 503 133 503 c 0,27,28
 136 503 136 503 144.5 502.5 c 128,-1,29
 153 502 153 502 157 502 c 0,30,31
 191 500 191 500 219 500 c 0,32,33
 242 500 242 500 246 499 c 128,-1,34
 250 498 250 498 250 492 c 0,35,36
 250 485 250 485 244.5 483.5 c 128,-1,37
 239 482 239 482 200 477 c 0,38,39
 179 474 179 474 175.5 472.5 c 128,-1,40
 172 471 172 471 173 464 c 0,41,42
 173 445 173 445 156 380 c 0,43,44
 152 359 152 359 168 371 c 0,45,46
 195 390 195 390 218 390 c 0,47,48
 248 390 248 390 260 365 c 0,49,50
 275 332 275 332 275 289 c 0,51,52
 275 276 275 276 274 270 c 0,53,54
 267 219 267 219 253.5 188 c 128,-1,55
 240 157 240 157 212 128 c 0,56,57
 189 105 189 105 173.5 98.5 c 128,-1,58
 158 92 158 92 123 92 c 0,59,60
 100 92 100 92 86.5 100.5 c 128,-1,61
 73 109 73 109 60 132 c 128,-1,62
 47 155 47 155 46 180 c 0,63,64
 45 187 45 187 45 197 c 0,65,66
 45 209 45 209 51 221 c 0,67,68
 58 233 58 233 58 243 c 0,69,70
 58 250 58 250 61 251 c 0,71,72
 64 251 64 251 67 241 c 0,73,74
 69 230 69 230 74 227 c 0,75,76
 78 224 78 224 78 212 c 0,77,78
 78 199 78 199 74 194 c 0,79,80
 73 193 73 193 73 189 c 0,81,82
 73 184 73 184 77.5 172.5 c 128,-1,83
 82 161 82 161 82 158 c 0,84,85
 82 151 82 151 89 142 c 0,86,87
 95 135 95 135 95 131 c 128,-1,88
 95 127 95 127 104 120 c 0,89,90
 115 112 115 112 129 112 c 0,91,92
 158 112 158 112 190.5 141.5 c 128,-1,93
 223 171 223 171 231 194 c 0,94,95
 231 195 231 195 235 204.5 c 128,-1,96
 239 214 239 214 242.5 224 c 128,-1,97
 246 234 246 234 246 238 c 0,98,99
 246 241 246 241 244 241 c 0,100,101
 241 241 241 241 229 229 c 128,-1,102
 217 217 217 217 203 217 c 2,103,-1
 193 217 l 2,104,105
 149 218 149 218 133 247 c 0,106,107
 124 264 124 264 124 301 c 0,108,109
 124 343 124 343 131 366 c 0,110,111
 137 385 137 385 153 456 c 0,112,113
 155 466 155 466 155 467 c 0,114,115
 155 475 155 475 148 475 c 0,116,117
 146 475 146 475 138 473 c 0,118,119
 128 470 128 470 122 470 c 0,120,121
 113 470 113 470 106 484 c 0,122,123
 102 492 102 492 102 494.5 c 128,-1,124
 102 497 102 497 104.5 498.5 c 128,-1,125
 107 500 107 500 117 502 c 0,24,25
EndSplineSet
Validated: 1
EndChar

StartChar: Tcaron
Encoding: 356 356 58
Width: 506
GlyphClass: 1
Flags: W
LayerCount: 2
Fore
SplineSet
322 706 m 0,0,1
 308 708 308 708 303 708 c 0,2,3
 296 708 296 708 253 698 c 0,4,5
 234 693 234 693 194.5 664.5 c 128,-1,6
 155 636 155 636 155 628 c 0,7,8
 155 625 155 625 139 605 c 0,9,10
 130 593 130 593 123.5 583.5 c 128,-1,11
 117 574 117 574 110.5 561.5 c 128,-1,12
 104 549 104 549 97 539 c 0,13,14
 72 502 72 502 72 447 c 2,15,-1
 72 441 l 2,16,17
 73 402 73 402 86.5 387.5 c 128,-1,18
 100 373 100 373 138 369 c 0,19,20
 153 367 153 367 205 367 c 0,21,22
 330 367 330 367 342 374 c 0,23,24
 349 379 349 379 360.5 417 c 128,-1,25
 372 455 372 455 376 487 c 0,26,27
 387 589 387 589 387 607 c 0,28,29
 387 628 387 628 376 652 c 0,30,31
 366 672 366 672 350 688 c 128,-1,32
 334 704 334 704 322 706 c 0,0,1
260 726 m 0,33,34
 281 732 281 732 306 732 c 0,35,36
 328 732 328 732 345 727 c 0,37,38
 357 723 357 723 363 717.5 c 128,-1,39
 369 712 369 712 381 693 c 0,40,41
 409 650 409 650 409 594 c 0,42,43
 409 563 409 563 405 524 c 0,44,45
 399 468 399 468 381 412 c 0,46,47
 373 385 373 385 373 379 c 128,-1,48
 373 373 373 373 379 373 c 0,49,50
 384 373 384 373 387 374 c 0,51,52
 420 379 420 379 434 379 c 0,53,54
 461 379 461 379 461 365 c 128,-1,55
 461 351 461 351 423 351 c 0,56,57
 378 351 378 351 364 341.5 c 128,-1,58
 350 332 350 332 341 294 c 0,59,60
 331 257 331 257 322 234 c 0,61,62
 288 144 288 144 288 116 c 0,63,64
 288 111 288 111 289 110 c 0,65,66
 297 99 297 99 307 99 c 0,67,68
 315 99 315 99 328 103 c 0,69,70
 360 112 360 112 374 112 c 0,71,72
 386 112 386 112 386 106 c 0,73,74
 386 103 386 103 381 98 c 0,75,76
 372 87 372 87 350 79.5 c 128,-1,77
 328 72 328 72 309 72 c 0,78,79
 298 72 298 72 291 75 c 0,80,81
 267 85 267 85 264 120 c 2,82,-1
 264 130 l 2,83,84
 264 145 264 145 273 164 c 0,85,86
 283 184 283 184 283 190 c 128,-1,87
 283 196 283 196 295 225 c 0,88,89
 323 296 323 296 327 334 c 0,90,91
 328 340 328 340 325 341.5 c 128,-1,92
 322 343 322 343 310 344 c 0,93,94
 294 346 294 346 283 341 c 0,95,96
 265 335 265 335 212 335 c 0,97,98
 175 335 175 335 171 339 c 0,99,100
 164 344 164 344 141 344 c 0,101,102
 82 344 82 344 52 389 c 0,103,104
 43 402 43 402 43 419 c 2,105,-1
 43 428 l 2,106,107
 45 504 45 504 103 594 c 0,108,109
 121 621 121 621 121 622 c 0,110,111
 121 625 121 625 141 647 c 0,112,113
 164 673 164 673 197 695.5 c 128,-1,114
 230 718 230 718 260 726 c 0,33,34
EndSplineSet
Validated: 1
EndChar

StartChar: tcaron
Encoding: 357 357 59
Width: 469
GlyphClass: 1
Flags: W
LayerCount: 2
Fore
SplineSet
307 465 m 0,0,1
 291 467 291 467 289 468 c 2,2,-1
 285 468 l 2,3,4
 270 468 270 468 245 455.5 c 128,-1,5
 220 443 220 443 204 427 c 0,6,7
 190 413 190 413 182 413 c 128,-1,8
 174 413 174 413 163 402 c 0,9,10
 161 400 161 400 149 389 c 128,-1,11
 137 378 137 378 131 373 c 0,12,13
 82 331 82 331 75 265 c 0,14,15
 73 241 73 241 73 238 c 0,16,17
 73 219 73 219 91 212 c 0,18,19
 106 207 106 207 127 207 c 0,20,21
 156 207 156 207 268 221 c 0,22,23
 291 224 291 224 298.5 229.5 c 128,-1,24
 306 235 306 235 311 254 c 128,-1,25
 316 273 316 273 325 293 c 0,26,27
 346 340 346 340 346 378 c 0,28,29
 346 380 346 380 345.5 383 c 128,-1,30
 345 386 345 386 345 387 c 0,31,32
 344 391 344 391 343 403 c 128,-1,33
 342 415 342 415 341 420 c 0,34,35
 339 437 339 437 329.5 450.5 c 128,-1,36
 320 464 320 464 307 465 c 0,0,1
234 483 m 0,37,38
 263 495 263 495 279 495 c 0,39,40
 290 495 290 495 308 492 c 0,41,42
 331 488 331 488 344 478.5 c 128,-1,43
 357 469 357 469 367 447 c 2,44,-1
 378 424 l 1,45,-1
 375 384 l 2,46,47
 373 354 373 354 368.5 336 c 128,-1,48
 364 318 364 318 349 281 c 0,49,50
 337 252 337 252 337 239 c 0,51,52
 337 232 337 232 345.5 229.5 c 128,-1,53
 354 227 354 227 380 227 c 0,54,55
 425 227 425 227 425 212 c 0,56,57
 425 202 425 202 373 201 c 0,58,59
 363 201 363 201 348 200 c 2,60,-1
 333 200 l 2,61,62
 314 200 314 200 309 164 c 0,63,64
 308 155 308 155 303.5 143 c 128,-1,65
 299 131 299 131 293 117.5 c 128,-1,66
 287 104 287 104 285 99 c 0,67,68
 285 98 285 98 275 71 c 0,69,70
 271 59 271 59 264.5 38 c 128,-1,71
 258 17 258 17 251.5 -0.5 c 128,-1,72
 245 -18 245 -18 237 -35 c 0,73,74
 223 -65 223 -65 223 -74 c 0,75,76
 223 -84 223 -84 234 -89 c 0,77,78
 242 -93 242 -93 257 -93 c 0,79,80
 277 -93 277 -93 285 -86 c 128,-1,81
 293 -79 293 -79 300 -79 c 128,-1,82
 307 -79 307 -79 307 -87 c 0,83,84
 307 -94 307 -94 305 -98 c 0,85,86
 303 -104 303 -104 290 -111.5 c 128,-1,87
 277 -119 277 -119 265 -120 c 2,88,-1
 258 -120 l 2,89,90
 227 -120 227 -120 208 -108 c 0,91,92
 201 -103 201 -103 195 -91.5 c 128,-1,93
 189 -80 189 -80 189 -71 c 128,-1,94
 189 -62 189 -62 210 -22 c 0,95,96
 236 33 236 33 239 42 c 0,97,98
 272 140 272 140 279 147 c 0,99,100
 282 150 282 150 282 175 c 2,101,-1
 282 199 l 1,102,-1
 256 197 l 2,103,104
 227 195 227 195 211 192 c 0,105,106
 157 182 157 182 133 182 c 0,107,108
 124 182 124 182 100 186 c 0,109,110
 65 195 65 195 61 198 c 0,111,112
 44 211 44 211 44 246 c 0,113,114
 44 306 44 306 82 357 c 0,115,116
 98 380 98 380 101 386 c 0,117,118
 105 395 105 395 134.5 419.5 c 128,-1,119
 164 444 164 444 170 444 c 0,120,121
 171 444 171 444 171 443 c 128,-1,122
 171 442 171 442 177 445.5 c 128,-1,123
 183 449 183 449 190 455 c 128,-1,124
 197 461 197 461 200 465 c 0,125,126
 205 472 205 472 234 483 c 0,37,38
EndSplineSet
Validated: 1
EndChar

StartChar: abaz
Encoding: 65538 -1 60
Width: 893
GlyphClass: 1
Flags: W
LayerCount: 2
Fore
SplineSet
402 491 m 256,0,1
 402 269 402 269 357 179 c 128,-1,2
 312 89 312 89 201 89 c 256,3,4
 90 89 90 89 45 179 c 128,-1,5
 0 269 0 269 0 491 c 256,6,7
 0 713 0 713 45 803 c 128,-1,8
 90 893 90 893 201 893 c 256,9,10
 312 893 312 893 357 803 c 128,-1,11
 402 713 402 713 402 491 c 256,0,1
287 854 m 1,12,13
 276 841 276 841 271 830.5 c 128,-1,14
 266 820 266 820 253 827 c 0,15,16
 232 840 232 840 218 854 c 128,-1,17
 204 868 204 868 186 833 c 256,18,19
 168 798 168 798 166 782 c 128,-1,20
 164 766 164 766 186 767 c 0,21,22
 209 769 209 769 216.5 795.5 c 128,-1,23
 224 822 224 822 235 800 c 0,24,25
 246 777 246 777 244.5 768 c 128,-1,26
 243 759 243 759 217 752 c 0,27,28
 190 745 190 745 176 741 c 128,-1,29
 162 737 162 737 147 737 c 0,30,31
 131 737 131 737 129.5 728 c 128,-1,32
 128 719 128 719 138 699 c 0,33,34
 149 679 149 679 140.5 678.5 c 128,-1,35
 132 678 132 678 114 659 c 0,36,37
 97 639 97 639 108 635 c 128,-1,38
 119 631 119 631 133 614 c 0,39,40
 148 597 148 597 153.5 607.5 c 128,-1,41
 159 618 159 618 165 646 c 0,42,43
 172 674 172 674 185.5 690.5 c 128,-1,44
 199 707 199 707 210 703 c 256,45,46
 221 699 221 699 221 693.5 c 128,-1,47
 221 688 221 688 219 668 c 0,48,49
 217 649 217 649 222 651.5 c 128,-1,50
 227 654 227 654 228 677 c 0,51,52
 229 699 229 699 235 707.5 c 128,-1,53
 241 716 241 716 251 717 c 0,54,55
 261 719 261 719 265 705 c 128,-1,56
 269 691 269 691 258 677 c 256,57,58
 247 663 247 663 241.5 657.5 c 128,-1,59
 236 652 236 652 250 645 c 256,60,61
 264 638 264 638 268.5 619.5 c 128,-1,62
 273 601 273 601 257 586 c 256,63,64
 241 571 241 571 227 566 c 128,-1,65
 213 561 213 561 201 573 c 0,66,67
 188 586 188 586 174 595 c 128,-1,68
 160 604 160 604 152 594 c 0,69,70
 144 585 144 585 142 580 c 128,-1,71
 140 575 140 575 131 568 c 256,72,73
 122 561 122 561 103.5 544 c 128,-1,74
 85 527 85 527 84 484 c 0,75,76
 84 441 84 441 83.5 416.5 c 128,-1,77
 83 392 83 392 98 391 c 0,78,79
 112 389 112 389 130 399 c 128,-1,80
 148 409 148 409 159 427 c 256,81,82
 170 445 170 445 178 443 c 128,-1,83
 186 441 186 441 190 420 c 0,84,85
 195 399 195 399 193.5 393 c 128,-1,86
 192 387 192 387 187 353 c 0,87,88
 182 320 182 320 186 311.5 c 128,-1,89
 190 303 190 303 198 274 c 0,90,91
 206 244 206 244 209 235.5 c 128,-1,92
 212 227 212 227 212 207 c 0,93,94
 212 186 212 186 217.5 175.5 c 128,-1,95
 223 165 223 165 240 200 c 0,96,97
 257 234 257 234 264.5 268.5 c 128,-1,98
 272 303 272 303 279 328 c 256,99,100
 286 353 286 353 289 381 c 128,-1,101
 292 409 292 409 300 420 c 256,102,103
 308 431 308 431 315 444.5 c 128,-1,104
 322 458 322 458 312 454 c 0,105,106
 302 449 302 449 292.5 452 c 128,-1,107
 283 455 283 455 278 483 c 256,108,109
 273 511 273 511 262.5 537.5 c 128,-1,110
 252 564 252 564 262 569 c 0,111,112
 271 575 271 575 277 556.5 c 128,-1,113
 283 538 283 538 287 521 c 256,114,115
 291 504 291 504 293.5 493.5 c 128,-1,116
 296 483 296 483 305 477 c 0,117,118
 313 472 313 472 322 493.5 c 128,-1,119
 331 515 331 515 337 521 c 256,120,121
 343 527 343 527 340.5 540.5 c 128,-1,122
 338 554 338 554 327 551 c 256,123,124
 316 548 316 548 308.5 549.5 c 128,-1,125
 301 551 301 551 301 565 c 256,126,127
 301 579 301 579 308 588 c 128,-1,128
 315 597 315 597 327 593 c 0,129,130
 338 589 338 589 342 585.5 c 128,-1,131
 346 582 346 582 353 565 c 256,132,133
 360 548 360 548 367 533 c 128,-1,134
 374 518 374 518 380 498 c 0,135,136
 385 479 385 479 387 477.5 c 128,-1,137
 389 476 389 476 392 511 c 0,138,139
 394 534 394 534 395 540.5 c 128,-1,140
 396 547 396 547 399 560 c 1,141,142
 387 690 387 690 366 744.5 c 128,-1,143
 345 799 345 799 287 854 c 1,12,13
598 301 m 2,144,145
 595 312 595 312 595 319 c 128,-1,146
 595 326 595 326 599 337 c 2,147,-1
 648 485 l 1,148,-1
 581 600 l 2,149,150
 575 610 575 610 574 619 c 128,-1,151
 573 628 573 628 577 642 c 2,152,-1
 625 802 l 1,153,154
 607 832 607 832 595 840.5 c 128,-1,155
 583 849 583 849 558 849 c 0,156,157
 497 849 497 849 472.5 800 c 128,-1,158
 448 751 448 751 448 629 c 0,159,160
 448 612 448 612 448.5 603.5 c 128,-1,161
 449 595 449 595 451 579 c 0,162,163
 466 389 466 389 519 288.5 c 128,-1,164
 572 188 572 188 647 133 c 0,165,166
 648 133 648 133 648 133.5 c 128,-1,167
 648 134 648 134 648 134 c 1,168,-1
 598 301 l 2,144,145
737 849 m 0,169,170
 706 849 706 849 692 836 c 128,-1,171
 678 823 678 823 658 783 c 1,172,-1
 613 632 l 1,173,-1
 681 517 l 2,174,175
 687 506 687 506 687.5 496.5 c 128,-1,176
 688 487 688 487 684 473 c 2,177,-1
 632 317 l 1,178,-1
 679 162 l 1,179,180
 750 241 750 241 790.5 327.5 c 128,-1,181
 831 414 831 414 844 579 c 0,182,183
 846 595 846 595 846.5 603.5 c 128,-1,184
 847 612 847 612 847 629 c 0,185,186
 847 750 847 750 822.5 799.5 c 128,-1,187
 798 849 798 849 737 849 c 0,169,170
EndSplineSet
Validated: 41
Ligature2: "'liga' Standard Ligatures in Latin lookup 0 subtable" a b a z
EndChar

StartChar: abun
Encoding: 65539 -1 61
Width: 893
GlyphClass: 1
Flags: W
LayerCount: 2
Fore
SplineSet
354 888 m 0,0,1
 335 897 335 897 312.5 896 c 128,-1,2
 290 895 290 895 279 871 c 1,3,4
 250 871 250 871 233 850 c 128,-1,5
 216 829 216 829 211 773 c 0,6,7
 207 718 207 718 212 705.5 c 128,-1,8
 217 693 217 693 220 651 c 0,9,10
 224 605 224 605 232.5 597.5 c 128,-1,11
 241 590 241 590 254 583 c 1,12,13
 273 543 273 543 283 544 c 128,-1,14
 293 545 293 545 327 545 c 256,15,16
 361 545 361 545 373 554.5 c 128,-1,17
 385 564 385 564 402 599 c 1,18,-1
 402 842 l 1,19,20
 390 862 390 862 382 869.5 c 128,-1,21
 374 877 374 877 354 888 c 0,0,1
291 575 m 1,22,-1
 347 575 l 1,23,-1
 347 397 l 1,24,-1
 291 397 l 1,25,-1
 291 575 l 1,22,-1
393 730 m 0,26,27
 387 745 387 745 383 750.5 c 128,-1,28
 379 756 379 756 361 760 c 1,29,30
 368 755 368 755 371 746.5 c 128,-1,31
 374 738 374 738 375 729 c 0,32,33
 376 719 376 719 376.5 715.5 c 128,-1,34
 377 712 377 712 371 721 c 0,35,36
 350 759 350 759 338.5 751.5 c 128,-1,37
 327 744 327 744 304 767 c 0,38,39
 288 783 288 783 285.5 792 c 128,-1,40
 283 801 283 801 283 801 c 257,41,42
 283 801 283 801 282 789 c 128,-1,43
 281 777 281 777 257 753 c 0,44,45
 250 746 250 746 245.5 738 c 128,-1,46
 241 730 241 730 237 707 c 0,47,48
 233 691 233 691 233.5 683.5 c 128,-1,49
 234 676 234 676 234 651 c 0,50,51
 234 630 234 630 235.5 620.5 c 128,-1,52
 237 611 237 611 243 593 c 0,53,54
 256 547 256 547 270.5 531 c 128,-1,55
 285 515 285 515 319 515 c 0,56,57
 348 515 348 515 360.5 527 c 128,-1,58
 373 539 373 539 389 574 c 0,59,60
 395 589 395 589 397 597 c 128,-1,61
 399 605 399 605 402 623 c 2,62,-1
 402 697 l 2,63,64
 400 712 400 712 399 716.5 c 128,-1,65
 398 721 398 721 393 730 c 0,26,27
357 575 m 1,66,-1
 281 575 l 1,67,68
 281 575 281 575 286 560 c 128,-1,69
 291 545 291 545 319 545 c 256,70,71
 347 545 347 545 352 560 c 128,-1,72
 357 575 357 575 357 575 c 1,66,-1
328 613 m 2,73,-1
 310 613 l 2,74,75
 307 613 307 613 306 614.5 c 128,-1,76
 305 616 305 616 305 621 c 0,77,78
 305 625 305 625 306 626.5 c 128,-1,79
 307 628 307 628 310 628 c 2,80,-1
 328 628 l 2,81,82
 331 628 331 628 332 626.5 c 128,-1,83
 333 625 333 625 333 621 c 0,84,85
 333 616 333 616 332 614.5 c 128,-1,86
 331 613 331 613 328 613 c 2,73,-1
281 666 m 0,87,88
 276 666 276 666 274 669 c 128,-1,89
 272 672 272 672 272 681 c 2,90,-1
 272 696 l 2,91,92
 272 704 272 704 274 707.5 c 128,-1,93
 276 711 276 711 281 711 c 0,94,95
 287 711 287 711 289 707.5 c 128,-1,96
 291 704 291 704 291 696 c 2,97,-1
 291 681 l 2,98,99
 291 672 291 672 289 669 c 128,-1,100
 287 666 287 666 281 666 c 0,87,88
357 666 m 0,101,102
 351 666 351 666 349 669 c 128,-1,103
 347 672 347 672 347 681 c 2,104,-1
 347 696 l 2,105,106
 347 704 347 704 349 707.5 c 128,-1,107
 351 711 351 711 357 711 c 0,108,109
 362 711 362 711 364 707.5 c 128,-1,110
 366 704 366 704 366 696 c 2,111,-1
 366 681 l 2,112,113
 366 672 366 672 364 669 c 128,-1,114
 362 666 362 666 357 666 c 0,101,102
234 500 m 2,115,-1
 290 500 l 1,116,117
 290 500 290 500 291 457.5 c 128,-1,118
 292 415 292 415 318 415 c 0,119,120
 343 415 343 415 345 457.5 c 128,-1,121
 347 500 347 500 347 500 c 1,122,-1
 402 500 l 1,123,-1
 402 250 l 1,124,-1
 201 250 l 1,125,-1
 201 447 l 2,126,127
 201 482 201 482 206.5 491 c 128,-1,128
 212 500 212 500 234 500 c 2,115,-1
234 429 m 1,129,-1
 246 429 l 1,130,-1
 246 250 l 1,131,-1
 234 250 l 1,132,-1
 234 429 l 1,129,-1
92 545 m 0,133,134
 158 545 158 545 174 580.5 c 128,-1,135
 190 616 190 616 192 736 c 0,136,137
 194 808 194 808 180.5 835.5 c 128,-1,138
 167 863 167 863 120 888 c 0,139,140
 101 897 101 897 78.5 896 c 128,-1,141
 56 895 56 895 45 872 c 1,142,143
 30 871 30 871 21.5 865 c 128,-1,144
 13 859 13 859 0 840 c 1,145,-1
 0 601 l 1,146,147
 6 592 6 592 9.5 589 c 128,-1,148
 13 586 13 586 20 583 c 1,149,150
 38 543 38 543 48.5 544 c 128,-1,151
 59 545 59 545 92 545 c 0,133,134
55 575 m 1,152,-1
 111 575 l 1,153,-1
 111 397 l 1,154,-1
 55 397 l 1,155,-1
 55 575 l 1,152,-1
157 730 m 0,156,157
 151 745 151 745 147 750.5 c 128,-1,158
 143 756 143 756 125 760 c 1,159,160
 132 755 132 755 135 746.5 c 128,-1,161
 138 738 138 738 139 729 c 0,162,163
 140 719 140 719 140.5 715.5 c 128,-1,164
 141 712 141 712 135 721 c 0,165,166
 114 759 114 759 102.5 751.5 c 128,-1,167
 91 744 91 744 68 767 c 0,168,169
 52 783 52 783 49.5 792 c 128,-1,170
 47 801 47 801 47 801 c 257,171,172
 47 801 47 801 46 789 c 128,-1,173
 45 777 45 777 21 753 c 0,174,175
 14 746 14 746 9.5 738 c 128,-1,176
 5 730 5 730 1 707 c 0,177,178
 0 706 0 706 0 705.5 c 128,-1,179
 0 705 0 705 0 704 c 2,180,-1
 0 623 l 2,181,182
 1 613 1 613 2.5 608 c 128,-1,183
 4 603 4 603 6 593 c 0,184,185
 20 547 20 547 34.5 531 c 128,-1,186
 49 515 49 515 83 515 c 0,187,188
 112 515 112 515 124.5 527 c 128,-1,189
 137 539 137 539 153 574 c 0,190,191
 162 596 162 596 165 609.5 c 128,-1,192
 168 623 168 623 168 651 c 0,193,194
 168 696 168 696 166.5 705 c 128,-1,195
 165 714 165 714 157 730 c 0,156,157
121 575 m 1,196,-1
 45 575 l 1,197,198
 45 575 45 575 50 560 c 128,-1,199
 55 545 55 545 83 545 c 256,200,201
 111 545 111 545 116 560 c 128,-1,202
 121 575 121 575 121 575 c 1,196,-1
92 613 m 2,203,-1
 73 613 l 2,204,205
 71 613 71 613 70 614.5 c 128,-1,206
 69 616 69 616 69 621 c 0,207,208
 69 625 69 625 70 626.5 c 128,-1,209
 71 628 71 628 73 628 c 2,210,-1
 92 628 l 2,211,212
 95 628 95 628 96 626.5 c 128,-1,213
 97 625 97 625 97 621 c 0,214,215
 97 616 97 616 96 614.5 c 128,-1,216
 95 613 95 613 92 613 c 2,203,-1
45 666 m 256,217,218
 40 666 40 666 38 669 c 128,-1,219
 36 672 36 672 36 681 c 2,220,-1
 36 696 l 2,221,222
 36 704 36 704 38 707.5 c 128,-1,223
 40 711 40 711 45 711 c 256,224,225
 50 711 50 711 52.5 707.5 c 128,-1,226
 55 704 55 704 55 696 c 2,227,-1
 55 681 l 2,228,229
 55 672 55 672 52.5 669 c 128,-1,230
 50 666 50 666 45 666 c 256,217,218
121 666 m 0,231,232
 115 666 115 666 113 669 c 128,-1,233
 111 672 111 672 111 681 c 2,234,-1
 111 696 l 2,235,236
 111 704 111 704 113 707.5 c 128,-1,237
 115 711 115 711 121 711 c 0,238,239
 126 711 126 711 128 707.5 c 128,-1,240
 130 704 130 704 130 696 c 2,241,-1
 130 681 l 2,242,243
 130 672 130 672 128 669 c 128,-1,244
 126 666 126 666 121 666 c 0,231,232
167 500 m 2,245,-1
 112 500 l 1,246,247
 112 500 112 500 110.5 457.5 c 128,-1,248
 109 415 109 415 84 415 c 256,249,250
 59 415 59 415 57 457.5 c 128,-1,251
 55 500 55 500 55 500 c 1,252,-1
 0 500 l 1,253,-1
 0 250 l 1,254,-1
 201 250 l 1,255,-1
 201 447 l 2,256,257
 201 482 201 482 195.5 491 c 128,-1,258
 190 500 190 500 167 500 c 2,245,-1
156 429 m 1,259,-1
 168 429 l 1,260,-1
 168 250 l 1,261,-1
 156 250 l 1,262,-1
 156 429 l 1,259,-1
234 624 m 0,263,264
 218 633 218 633 198.5 631.5 c 128,-1,265
 179 630 179 630 170 610 c 1,266,267
 145 610 145 610 130 591.5 c 128,-1,268
 115 573 115 573 111 526 c 0,269,270
 108 479 108 479 112 468 c 128,-1,271
 116 457 116 457 119 421 c 0,272,273
 122 381 122 381 129.5 374.5 c 128,-1,274
 137 368 137 368 148 363 c 1,275,276
 164 328 164 328 172.5 329 c 128,-1,277
 181 330 181 330 210 330 c 0,278,279
 267 330 267 330 280.5 360 c 128,-1,280
 294 390 294 390 296 493 c 0,281,282
 298 556 298 556 286.5 579.5 c 128,-1,283
 275 603 275 603 234 624 c 0,263,264
179 356 m 1,284,-1
 225 356 l 1,285,-1
 225 250 l 1,286,-1
 179 250 l 1,287,-1
 179 356 l 1,284,-1
266 489 m 0,288,289
 261 501 261 501 257.5 506 c 128,-1,290
 254 511 254 511 238 514 c 1,291,292
 244 510 244 510 247 503 c 128,-1,293
 250 496 250 496 250 487 c 0,294,295
 251 479 251 479 251.5 476 c 128,-1,296
 252 473 252 473 247 481 c 0,297,298
 229 513 229 513 219 507 c 128,-1,299
 209 501 209 501 189 520 c 0,300,301
 176 534 176 534 173.5 541.5 c 128,-1,302
 171 549 171 549 171 549 c 257,303,304
 171 549 171 549 170.5 539 c 128,-1,305
 170 529 170 529 149 508 c 0,306,307
 143 502 143 502 139.5 495.5 c 128,-1,308
 136 489 136 489 132 469 c 0,309,310
 129 455 129 455 129.5 448.5 c 128,-1,311
 130 442 130 442 130 420 c 0,312,313
 130 357 130 357 146 330.5 c 128,-1,314
 162 304 162 304 202 304 c 0,315,316
 243 304 243 304 259 331 c 128,-1,317
 275 358 275 358 275 420 c 0,318,319
 275 460 275 460 274 467.5 c 128,-1,320
 273 475 273 475 266 489 c 0,288,289
235 356 m 1,321,-1
 170 356 l 1,322,323
 170 356 170 356 174 343 c 128,-1,324
 178 330 178 330 202 330 c 0,325,326
 227 330 227 330 231 343 c 128,-1,327
 235 356 235 356 235 356 c 1,321,-1
210 382 m 2,328,-1
 194 382 l 2,329,330
 192 382 192 382 191 383 c 128,-1,331
 190 384 190 384 190 388 c 256,332,333
 190 392 190 392 191 393 c 128,-1,334
 192 394 192 394 194 394 c 2,335,-1
 210 394 l 2,336,337
 213 394 213 394 213.5 393 c 128,-1,338
 214 392 214 392 214 388 c 256,339,340
 214 384 214 384 213.5 383 c 128,-1,341
 213 382 213 382 210 382 c 2,328,-1
168 415 m 0,342,343
 163 415 163 415 161 418.5 c 128,-1,344
 159 422 159 422 159 430 c 2,345,-1
 159 445 l 2,346,347
 159 453 159 453 161 456.5 c 128,-1,348
 163 460 163 460 168 460 c 0,349,350
 174 460 174 460 176 456.5 c 128,-1,351
 178 453 178 453 178 445 c 2,352,-1
 178 430 l 2,353,354
 178 422 178 422 176 418.5 c 128,-1,355
 174 415 174 415 168 415 c 0,342,343
235 415 m 0,356,357
 230 415 230 415 228 418.5 c 128,-1,358
 226 422 226 422 226 430 c 2,359,-1
 226 445 l 2,360,361
 226 453 226 453 228 456.5 c 128,-1,362
 230 460 230 460 235 460 c 0,363,364
 241 460 241 460 243 456.5 c 128,-1,365
 245 453 245 453 245 445 c 2,366,-1
 245 430 l 2,367,368
 245 422 245 422 243 418.5 c 128,-1,369
 241 415 241 415 235 415 c 0,356,357
258 304 m 2,370,-1
 225 304 l 1,371,372
 225 304 225 304 221.5 277 c 128,-1,373
 218 250 218 250 202 250 c 0,374,375
 187 250 187 250 183 277 c 128,-1,376
 179 304 179 304 179 304 c 1,377,-1
 157 304 l 2,378,379
 153 304 153 304 151 303.5 c 128,-1,380
 149 303 149 303 146 302 c 0,381,382
 124 296 124 296 116.5 285.5 c 128,-1,383
 109 275 109 275 104 250 c 1,384,-1
 300 250 l 1,385,386
 295 279 295 279 285.5 291.5 c 128,-1,387
 276 304 276 304 258 304 c 2,370,-1
536 554 m 0,388,389
 536 514 536 514 529.5 498 c 128,-1,390
 523 482 523 482 508 482 c 0,391,392
 492 482 492 482 486 498 c 128,-1,393
 480 514 480 514 480 554 c 0,394,395
 480 593 480 593 486 609 c 128,-1,396
 492 625 492 625 508 625 c 0,397,398
 523 625 523 625 529.5 609 c 128,-1,399
 536 593 536 593 536 554 c 0,388,389
815 554 m 0,400,401
 815 514 815 514 808.5 498 c 128,-1,402
 802 482 802 482 787 482 c 256,403,404
 772 482 772 482 765.5 498 c 128,-1,405
 759 514 759 514 759 554 c 0,406,407
 759 593 759 593 765.5 609 c 128,-1,408
 772 625 772 625 787 625 c 256,409,410
 802 625 802 625 808.5 609 c 128,-1,411
 815 593 815 593 815 554 c 0,400,401
502 526 m 0,412,413
 502 678 502 678 534.5 739.5 c 128,-1,414
 567 801 567 801 647 801 c 0,415,416
 728 801 728 801 760.5 739.5 c 128,-1,417
 793 678 793 678 793 526 c 0,418,419
 793 373 793 373 760.5 311.5 c 128,-1,420
 728 250 728 250 647 250 c 0,421,422
 567 250 567 250 534.5 311.5 c 128,-1,423
 502 373 502 373 502 526 c 0,412,413
592 536 m 0,424,425
 585 536 585 536 582.5 540 c 128,-1,426
 580 544 580 544 580 554 c 2,427,-1
 580 589 l 2,428,429
 580 599 580 599 582.5 603 c 128,-1,430
 585 607 585 607 592 607 c 0,431,432
 598 607 598 607 600.5 603 c 128,-1,433
 603 599 603 599 603 589 c 2,434,-1
 603 554 l 2,435,436
 603 544 603 544 600.5 540 c 128,-1,437
 598 536 598 536 592 536 c 0,424,425
703 536 m 256,438,439
 697 536 697 536 694.5 540 c 128,-1,440
 692 544 692 544 692 554 c 2,441,-1
 692 589 l 2,442,443
 692 599 692 599 694.5 603 c 128,-1,444
 697 607 697 607 703 607 c 256,445,446
 709 607 709 607 711.5 603 c 128,-1,447
 714 599 714 599 714 589 c 2,448,-1
 714 554 l 2,449,450
 714 544 714 544 711.5 540 c 128,-1,451
 709 536 709 536 703 536 c 256,438,439
659 464 m 2,452,-1
 636 464 l 2,453,454
 630 464 630 464 627.5 468 c 128,-1,455
 625 472 625 472 625 482 c 256,456,457
 625 492 625 492 627.5 496 c 128,-1,458
 630 500 630 500 636 500 c 2,459,-1
 659 500 l 2,460,461
 665 500 665 500 667.5 496 c 128,-1,462
 670 492 670 492 670 482 c 256,463,464
 670 472 670 472 667.5 468 c 128,-1,465
 665 464 665 464 659 464 c 2,452,-1
729 410 m 2,466,-1
 692 427 l 2,467,468
 692 428 692 428 692 428 c 129,-1,469
 692 428 692 428 692 429 c 0,470,471
 692 439 692 439 689.5 443 c 128,-1,472
 687 447 687 447 681 447 c 2,473,-1
 614 447 l 2,474,475
 608 447 608 447 605.5 443 c 128,-1,476
 603 439 603 439 603 429 c 0,477,478
 603 428 603 428 603 428 c 129,-1,479
 603 428 603 428 603 427 c 2,480,-1
 566 410 l 2,481,482
 560 407 560 407 558.5 402 c 128,-1,483
 557 397 557 397 559 388 c 0,484,485
 560 380 560 380 562 377.5 c 128,-1,486
 564 375 564 375 569 375 c 0,487,488
 570 375 570 375 570.5 375 c 128,-1,489
 571 375 571 375 572 376 c 2,490,-1
 594 386 l 1,491,492
 592 380 592 380 591.5 376.5 c 128,-1,493
 591 373 591 373 593 367 c 256,494,495
 595 361 595 361 597 359 c 128,-1,496
 599 357 599 357 603 357 c 0,497,498
 604 357 604 357 605 357.5 c 128,-1,499
 606 358 606 358 608 359 c 2,500,-1
 625 373 l 1,501,502
 626 367 626 367 627 364.5 c 128,-1,503
 628 362 628 362 631 359 c 0,504,505
 633 358 633 358 634 357.5 c 128,-1,506
 635 357 635 357 636 357 c 0,507,508
 640 357 640 357 642 359 c 128,-1,509
 644 361 644 361 646 367 c 2,510,-1
 647 371 l 1,511,-1
 649 367 l 2,512,513
 651 361 651 361 653 359 c 128,-1,514
 655 357 655 357 659 357 c 0,515,516
 660 357 660 357 661 357.5 c 128,-1,517
 662 358 662 358 664 359 c 0,518,519
 667 362 667 362 668 364.5 c 128,-1,520
 669 367 669 367 669 373 c 1,521,-1
 687 359 l 2,522,523
 689 358 689 358 689.5 357.5 c 128,-1,524
 690 357 690 357 692 357 c 0,525,526
 696 357 696 357 698 359 c 128,-1,527
 700 361 700 361 702 367 c 256,528,529
 704 373 704 373 703.5 376.5 c 128,-1,530
 703 380 703 380 701 386 c 1,531,-1
 723 376 l 2,532,533
 724 375 724 375 724.5 375 c 128,-1,534
 725 375 725 375 726 375 c 0,535,536
 730 375 730 375 732.5 377.5 c 128,-1,537
 735 380 735 380 736 388 c 0,538,539
 738 397 738 397 736.5 402 c 128,-1,540
 735 407 735 407 729 410 c 2,466,-1
647 893 m 0,541,542
 744 893 744 893 774 836 c 128,-1,543
 804 779 804 779 804 685 c 0,544,545
 804 590 804 590 798 571 c 128,-1,546
 792 552 792 552 780 590 c 2,547,-1
 756 666 l 1,548,549
 756 666 756 666 719.5 666 c 128,-1,550
 683 666 683 666 659 704 c 1,551,552
 659 704 659 704 677.5 647 c 128,-1,553
 696 590 696 590 623 704 c 1,554,555
 623 704 623 704 629 666 c 128,-1,556
 635 628 635 628 563 723 c 1,557,558
 563 723 563 723 545 704 c 128,-1,559
 527 685 527 685 515 590 c 0,560,561
 512 564 512 564 501.5 577 c 128,-1,562
 491 590 491 590 491 685 c 0,563,564
 491 779 491 779 515 836 c 128,-1,565
 539 893 539 893 647 893 c 0,541,542
167 202 m 1,566,-1
 167 212 l 1,567,-1
 198 212 l 1,568,-1
 198 202 l 1,569,-1
 167 202 l 1,566,-1
614 202 m 1,570,-1
 614 212 l 1,571,-1
 644 212 l 1,572,-1
 644 202 l 1,573,-1
 614 202 l 1,570,-1
EndSplineSet
Validated: 37
Ligature2: "'liga' Standard Ligatures in Latin lookup 0 subtable" a b u n
EndChar

StartChar: acela
Encoding: 65540 -1 62
Width: 893
GlyphClass: 1
Flags: W
LayerCount: 2
Fore
SplineSet
310 474 m 1,0,1
 314 494 314 494 315 504.5 c 128,-1,2
 316 515 316 515 316 536 c 0,3,4
 316 610 316 610 304 633.5 c 128,-1,5
 292 657 292 657 257 679 c 1,6,7
 262 697 262 697 263 707 c 128,-1,8
 264 717 264 717 264 736 c 0,9,10
 264 765 264 765 261.5 773 c 128,-1,11
 259 781 259 781 250 791 c 1,12,13
 262 799 262 799 270 808 c 128,-1,14
 278 817 278 817 284 827 c 0,15,16
 292 840 292 840 293 850 c 128,-1,17
 294 860 294 860 287 871 c 0,18,19
 281 881 281 881 275 879.5 c 128,-1,20
 269 878 269 878 260 864 c 0,21,22
 253 853 253 853 245.5 836 c 128,-1,23
 238 819 238 819 235 800 c 1,24,25
 225 803 225 803 219 803.5 c 128,-1,26
 213 804 213 804 201 804 c 0,27,28
 188 804 188 804 182.5 803.5 c 128,-1,29
 177 803 177 803 167 800 c 1,30,31
 164 819 164 819 156.5 836 c 128,-1,32
 149 853 149 853 142 864 c 0,33,34
 133 878 133 878 127 879.5 c 128,-1,35
 121 881 121 881 114 871 c 0,36,37
 108 860 108 860 109 850 c 128,-1,38
 110 840 110 840 118 827 c 0,39,40
 124 817 124 817 132 808 c 128,-1,41
 140 799 140 799 152 791 c 1,42,43
 143 781 143 781 140 773 c 128,-1,44
 137 765 137 765 137 736 c 0,45,46
 137 717 137 717 138.5 707 c 128,-1,47
 140 697 140 697 145 679 c 1,48,49
 110 657 110 657 98 633.5 c 128,-1,50
 86 610 86 610 86 536 c 0,51,52
 86 515 86 515 87 504.5 c 128,-1,53
 88 494 88 494 91 474 c 1,54,-1
 91 474 l 1,55,-1
 91 474 l 1,56,57
 105 391 105 391 124 353.5 c 128,-1,58
 143 316 143 316 190 305 c 1,59,-1
 190 304 l 2,60,61
 190 274 190 274 192.5 262 c 128,-1,62
 195 250 195 250 201 250 c 256,63,64
 207 250 207 250 209.5 262 c 128,-1,65
 212 274 212 274 212 304 c 1,66,67
 212 304 212 304 212 304 c 129,-1,68
 212 304 212 304 212 305 c 0,69,70
 259 316 259 316 278 353.5 c 128,-1,71
 297 391 297 391 310 474 c 1,72,-1
 310 474 l 1,73,-1
 310 474 l 1,0,1
163 554 m 1,74,-1
 239 554 l 1,75,76
 222 579 222 579 215.5 592 c 128,-1,77
 209 605 209 605 204 625 c 1,78,-1
 198 625 l 1,79,80
 192 605 192 605 186 592 c 128,-1,81
 180 579 180 579 163 554 c 1,74,-1
103 482 m 2,82,83
 99 479 99 479 97 477.5 c 128,-1,84
 95 476 95 476 91 474 c 1,85,86
 95 452 95 452 97.5 441.5 c 128,-1,87
 100 431 100 431 107 411 c 1,88,-1
 295 411 l 1,89,90
 302 431 302 431 304.5 441.5 c 128,-1,91
 307 452 307 452 310 474 c 0,92,93
 307 476 307 476 305 477.5 c 128,-1,94
 303 479 303 479 299 482 c 2,95,-1
 103 482 l 2,82,83
143 339 m 1,96,97
 160 317 160 317 170 310.5 c 128,-1,98
 180 304 180 304 201 304 c 256,99,100
 222 304 222 304 232 310.5 c 128,-1,101
 242 317 242 317 259 339 c 1,102,-1
 143 339 l 1,96,97
201 652 m 256,103,104
 201 605 201 605 157 551.5 c 128,-1,105
 113 498 113 498 67 498 c 256,106,107
 21 498 21 498 10.5 520 c 128,-1,108
 0 542 0 542 0 589 c 0,109,110
 0 637 0 637 10.5 653.5 c 128,-1,111
 21 670 21 670 67 670 c 256,112,113
 113 670 113 670 157 684.5 c 128,-1,114
 201 699 201 699 201 652 c 256,103,104
201 652 m 256,115,116
 201 605 201 605 245 551.5 c 128,-1,117
 289 498 289 498 335 498 c 256,118,119
 381 498 381 498 391.5 520 c 128,-1,120
 402 542 402 542 402 589 c 0,121,122
 402 637 402 637 391.5 653.5 c 128,-1,123
 381 670 381 670 335 670 c 256,124,125
 289 670 289 670 245 684.5 c 128,-1,126
 201 699 201 699 201 652 c 256,115,116
22 554 m 0,127,128
 16 554 16 554 13.5 558 c 128,-1,129
 11 562 11 562 11 572 c 0,130,131
 11 581 11 581 13.5 585 c 128,-1,132
 16 589 16 589 22 589 c 0,133,134
 23 589 23 589 50.5 590 c 128,-1,135
 78 591 78 591 174 659 c 0,136,137
 180 663 180 663 183 661 c 128,-1,138
 186 659 186 659 189 650 c 0,139,140
 191 641 191 641 190 636 c 128,-1,141
 189 631 189 631 183 627 c 0,142,143
 82 554 82 554 53.5 554 c 128,-1,144
 25 554 25 554 22 554 c 0,127,128
380 554 m 0,145,146
 377 554 377 554 348.5 554 c 128,-1,147
 320 554 320 554 219 627 c 0,148,149
 213 631 213 631 212 636 c 128,-1,150
 211 641 211 641 213 650 c 0,151,152
 216 659 216 659 219 661 c 128,-1,153
 222 663 222 663 228 659 c 0,154,155
 324 591 324 591 351.5 590 c 128,-1,156
 379 589 379 589 380 589 c 0,157,158
 386 589 386 589 388.5 585 c 128,-1,159
 391 581 391 581 391 571 c 0,160,161
 391 562 391 562 388.5 558 c 128,-1,162
 386 554 386 554 380 554 c 0,145,146
793 500 m 0,163,164
 759 304 759 304 748 277 c 128,-1,165
 737 250 737 250 647 250 c 0,166,167
 558 250 558 250 547 277 c 128,-1,168
 536 304 536 304 502 500 c 0,169,170
 480 633 480 633 502.5 691.5 c 128,-1,171
 525 750 525 750 647 750 c 0,172,173
 770 750 770 750 792.5 691.5 c 128,-1,174
 815 633 815 633 793 500 c 0,163,164
770 697 m 0,175,176
 793 625 793 625 765 589.5 c 128,-1,177
 737 554 737 554 647 554 c 0,178,179
 558 554 558 554 530 589.5 c 128,-1,180
 502 625 502 625 525 697 c 0,181,182
 541 749 541 749 557 776.5 c 128,-1,183
 573 804 573 804 647 804 c 256,184,185
 721 804 721 804 737.5 776.5 c 128,-1,186
 754 749 754 749 770 697 c 0,175,176
781 697 m 0,187,188
 781 637 781 637 751 613 c 128,-1,189
 721 589 721 589 647 589 c 256,190,191
 573 589 573 589 543 613 c 128,-1,192
 513 637 513 637 513 697 c 0,193,194
 513 756 513 756 543 780 c 128,-1,195
 573 804 573 804 647 804 c 256,196,197
 721 804 721 804 751 780 c 128,-1,198
 781 756 781 756 781 697 c 0,187,188
748 714 m 2,199,200
 759 697 759 697 764.5 688 c 128,-1,201
 770 679 770 679 770 661 c 256,202,203
 770 643 770 643 764.5 625 c 128,-1,204
 759 607 759 607 748 625 c 1,205,206
 748 625 748 625 764.5 614.5 c 128,-1,207
 781 604 781 604 770 554 c 0,208,209
 759 500 759 500 742.5 509 c 128,-1,210
 726 518 726 518 726 554 c 0,211,212
 726 589 726 589 717 601 c 128,-1,213
 708 613 708 613 703 589 c 0,214,215
 692 536 692 536 681 536 c 128,-1,216
 670 536 670 536 659 554 c 0,217,218
 647 572 647 572 647 580.5 c 128,-1,219
 647 589 647 589 647 589 c 257,220,221
 647 589 647 589 630.5 589 c 128,-1,222
 614 589 614 589 625 625 c 256,223,224
 636 661 636 661 630.5 661 c 128,-1,225
 625 661 625 661 625 661 c 257,226,227
 625 661 625 661 625 670 c 128,-1,228
 625 679 625 679 636 679 c 256,229,230
 647 679 647 679 680.5 688 c 128,-1,231
 714 697 714 697 726 714 c 0,232,233
 737 732 737 732 742.5 723 c 128,-1,234
 748 714 748 714 748 714 c 2,199,200
759 727 m 0,235,236
 759 681 759 681 734 662 c 128,-1,237
 709 643 709 643 647 643 c 0,238,239
 586 643 586 643 561 662 c 128,-1,240
 536 681 536 681 536 727 c 0,241,242
 536 774 536 774 561 789 c 128,-1,243
 586 804 586 804 647 804 c 0,244,245
 709 804 709 804 734 789 c 128,-1,246
 759 774 759 774 759 727 c 0,235,236
647 643 m 0,247,248
 698 643 698 643 719.5 656 c 128,-1,249
 741 669 741 669 755 704 c 0,250,251
 752 707 752 707 751 709 c 128,-1,252
 750 711 750 711 748 714 c 2,253,254
 748 714 748 714 737 732 c 128,-1,255
 726 750 726 750 714 732 c 0,256,257
 703 714 703 714 675 714 c 128,-1,258
 647 714 647 714 636 714 c 256,259,260
 625 714 625 714 619.5 705.5 c 128,-1,261
 614 697 614 697 614 697 c 257,262,263
 614 697 614 697 623 679 c 128,-1,264
 632 661 632 661 630 644 c 1,265,266
 635 643 635 643 638 643 c 128,-1,267
 641 643 641 643 647 643 c 0,247,248
737 741 m 0,268,269
 737 707 737 707 717 693 c 128,-1,270
 697 679 697 679 647 679 c 0,271,272
 598 679 598 679 578 693 c 128,-1,273
 558 707 558 707 558 741 c 0,274,275
 558 776 558 776 578 807.5 c 128,-1,276
 598 839 598 839 647 839 c 0,277,278
 697 839 697 839 717 807.5 c 128,-1,279
 737 776 737 776 737 741 c 0,268,269
670 848 m 0,280,281
 670 834 670 834 665 828 c 128,-1,282
 660 822 660 822 647 822 c 0,283,284
 635 822 635 822 630 828 c 128,-1,285
 625 834 625 834 625 848 c 0,286,287
 625 863 625 863 630 869 c 128,-1,288
 635 875 635 875 647 875 c 0,289,290
 660 875 660 875 665 869 c 128,-1,291
 670 863 670 863 670 848 c 0,280,281
510 457 m 1,292,293
 518 413 518 413 522 395.5 c 128,-1,294
 526 378 526 378 535 350 c 1,295,296
 569 304 569 304 597 304 c 128,-1,297
 625 304 625 304 647 304 c 0,298,299
 670 304 670 304 698 304 c 128,-1,300
 726 304 726 304 760 350 c 1,301,302
 769 378 769 378 773 395.5 c 128,-1,303
 777 413 777 413 785 457 c 1,304,305
 755 429 755 429 729.5 420 c 128,-1,306
 704 411 704 411 647 411 c 256,307,308
 590 411 590 411 565 420 c 128,-1,309
 540 429 540 429 510 457 c 1,292,293
167 155 m 1,310,-1
 167 259 l 1,311,-1
 176 259 l 1,312,-1
 176 155 l 1,313,-1
 167 155 l 1,310,-1
196 155 m 1,314,-1
 196 259 l 1,315,-1
 205 259 l 1,316,-1
 205 155 l 1,317,-1
 196 155 l 1,314,-1
614 202 m 1,318,-1
 614 212 l 1,319,-1
 644 212 l 1,320,-1
 644 202 l 1,321,-1
 614 202 l 1,318,-1
EndSplineSet
Validated: 37
Ligature2: "'liga' Standard Ligatures in Latin lookup 0 subtable" a c e l a
EndChar

StartChar: amant
Encoding: 65541 -1 63
Width: 893
GlyphClass: 1
Flags: W
LayerCount: 2
Fore
SplineSet
316 847 m 2,0,1
 311 853 311 853 308 851.5 c 128,-1,2
 305 850 305 850 302 841 c 2,3,-1
 273 748 l 2,4,5
 270 739 270 739 267.5 739 c 128,-1,6
 265 739 265 739 262 747 c 2,7,-1
 207 878 l 2,8,9
 204 886 204 886 201 886 c 128,-1,10
 198 886 198 886 195 878 c 2,11,-1
 140 747 l 2,12,13
 137 739 137 739 134.5 739 c 128,-1,14
 132 739 132 739 129 748 c 2,15,-1
 100 841 l 2,16,17
 97 850 97 850 94 851.5 c 128,-1,18
 91 853 91 853 86 847 c 2,19,20
 86 847 86 847 43 798.5 c 128,-1,21
 0 750 0 750 0 536 c 0,22,23
 0 398 0 398 45 324 c 128,-1,24
 90 250 90 250 201 250 c 256,25,26
 312 250 312 250 357 324 c 128,-1,27
 402 398 402 398 402 536 c 0,28,29
 402 750 402 750 359 798.5 c 128,-1,30
 316 847 316 847 316 847 c 2,0,1
357 482 m 2,31,32
 357 463 357 463 352 455 c 128,-1,33
 347 447 347 447 335 447 c 2,34,-1
 67 447 l 2,35,36
 55 447 55 447 50 455 c 128,-1,37
 45 463 45 463 45 482 c 2,38,-1
 45 607 l 2,39,40
 45 627 45 627 50 635 c 128,-1,41
 55 643 55 643 67 643 c 2,42,-1
 335 643 l 2,43,44
 347 643 347 643 352 635 c 128,-1,45
 357 627 357 627 357 607 c 2,46,-1
 357 482 l 2,31,32
848 321 m 2,47,48
 848 282 848 282 838 266 c 128,-1,49
 828 250 828 250 804 250 c 2,50,-1
 491 250 l 2,51,52
 466 250 466 250 456.5 266 c 128,-1,53
 447 282 447 282 447 321 c 2,54,-1
 447 822 l 2,55,56
 447 861 447 861 456.5 877 c 128,-1,57
 466 893 466 893 491 893 c 2,58,-1
 804 893 l 2,59,60
 828 893 828 893 838 877 c 128,-1,61
 848 861 848 861 848 822 c 2,62,-1
 848 321 l 2,47,48
773 779 m 0,63,64
 760 793 760 793 751.5 790 c 128,-1,65
 743 787 743 787 735 766 c 2,66,-1
 613 467 l 1,67,-1
 557 550 l 2,68,69
 546 566 546 566 537 565.5 c 128,-1,70
 528 565 528 565 518 547 c 0,71,72
 507 529 507 529 507.5 515 c 128,-1,73
 508 501 508 501 519 484 c 2,74,-1
 600 365 l 2,75,76
 605 357 605 357 608.5 355 c 128,-1,77
 612 353 612 353 619 353 c 256,78,79
 626 353 626 353 631 355.5 c 128,-1,80
 636 358 636 358 642 373 c 0,81,82
 646 382 646 382 714 550 c 128,-1,83
 782 718 782 718 782 718 c 2,84,85
 790 738 790 738 788 752 c 128,-1,86
 786 766 786 766 773 779 c 0,63,64
220 213 m 1,87,-1
 167 190 l 1,88,-1
 167 200 l 1,89,-1
 209 217 l 1,90,-1
 167 235 l 1,91,-1
 167 244 l 1,92,-1
 220 222 l 1,93,-1
 220 213 l 1,87,-1
667 213 m 1,94,-1
 614 190 l 1,95,-1
 614 200 l 1,96,-1
 656 217 l 1,97,-1
 614 235 l 1,98,-1
 614 244 l 1,99,-1
 667 222 l 1,100,-1
 667 213 l 1,94,-1
EndSplineSet
Validated: 41
Ligature2: "'liga' Standard Ligatures in Latin lookup 0 subtable" a m a n t
EndChar

StartChar: amil
Encoding: 65542 -1 64
Width: 893
GlyphClass: 1
Flags: W
LayerCount: 2
Fore
SplineSet
335 179 m 2,0,1
 335 129 335 129 325 109 c 128,-1,2
 315 89 315 89 290 89 c 2,3,-1
 45 89 l 2,4,5
 20 89 20 89 10 109 c 128,-1,6
 0 129 0 129 0 179 c 2,7,-1
 0 804 l 2,8,9
 0 853 0 853 10 873 c 128,-1,10
 20 893 20 893 45 893 c 2,11,-1
 290 893 l 2,12,13
 315 893 315 893 325 873 c 128,-1,14
 335 853 335 853 335 804 c 2,15,-1
 335 179 l 2,0,1
290 357 m 0,16,17
 290 345 290 345 287.5 340 c 128,-1,18
 285 335 285 335 279 335 c 2,19,-1
 56 335 l 2,20,21
 50 335 50 335 47.5 340 c 128,-1,22
 45 345 45 345 45 357 c 0,23,24
 45 370 45 370 47.5 375 c 128,-1,25
 50 380 50 380 56 380 c 2,26,-1
 279 380 l 2,27,28
 285 380 285 380 287.5 375 c 128,-1,29
 290 370 290 370 290 357 c 0,16,17
112 268 m 256,30,31
 112 256 112 256 109.5 251 c 128,-1,32
 107 246 107 246 101 246 c 2,33,-1
 56 246 l 2,34,35
 50 246 50 246 47.5 251 c 128,-1,36
 45 256 45 256 45 268 c 256,37,38
 45 280 45 280 47.5 285 c 128,-1,39
 50 290 50 290 56 290 c 2,40,-1
 101 290 l 2,41,42
 107 290 107 290 109.5 285 c 128,-1,43
 112 280 112 280 112 268 c 256,30,31
290 714 m 0,44,45
 290 702 290 702 287.5 697 c 128,-1,46
 285 692 285 692 279 692 c 2,47,-1
 56 692 l 2,48,49
 50 692 50 692 47.5 697 c 128,-1,50
 45 702 45 702 45 714 c 0,51,52
 45 727 45 727 47.5 732 c 128,-1,53
 50 737 50 737 56 737 c 2,54,-1
 279 737 l 2,55,56
 285 737 285 737 287.5 732 c 128,-1,57
 290 727 290 727 290 714 c 0,44,45
290 625 m 256,58,59
 290 613 290 613 287.5 608 c 128,-1,60
 285 603 285 603 279 603 c 2,61,-1
 56 603 l 2,62,63
 50 603 50 603 47.5 608 c 128,-1,64
 45 613 45 613 45 625 c 256,65,66
 45 637 45 637 47.5 642 c 128,-1,67
 50 647 50 647 56 647 c 2,68,-1
 279 647 l 2,69,70
 285 647 285 647 287.5 642 c 128,-1,71
 290 637 290 637 290 625 c 256,58,59
290 536 m 0,72,73
 290 523 290 523 287.5 518 c 128,-1,74
 285 513 285 513 279 513 c 2,75,-1
 56 513 l 2,76,77
 50 513 50 513 47.5 518 c 128,-1,78
 45 523 45 523 45 536 c 0,79,80
 45 548 45 548 47.5 553 c 128,-1,81
 50 558 50 558 56 558 c 2,82,-1
 279 558 l 2,83,84
 285 558 285 558 287.5 553 c 128,-1,85
 290 548 290 548 290 536 c 0,72,73
290 447 m 0,86,87
 290 434 290 434 287.5 429 c 128,-1,88
 285 424 285 424 279 424 c 2,89,-1
 56 424 l 2,90,91
 50 424 50 424 47.5 429 c 128,-1,92
 45 434 45 434 45 447 c 0,93,94
 45 459 45 459 47.5 464 c 128,-1,95
 50 469 50 469 56 469 c 2,96,-1
 279 469 l 2,97,98
 285 469 285 469 287.5 464 c 128,-1,99
 290 459 290 459 290 447 c 0,86,87
335 753 m 1,100,101
 326 765 326 765 320.5 765.5 c 128,-1,102
 315 766 315 766 307 753 c 2,103,-1
 298 739 l 1,104,-1
 281 712 l 1,105,-1
 280 710 l 1,106,-1
 254 667 l 1,107,-1
 121 451 l 2,108,109
 116 443 116 443 114 433.5 c 128,-1,110
 112 424 112 424 108 404 c 0,111,112
 104 385 104 385 100.5 363 c 128,-1,113
 97 341 97 341 92 306 c 0,114,115
 90 301 90 301 85 283 c 128,-1,116
 80 265 80 265 86 252 c 0,117,118
 92 238 92 238 102 244.5 c 128,-1,119
 112 251 112 251 115 253 c 0,120,121
 133 257 133 257 144.5 259.5 c 128,-1,122
 156 262 156 262 166 266 c 0,123,124
 177 271 177 271 182 273 c 128,-1,125
 187 275 187 275 192 283 c 1,126,127
 192 283 192 283 192 283 c 129,-1,128
 192 283 192 283 192 284 c 2,129,-1
 325 499 l 1,130,-1
 333 514 l 1,131,-1
 335 516 l 1,132,-1
 335 753 l 1,100,101
192 390 m 2,133,134
 192 390 192 390 184.5 411 c 128,-1,135
 177 432 177 432 168 447 c 0,136,137
 160 466 160 466 149.5 480 c 128,-1,138
 139 494 139 494 139 494 c 2,139,140
 134 504 134 504 130 504.5 c 128,-1,141
 126 505 126 505 121 495 c 0,142,143
 116 486 116 486 114 475.5 c 128,-1,144
 112 465 112 465 108 444 c 0,145,146
 103 419 103 419 98.5 385 c 128,-1,147
 94 351 94 351 88 316 c 0,148,149
 88 310 88 310 91 318 c 128,-1,150
 94 326 94 326 94 320 c 0,151,152
 94 316 94 316 94 314 c 128,-1,153
 94 312 94 312 95 307 c 2,154,-1
 93 304 l 1,155,-1
 96 302 l 2,156,157
 96 301 96 301 96 300 c 128,-1,158
 96 299 96 299 96 298 c 1,159,-1
 98 301 l 2,160,161
 100 300 100 300 101.5 299.5 c 128,-1,162
 103 299 103 299 105 299 c 0,163,164
 107 300 107 300 103 293 c 128,-1,165
 99 286 99 286 102 288 c 0,166,167
 120 299 120 299 137 308 c 128,-1,168
 154 317 154 317 166 328 c 0,169,170
 177 336 177 336 182 340 c 128,-1,171
 187 344 187 344 192 354 c 0,172,173
 197 363 197 363 197 371.5 c 128,-1,174
 197 380 197 380 192 390 c 2,133,134
272 796 m 2,175,176
 262 776 262 776 262 760.5 c 128,-1,177
 262 745 262 745 272 725 c 2,178,-1
 307 654 l 2,179,180
 317 635 317 635 325 635 c 128,-1,181
 333 635 333 635 342 654 c 2,182,-1
 378 725 l 2,183,184
 387 745 387 745 387 760.5 c 128,-1,185
 387 776 387 776 378 796 c 2,186,-1
 342 867 l 2,187,188
 333 886 333 886 325 886 c 128,-1,189
 317 886 317 886 307 867 c 2,190,-1
 272 796 l 2,175,176
121 495 m 1,191,-1
 157 425 l 1,192,-1
 192 354 l 1,193,-1
 325 619 l 1,194,-1
 254 760 l 1,195,-1
 121 495 l 1,191,-1
115 296 m 1,196,197
 115 296 115 296 103.5 283.5 c 128,-1,198
 92 271 92 271 86 283 c 0,199,200
 80 296 80 296 86 318.5 c 128,-1,201
 92 341 92 341 92 341 c 257,202,203
 92 341 92 341 103 341 c 128,-1,204
 114 341 114 341 115 296 c 1,196,197
254 761 m 1,205,-1
 298 849 l 1,206,-1
 369 707 l 1,207,-1
 325 619 l 1,208,-1
 254 761 l 1,205,-1
280 814 m 1,209,-1
 289 831 l 1,210,-1
 360 690 l 1,211,-1
 351 672 l 1,212,-1
 280 814 l 1,209,-1
263 778 m 1,213,-1
 272 796 l 1,214,-1
 342 654 l 1,215,-1
 333 637 l 1,216,-1
 263 778 l 1,213,-1
703 295 m 1,217,-1
 703 352 l 1,218,219
 726 382 726 382 737.5 409 c 128,-1,220
 749 436 749 436 756 506 c 1,221,222
 758 504 758 504 758 503 c 128,-1,223
 758 502 758 502 761 502 c 0,224,225
 772 502 772 502 776 516.5 c 128,-1,226
 780 531 780 531 780 566 c 256,227,228
 780 601 780 601 775 615 c 128,-1,229
 770 629 770 629 760 630 c 1,230,231
 762 645 762 645 762.5 655 c 128,-1,232
 763 665 763 665 763 691 c 0,233,234
 763 778 763 778 744.5 829.5 c 128,-1,235
 726 881 726 881 642 881 c 0,236,237
 568 881 568 881 545 829.5 c 128,-1,238
 522 778 522 778 522 691 c 0,239,240
 522 666 522 666 522.5 656 c 128,-1,241
 523 646 523 646 524 630 c 1,242,243
 514 627 514 627 510 613.5 c 128,-1,244
 506 600 506 600 506 566 c 0,245,246
 506 531 506 531 510.5 516.5 c 128,-1,247
 515 502 515 502 526 502 c 0,248,249
 528 502 528 502 527 503 c 128,-1,250
 526 504 526 504 528 506 c 1,251,252
 535 436 535 436 546.5 409 c 128,-1,253
 558 382 558 382 581 352 c 1,254,-1
 581 298 l 1,255,256
 525 284 525 284 486 252.5 c 128,-1,257
 447 221 447 221 447 159 c 2,258,-1
 447 135 l 2,259,260
 447 112 447 112 453 112 c 128,-1,261
 459 112 459 112 471 112 c 2,262,-1
 802 112 l 2,263,264
 814 112 814 112 820 112 c 128,-1,265
 826 112 826 112 826 135 c 2,266,-1
 826 159 l 2,267,268
 826 217 826 217 792.5 246.5 c 128,-1,269
 759 276 759 276 703 295 c 1,217,-1
EndSplineSet
Validated: 37
Ligature2: "'liga' Standard Ligatures in Latin lookup 0 subtable" a m i l
EndChar

StartChar: an
Encoding: 65543 -1 65
Width: 893
GlyphClass: 1
Flags: W
LayerCount: 2
Fore
SplineSet
372 591 m 2,0,-1
 273 650 l 1,1,-1
 236 845 l 2,2,3
 235 852 235 852 232.5 854.5 c 128,-1,4
 230 857 230 857 225 857 c 256,5,6
 220 857 220 857 218 854.5 c 128,-1,7
 216 852 216 852 215 845 c 2,8,-1
 178 650 l 1,9,-1
 78 591 l 2,10,11
 74 589 74 589 72.5 585.5 c 128,-1,12
 71 582 71 582 71 575 c 0,13,14
 71 567 71 567 72.5 563.5 c 128,-1,15
 74 560 74 560 78 558 c 2,16,-1
 177 499 l 1,17,-1
 215 299 l 2,18,19
 216 291 216 291 218 288.5 c 128,-1,20
 220 286 220 286 225 286 c 256,21,22
 230 286 230 286 232.5 288.5 c 128,-1,23
 235 291 235 291 236 299 c 2,24,-1
 273 499 l 1,25,-1
 372 558 l 2,26,27
 377 560 377 560 378.5 563.5 c 128,-1,28
 380 567 380 567 380 575 c 0,29,30
 380 582 380 582 378.5 585.5 c 128,-1,31
 377 589 377 589 372 591 c 2,0,-1
149 395 m 2,32,-1
 123 410 l 1,33,-1
 113 469 l 2,34,35
 112 477 112 477 110 479.5 c 128,-1,36
 108 482 108 482 103 482 c 0,37,38
 97 482 97 482 95 479.5 c 128,-1,39
 93 477 93 477 92 469 c 2,40,-1
 82 410 l 1,41,-1
 56 395 l 2,42,43
 51 392 51 392 50 389 c 128,-1,44
 49 386 49 386 49 378 c 0,45,46
 49 371 49 371 50 367.5 c 128,-1,47
 51 364 51 364 56 361 c 2,48,-1
 82 346 l 1,49,-1
 92 281 l 2,50,51
 93 273 93 273 95 270.5 c 128,-1,52
 97 268 97 268 103 268 c 0,53,54
 108 268 108 268 110 270.5 c 128,-1,55
 112 273 112 273 113 281 c 2,56,-1
 123 346 l 1,57,-1
 149 361 l 2,58,59
 154 364 154 364 155 367.5 c 128,-1,60
 156 371 156 371 156 378 c 0,61,62
 156 386 156 386 155 389 c 128,-1,63
 154 392 154 392 149 395 c 2,32,-1
101 782 m 2,64,-1
 74 797 l 1,65,-1
 65 840 l 2,66,67
 63 847 63 847 61 849 c 128,-1,68
 59 851 59 851 54 851 c 256,69,70
 49 851 49 851 47 849 c 128,-1,71
 45 847 45 847 44 840 c 2,72,-1
 34 797 l 1,73,-1
 7 782 l 2,74,75
 3 779 3 779 1.5 775.5 c 128,-1,76
 0 772 0 772 0 765 c 0,77,78
 0 757 0 757 1.5 754 c 128,-1,79
 3 751 3 751 7 748 c 2,80,-1
 34 733 l 1,81,-1
 44 690 l 2,82,83
 45 683 45 683 47 681 c 128,-1,84
 49 679 49 679 54 679 c 256,85,86
 59 679 59 679 61 681 c 128,-1,87
 63 683 63 683 65 690 c 2,88,-1
 74 733 l 1,89,-1
 101 748 l 2,90,91
 105 751 105 751 106.5 754 c 128,-1,92
 108 757 108 757 108 765 c 0,93,94
 108 772 108 772 106.5 775.5 c 128,-1,95
 105 779 105 779 101 782 c 2,64,-1
636 893 m 256,96,97
 525 893 525 893 480.5 821 c 128,-1,98
 436 749 436 749 436 572 c 0,99,100
 436 394 436 394 480.5 322 c 128,-1,101
 525 250 525 250 636 250 c 256,102,103
 747 250 747 250 792 322 c 128,-1,104
 837 394 837 394 837 572 c 0,105,106
 837 749 837 749 792 821 c 128,-1,107
 747 893 747 893 636 893 c 256,96,97
458 554 m 1,108,-1
 503 554 l 1,109,110
 504 509 504 509 506.5 488 c 128,-1,111
 509 467 509 467 517 429 c 1,112,-1
 482 429 l 1,113,114
 468 466 468 466 464 487 c 128,-1,115
 460 508 460 508 458 554 c 1,108,-1
648 750 m 1,116,-1
 648 856 l 1,117,118
 678 848 678 848 691.5 828 c 128,-1,119
 705 808 705 808 723 750 c 1,120,-1
 648 750 l 1,116,-1
733 714 m 1,121,122
 741 677 741 677 744 656 c 128,-1,123
 747 635 747 635 748 589 c 1,124,-1
 648 589 l 1,125,-1
 648 714 l 1,126,-1
 733 714 l 1,121,122
625 856 m 1,127,-1
 625 750 l 1,128,-1
 549 750 l 1,129,130
 568 808 568 808 581.5 828 c 128,-1,131
 595 848 595 848 625 856 c 1,127,-1
625 714 m 1,132,-1
 625 589 l 1,133,-1
 525 589 l 1,134,135
 526 635 526 635 528.5 656 c 128,-1,136
 531 677 531 677 540 714 c 1,137,-1
 625 714 l 1,132,-1
503 589 m 1,138,-1
 458 589 l 1,139,140
 460 635 460 635 464 656 c 128,-1,141
 468 677 468 677 482 714 c 1,142,-1
 517 714 l 1,143,144
 509 676 509 676 506.5 655 c 128,-1,145
 504 634 504 634 503 589 c 1,138,-1
525 554 m 1,146,-1
 625 554 l 1,147,-1
 625 429 l 1,148,-1
 540 429 l 1,149,150
 531 466 531 466 528.5 487 c 128,-1,151
 526 508 526 508 525 554 c 1,146,-1
625 393 m 1,152,-1
 625 287 l 1,153,154
 595 295 595 295 581.5 315 c 128,-1,155
 568 335 568 335 549 393 c 1,156,-1
 625 393 l 1,152,-1
648 287 m 1,157,-1
 648 393 l 1,158,-1
 723 393 l 1,159,160
 705 335 705 335 691.5 315 c 128,-1,161
 678 295 678 295 648 287 c 1,157,-1
648 429 m 1,162,-1
 648 554 l 1,163,-1
 748 554 l 1,164,165
 747 508 747 508 744 487 c 128,-1,166
 741 466 741 466 733 429 c 1,167,-1
 648 429 l 1,162,-1
770 554 m 1,168,-1
 814 554 l 1,169,170
 813 508 813 508 808.5 487 c 128,-1,171
 804 466 804 466 791 429 c 1,172,-1
 756 429 l 1,173,174
 764 467 764 467 766.5 488 c 128,-1,175
 769 509 769 509 770 554 c 1,168,-1
770 589 m 1,176,177
 769 634 769 634 766.5 655 c 128,-1,178
 764 676 764 676 756 714 c 1,179,-1
 791 714 l 1,180,181
 804 677 804 677 808.5 656 c 128,-1,182
 813 635 813 635 814 589 c 1,183,-1
 770 589 l 1,176,177
776 750 m 1,184,-1
 748 750 l 1,185,186
 740 779 740 779 735 791.5 c 128,-1,187
 730 804 730 804 719 825 c 1,188,189
 741 807 741 807 750.5 794 c 128,-1,190
 760 781 760 781 776 750 c 1,184,-1
554 825 m 1,191,192
 543 804 543 804 538 791.5 c 128,-1,193
 533 779 533 779 525 750 c 1,194,-1
 497 750 l 1,195,196
 513 781 513 781 522.5 794 c 128,-1,197
 532 807 532 807 554 825 c 1,191,192
497 393 m 1,198,-1
 525 393 l 1,199,200
 533 364 533 364 538 351.5 c 128,-1,201
 543 339 543 339 554 318 c 1,202,203
 532 336 532 336 522.5 349 c 128,-1,204
 513 362 513 362 497 393 c 1,198,-1
719 318 m 1,205,206
 730 339 730 339 735 351.5 c 128,-1,207
 740 364 740 364 748 393 c 1,208,-1
 776 393 l 1,209,210
 760 362 760 362 750.5 349 c 128,-1,211
 741 336 741 336 719 318 c 1,205,206
156 202 m 1,212,-1
 156 212 l 1,213,-1
 187 212 l 1,214,-1
 187 202 l 1,215,-1
 156 202 l 1,212,-1
603 178 m 1,216,-1
 603 189 l 1,217,-1
 614 189 l 1,218,-1
 614 178 l 1,219,-1
 603 178 l 1,216,-1
EndSplineSet
Validated: 9
Ligature2: "'liga' Standard Ligatures in Latin lookup 0 subtable" a n
EndChar

StartChar: awsar
Encoding: 65544 -1 66
Width: 893
GlyphClass: 1
Flags: W
LayerCount: 2
Fore
SplineSet
158 512 m 1,0,-1
 75 723 l 1,1,-1
 34 512 l 1,2,-1
 158 512 l 1,0,-1
200 769 m 1,3,-1
 127 493 l 1,4,-1
 273 493 l 1,5,-1
 200 769 l 1,3,-1
244 512 m 1,6,-1
 327 723 l 1,7,-1
 368 512 l 1,8,-1
 244 512 l 1,6,-1
320 554 m 1,9,-1
 267 814 l 1,10,-1
 201 554 l 1,11,-1
 201 554 l 1,12,-1
 201 554 l 1,13,-1
 135 814 l 1,14,-1
 82 554 l 1,15,16
 47 651 47 651 30.5 682 c 128,-1,17
 14 713 14 713 14 713 c 257,18,19
 14 713 14 713 23.5 571.5 c 128,-1,20
 33 430 33 430 33 156 c 1,21,-1
 368 156 l 1,22,23
 368 430 368 430 378 571.5 c 128,-1,24
 388 713 388 713 388 713 c 257,25,26
 388 713 388 713 371.5 682 c 128,-1,27
 355 651 355 651 320 554 c 1,9,-1
242 402 m 0,28,29
 242 356 242 356 232.5 338 c 128,-1,30
 223 320 223 320 200 320 c 0,31,32
 178 320 178 320 168.5 338 c 128,-1,33
 159 356 159 356 159 402 c 0,34,35
 159 447 159 447 168.5 465.5 c 128,-1,36
 178 484 178 484 200 484 c 0,37,38
 223 484 223 484 232.5 465.5 c 128,-1,39
 242 447 242 447 242 402 c 0,28,29
322 402 m 256,40,41
 322 372 322 372 316 360 c 128,-1,42
 310 348 310 348 295 348 c 0,43,44
 281 348 281 348 274.5 360 c 128,-1,45
 268 372 268 372 268 402 c 256,46,47
 268 432 268 432 274.5 444 c 128,-1,48
 281 456 281 456 295 456 c 0,49,50
 310 456 310 456 316 444 c 128,-1,51
 322 432 322 432 322 402 c 256,40,41
389 402 m 0,52,53
 389 377 389 377 384 367.5 c 128,-1,54
 379 358 379 358 367 358 c 0,55,56
 354 358 354 358 349.5 367.5 c 128,-1,57
 345 377 345 377 345 402 c 0,58,59
 345 426 345 426 349.5 436 c 128,-1,60
 354 446 354 446 367 446 c 0,61,62
 379 446 379 446 384 436 c 128,-1,63
 389 426 389 426 389 402 c 0,52,53
132 402 m 256,64,65
 132 372 132 372 126 360 c 128,-1,66
 120 348 120 348 105 348 c 0,67,68
 91 348 91 348 85 360 c 128,-1,69
 79 372 79 372 79 402 c 256,70,71
 79 432 79 432 85 444 c 128,-1,72
 91 456 91 456 105 456 c 0,73,74
 120 456 120 456 126 444 c 128,-1,75
 132 432 132 432 132 402 c 256,64,65
56 402 m 0,76,77
 56 377 56 377 51 367.5 c 128,-1,78
 46 358 46 358 34 358 c 256,79,80
 22 358 22 358 17 367.5 c 128,-1,81
 12 377 12 377 12 402 c 0,82,83
 12 426 12 426 17 436 c 128,-1,84
 22 446 22 446 34 446 c 256,85,86
 46 446 46 446 51 436 c 128,-1,87
 56 426 56 426 56 402 c 0,76,77
368 134 m 2,88,-1
 33 134 l 2,89,90
 27 134 27 134 24.5 139 c 128,-1,91
 22 144 22 144 22 156 c 0,92,93
 22 169 22 169 24.5 174 c 128,-1,94
 27 179 27 179 33 179 c 2,95,-1
 368 179 l 2,96,97
 375 179 375 179 377.5 174 c 128,-1,98
 380 169 380 169 380 156 c 0,99,100
 380 144 380 144 377.5 139 c 128,-1,101
 375 134 375 134 368 134 c 2,88,-1
368 212 m 2,102,-1
 33 212 l 2,103,104
 27 212 27 212 24.5 217 c 128,-1,105
 22 222 22 222 22 234 c 256,106,107
 22 246 22 246 24.5 251 c 128,-1,108
 27 256 27 256 33 256 c 2,109,-1
 368 256 l 2,110,111
 375 256 375 256 377.5 251 c 128,-1,112
 380 246 380 246 380 234 c 256,113,114
 380 222 380 222 377.5 217 c 128,-1,115
 375 212 375 212 368 212 c 2,102,-1
32 713 m 0,116,117
 32 696 32 696 28.5 689 c 128,-1,118
 25 682 25 682 16 682 c 256,119,120
 7 682 7 682 3.5 689 c 128,-1,121
 0 696 0 696 0 713 c 0,122,123
 0 731 0 731 3.5 738 c 128,-1,124
 7 745 7 745 16 745 c 256,125,126
 25 745 25 745 28.5 738 c 128,-1,127
 32 731 32 731 32 713 c 0,116,117
89 723 m 0,128,129
 89 709 89 709 86 703 c 128,-1,130
 83 697 83 697 75 697 c 0,131,132
 68 697 68 697 65 703 c 128,-1,133
 62 709 62 709 62 723 c 0,134,135
 62 738 62 738 65 744 c 128,-1,136
 68 750 68 750 75 750 c 0,137,138
 83 750 83 750 86 744 c 128,-1,139
 89 738 89 738 89 723 c 0,128,129
155 814 m 256,140,141
 155 792 155 792 150.5 783.5 c 128,-1,142
 146 775 146 775 135 775 c 256,143,144
 124 775 124 775 119.5 783.5 c 128,-1,145
 115 792 115 792 115 814 c 256,146,147
 115 836 115 836 119.5 845 c 128,-1,148
 124 854 124 854 135 854 c 256,149,150
 146 854 146 854 150.5 845 c 128,-1,151
 155 836 155 836 155 814 c 256,140,141
401 713 m 0,152,153
 401 696 401 696 397.5 689 c 128,-1,154
 394 682 394 682 386 682 c 0,155,156
 377 682 377 682 373.5 689 c 128,-1,157
 370 696 370 696 370 713 c 0,158,159
 370 731 370 731 373.5 738 c 128,-1,160
 377 745 377 745 386 745 c 0,161,162
 394 745 394 745 397.5 738 c 128,-1,163
 401 731 401 731 401 713 c 0,152,153
340 723 m 0,164,165
 340 709 340 709 337 703 c 128,-1,166
 334 697 334 697 327 697 c 0,167,168
 319 697 319 697 316 703 c 128,-1,169
 313 709 313 709 313 723 c 0,170,171
 313 738 313 738 316 744 c 128,-1,172
 319 750 319 750 327 750 c 0,173,174
 334 750 334 750 337 744 c 128,-1,175
 340 738 340 738 340 723 c 0,164,165
287 814 m 256,176,177
 287 792 287 792 282.5 783.5 c 128,-1,178
 278 775 278 775 267 775 c 256,179,180
 256 775 256 775 251.5 783.5 c 128,-1,181
 247 792 247 792 247 814 c 256,182,183
 247 836 247 836 251.5 845 c 128,-1,184
 256 854 256 854 267 854 c 256,185,186
 278 854 278 854 282.5 845 c 128,-1,187
 287 836 287 836 287 814 c 256,176,177
220 769 m 256,188,189
 220 747 220 747 215.5 738.5 c 128,-1,190
 211 730 211 730 200 730 c 256,191,192
 189 730 189 730 184.5 738.5 c 128,-1,193
 180 747 180 747 180 769 c 256,194,195
 180 791 180 791 184.5 800 c 128,-1,196
 189 809 189 809 200 809 c 256,197,198
 211 809 211 809 215.5 800 c 128,-1,199
 220 791 220 791 220 769 c 256,188,189
647 893 m 256,200,201
 536 893 536 893 491.5 803 c 128,-1,202
 447 713 447 713 447 491 c 256,203,204
 447 269 447 269 491.5 179 c 128,-1,205
 536 89 536 89 647 89 c 256,206,207
 758 89 758 89 803 179 c 128,-1,208
 848 269 848 269 848 491 c 256,209,210
 848 713 848 713 803 803 c 128,-1,211
 758 893 758 893 647 893 c 256,200,201
647 223 m 256,212,213
 573 223 573 223 543 283 c 128,-1,214
 513 343 513 343 513 491 c 256,215,216
 513 639 513 639 543 699 c 128,-1,217
 573 759 573 759 647 759 c 256,218,219
 721 759 721 759 751 699 c 128,-1,220
 781 639 781 639 781 491 c 256,221,222
 781 343 781 343 751 283 c 128,-1,223
 721 223 721 223 647 223 c 256,212,213
EndSplineSet
Validated: 5
Ligature2: "'liga' Standard Ligatures in Latin lookup 0 subtable" a w s a r
EndChar

StartChar: awsaran
Encoding: 65545 -1 67
Width: 893
GlyphClass: 1
Flags: W
LayerCount: 2
Fore
SplineSet
158 588 m 1,0,-1
 75 757 l 1,1,-1
 34 588 l 1,2,-1
 158 588 l 1,0,-1
200 794 m 1,3,-1
 127 573 l 1,4,-1
 273 573 l 1,5,-1
 200 794 l 1,3,-1
244 588 m 1,6,-1
 327 757 l 1,7,-1
 368 588 l 1,8,-1
 244 588 l 1,6,-1
320 622 m 1,9,-1
 267 830 l 1,10,-1
 201 622 l 1,11,-1
 201 622 l 1,12,-1
 201 622 l 1,13,-1
 135 830 l 1,14,-1
 82 622 l 1,15,16
 47 700 47 700 30.5 724.5 c 128,-1,17
 14 749 14 749 14 749 c 257,18,19
 14 749 14 749 23.5 635.5 c 128,-1,20
 33 522 33 522 33 304 c 1,21,-1
 368 304 l 1,22,23
 368 522 368 522 378 635.5 c 128,-1,24
 388 749 388 749 388 749 c 257,25,26
 388 749 388 749 371.5 724.5 c 128,-1,27
 355 700 355 700 320 622 c 1,9,-1
242 500 m 256,28,29
 242 464 242 464 232.5 449 c 128,-1,30
 223 434 223 434 200 434 c 0,31,32
 178 434 178 434 168.5 449 c 128,-1,33
 159 464 159 464 159 500 c 256,34,35
 159 536 159 536 168.5 551 c 128,-1,36
 178 566 178 566 200 566 c 0,37,38
 223 566 223 566 232.5 551 c 128,-1,39
 242 536 242 536 242 500 c 256,28,29
322 500 m 256,40,41
 322 476 322 476 316 466.5 c 128,-1,42
 310 457 310 457 295 457 c 0,43,44
 281 457 281 457 274.5 466.5 c 128,-1,45
 268 476 268 476 268 500 c 256,46,47
 268 524 268 524 274.5 533.5 c 128,-1,48
 281 543 281 543 295 543 c 0,49,50
 310 543 310 543 316 533.5 c 128,-1,51
 322 524 322 524 322 500 c 256,40,41
389 500 m 256,52,53
 389 480 389 480 384 472.5 c 128,-1,54
 379 465 379 465 367 465 c 0,55,56
 354 465 354 465 349.5 472.5 c 128,-1,57
 345 480 345 480 345 500 c 256,58,59
 345 520 345 520 349.5 528 c 128,-1,60
 354 536 354 536 367 536 c 0,61,62
 379 536 379 536 384 528 c 128,-1,63
 389 520 389 520 389 500 c 256,52,53
132 500 m 256,64,65
 132 476 132 476 126 466.5 c 128,-1,66
 120 457 120 457 105 457 c 0,67,68
 91 457 91 457 85 466.5 c 128,-1,69
 79 476 79 476 79 500 c 256,70,71
 79 524 79 524 85 533.5 c 128,-1,72
 91 543 91 543 105 543 c 0,73,74
 120 543 120 543 126 533.5 c 128,-1,75
 132 524 132 524 132 500 c 256,64,65
56 500 m 256,76,77
 56 480 56 480 51 472.5 c 128,-1,78
 46 465 46 465 34 465 c 256,79,80
 22 465 22 465 17 472.5 c 128,-1,81
 12 480 12 480 12 500 c 256,82,83
 12 520 12 520 17 528 c 128,-1,84
 22 536 22 536 34 536 c 256,85,86
 46 536 46 536 51 528 c 128,-1,87
 56 520 56 520 56 500 c 256,76,77
368 286 m 2,88,-1
 33 286 l 2,89,90
 27 286 27 286 24.5 290 c 128,-1,91
 22 294 22 294 22 304 c 0,92,93
 22 313 22 313 24.5 317 c 128,-1,94
 27 321 27 321 33 321 c 2,95,-1
 368 321 l 2,96,97
 375 321 375 321 377.5 317 c 128,-1,98
 380 313 380 313 380 304 c 0,99,100
 380 294 380 294 377.5 290 c 128,-1,101
 375 286 375 286 368 286 c 2,88,-1
368 348 m 2,102,-1
 33 348 l 2,103,104
 27 348 27 348 24.5 352 c 128,-1,105
 22 356 22 356 22 366 c 256,106,107
 22 376 22 376 24.5 380 c 128,-1,108
 27 384 27 384 33 384 c 2,109,-1
 368 384 l 2,110,111
 375 384 375 384 377.5 380 c 128,-1,112
 380 376 380 376 380 366 c 256,113,114
 380 356 380 356 377.5 352 c 128,-1,115
 375 348 375 348 368 348 c 2,102,-1
32 749 m 256,116,117
 32 735 32 735 28.5 729.5 c 128,-1,118
 25 724 25 724 16 724 c 256,119,120
 7 724 7 724 3.5 729.5 c 128,-1,121
 0 735 0 735 0 749 c 256,122,123
 0 763 0 763 3.5 768.5 c 128,-1,124
 7 774 7 774 16 774 c 256,125,126
 25 774 25 774 28.5 768.5 c 128,-1,127
 32 763 32 763 32 749 c 256,116,117
89 757 m 0,128,129
 89 746 89 746 86 741 c 128,-1,130
 83 736 83 736 75 736 c 0,131,132
 68 736 68 736 65 741 c 128,-1,133
 62 746 62 746 62 757 c 0,134,135
 62 769 62 769 65 774 c 128,-1,136
 68 779 68 779 75 779 c 0,137,138
 83 779 83 779 86 774 c 128,-1,139
 89 769 89 769 89 757 c 0,128,129
155 830 m 256,140,141
 155 812 155 812 150.5 805 c 128,-1,142
 146 798 146 798 135 798 c 256,143,144
 124 798 124 798 119.5 805 c 128,-1,145
 115 812 115 812 115 830 c 256,146,147
 115 848 115 848 119.5 855 c 128,-1,148
 124 862 124 862 135 862 c 256,149,150
 146 862 146 862 150.5 855 c 128,-1,151
 155 848 155 848 155 830 c 256,140,141
401 749 m 256,152,153
 401 735 401 735 397.5 729.5 c 128,-1,154
 394 724 394 724 386 724 c 0,155,156
 377 724 377 724 373.5 729.5 c 128,-1,157
 370 735 370 735 370 749 c 256,158,159
 370 763 370 763 373.5 768.5 c 128,-1,160
 377 774 377 774 386 774 c 0,161,162
 394 774 394 774 397.5 768.5 c 128,-1,163
 401 763 401 763 401 749 c 256,152,153
340 757 m 0,164,165
 340 746 340 746 337 741 c 128,-1,166
 334 736 334 736 327 736 c 0,167,168
 319 736 319 736 316 741 c 128,-1,169
 313 746 313 746 313 757 c 0,170,171
 313 769 313 769 316 774 c 128,-1,172
 319 779 319 779 327 779 c 0,173,174
 334 779 334 779 337 774 c 128,-1,175
 340 769 340 769 340 757 c 0,164,165
287 830 m 256,176,177
 287 812 287 812 282.5 805 c 128,-1,178
 278 798 278 798 267 798 c 256,179,180
 256 798 256 798 251.5 805 c 128,-1,181
 247 812 247 812 247 830 c 256,182,183
 247 848 247 848 251.5 855 c 128,-1,184
 256 862 256 862 267 862 c 256,185,186
 278 862 278 862 282.5 855 c 128,-1,187
 287 848 287 848 287 830 c 256,176,177
220 794 m 0,188,189
 220 777 220 777 215.5 769.5 c 128,-1,190
 211 762 211 762 200 762 c 256,191,192
 189 762 189 762 184.5 769.5 c 128,-1,193
 180 777 180 777 180 794 c 0,194,195
 180 812 180 812 184.5 819 c 128,-1,196
 189 826 189 826 200 826 c 256,197,198
 211 826 211 826 215.5 819 c 128,-1,199
 220 812 220 812 220 794 c 0,188,189
711 477 m 1,200,-1
 588 672 l 1,201,-1
 693 812 l 1,202,-1
 798 645 l 1,203,-1
 711 477 l 1,200,-1
833 645 m 0,204,205
 813 614 813 614 797.5 614 c 128,-1,206
 782 614 782 614 763 645 c 2,207,-1
 693 756 l 2,208,209
 674 787 674 787 674 812 c 128,-1,210
 674 837 674 837 693 868 c 256,211,212
 712 899 712 899 728 899 c 128,-1,213
 744 899 744 899 763 868 c 2,214,-1
 833 756 l 2,215,216
 852 725 852 725 852 700 c 128,-1,217
 852 675 852 675 833 645 c 0,204,205
603 575 m 1,218,219
 603 575 603 575 521.5 421 c 128,-1,220
 440 267 440 267 449 253 c 0,221,222
 457 239 457 239 553 369.5 c 128,-1,223
 649 500 649 500 649 500 c 1,224,-1
 603 575 l 1,218,219
728 393 m 256,225,226
 709 362 709 362 693 362 c 128,-1,227
 677 362 677 362 658 393 c 2,228,-1
 536 589 l 2,229,230
 517 620 517 620 517 645 c 128,-1,231
 517 670 517 670 536 700 c 0,232,233
 555 731 555 731 570.5 731 c 128,-1,234
 586 731 586 731 606 700 c 2,235,-1
 728 505 l 2,236,237
 747 474 747 474 747 449 c 128,-1,238
 747 424 747 424 728 393 c 256,225,226
499 213 m 1,239,-1
 447 190 l 1,240,-1
 447 200 l 1,241,-1
 488 217 l 1,242,-1
 447 235 l 1,243,-1
 447 244 l 1,244,-1
 499 222 l 1,245,-1
 499 213 l 1,239,-1
EndSplineSet
Validated: 37
Ligature2: "'liga' Standard Ligatures in Latin lookup 0 subtable" a w s a r a n
EndChar

